<svg width="25" height="24" viewBox="0 0 25 24" fill="none" xmlns="http://www.w3.org/2000/svg">
<path d="M7.32727 2H6.32727C3.32727 2 2.32727 3.79 2.32727 6V7V21C2.32727 21.83 3.26727 22.3 3.92727 21.8L5.63727 20.52C6.03727 20.22 6.59727 20.26 6.95727 20.62L8.61727 22.29C9.00727 22.68 9.64727 22.68 10.0373 22.29L11.7173 20.61C12.0673 20.26 12.6273 20.22 13.0173 20.52L14.7273 21.8C15.3873 22.29 16.3273 21.82 16.3273 21V4C16.3273 2.9 17.2273 2 18.3273 2H7.32727ZM11.5773 13.75H7.07727C6.66727 13.75 6.32727 13.41 6.32727 13C6.32727 12.59 6.66727 12.25 7.07727 12.25H11.5773C11.9873 12.25 12.3273 12.59 12.3273 13C12.3273 13.41 11.9873 13.75 11.5773 13.75ZM12.3273 9.75H6.32727C5.91727 9.75 5.57727 9.41 5.57727 9C5.57727 8.59 5.91727 8.25 6.32727 8.25H12.3273C12.7373 8.25 13.0773 8.59 13.0773 9C13.0773 9.41 12.7373 9.75 12.3273 9.75Z" fill="#30B4FF"/>
<path d="M18.3373 2V3.5C18.9973 3.5 19.6273 3.77 20.0873 4.22C20.5673 4.71 20.8273 5.34 20.8273 6V8.42C20.8273 9.16 20.4973 9.5 19.7473 9.5H17.8273V4.01C17.8273 3.73 18.0573 3.5 18.3373 3.5V2ZM18.3373 2C17.2273 2 16.3273 2.9 16.3273 4.01V11H19.7473C21.3273 11 22.3273 10 22.3273 8.42V6C22.3273 4.9 21.8773 3.9 21.1573 3.17C20.4273 2.45 19.4373 2.01 18.3373 2C18.3473 2 18.3373 2 18.3373 2Z" fill="#30B4FF"/>
</svg>
