<svg width="25" height="24" viewBox="0 0 25 24" fill="none" xmlns="http://www.w3.org/2000/svg">
<path d="M2.48193 9.75C2.07193 9.75 1.73193 9.41 1.73193 9V6.5C1.73193 3.6 4.09193 1.25 6.98193 1.25H9.48193C9.89193 1.25 10.2319 1.59 10.2319 2C10.2319 2.41 9.89193 2.75 9.48193 2.75H6.98193C4.91193 2.75 3.23193 4.43 3.23193 6.5V9C3.23193 9.41 2.89193 9.75 2.48193 9.75Z" fill="#30B4FF"/>
<path d="M22.4819 9.75C22.0719 9.75 21.7319 9.41 21.7319 9V6.5C21.7319 4.43 20.0519 2.75 17.9819 2.75H15.4819C15.0719 2.75 14.7319 2.41 14.7319 2C14.7319 1.59 15.0719 1.25 15.4819 1.25H17.9819C20.8719 1.25 23.2319 3.6 23.2319 6.5V9C23.2319 9.41 22.8919 9.75 22.4819 9.75Z" fill="#30B4FF"/>
<path d="M17.9819 22.75H16.4819C16.0719 22.75 15.7319 22.41 15.7319 22C15.7319 21.59 16.0719 21.25 16.4819 21.25H17.9819C20.0519 21.25 21.7319 19.57 21.7319 17.5V16C21.7319 15.59 22.0719 15.25 22.4819 15.25C22.8919 15.25 23.2319 15.59 23.2319 16V17.5C23.2319 20.4 20.8719 22.75 17.9819 22.75Z" fill="#30B4FF"/>
<path d="M9.48193 22.75H6.98193C4.09193 22.75 1.73193 20.4 1.73193 17.5V15C1.73193 14.59 2.07193 14.25 2.48193 14.25C2.89193 14.25 3.23193 14.59 3.23193 15V17.5C3.23193 19.57 4.91193 21.25 6.98193 21.25H9.48193C9.89193 21.25 10.2319 21.59 10.2319 22C10.2319 22.41 9.89193 22.75 9.48193 22.75Z" fill="#30B4FF"/>
<path d="M9.48193 5.25H7.48193C6.34193 5.25 5.73193 5.85 5.73193 7V9C5.73193 10.15 6.34193 10.75 7.48193 10.75H9.48193C10.6219 10.75 11.2319 10.15 11.2319 9V7C11.2319 5.85 10.6219 5.25 9.48193 5.25Z" fill="#30B4FF"/>
<path d="M17.4819 5.25H15.4819C14.3419 5.25 13.7319 5.85 13.7319 7V9C13.7319 10.15 14.3419 10.75 15.4819 10.75H17.4819C18.6219 10.75 19.2319 10.15 19.2319 9V7C19.2319 5.85 18.6219 5.25 17.4819 5.25Z" fill="#30B4FF"/>
<path d="M9.48193 13.25H7.48193C6.34193 13.25 5.73193 13.85 5.73193 15V17C5.73193 18.15 6.34193 18.75 7.48193 18.75H9.48193C10.6219 18.75 11.2319 18.15 11.2319 17V15C11.2319 13.85 10.6219 13.25 9.48193 13.25Z" fill="#30B4FF"/>
<path d="M17.4819 13.25H15.4819C14.3419 13.25 13.7319 13.85 13.7319 15V17C13.7319 18.15 14.3419 18.75 15.4819 18.75H17.4819C18.6219 18.75 19.2319 18.15 19.2319 17V15C19.2319 13.85 18.6219 13.25 17.4819 13.25Z" fill="#30B4FF"/>
</svg>
