<svg width="36" height="36" viewBox="0 0 36 36" fill="none" xmlns="http://www.w3.org/2000/svg">
<rect width="36" height="36" rx="8" fill="#30B4FF"/>
<path d="M27.67 12.95C27.03 10.78 25.22 8.97003 23.05 8.33003C21.4 7.85003 20.26 7.89003 19.47 8.48003C18.52 9.19003 18.41 10.47 18.41 11.38V13.87C18.41 16.33 19.53 17.58 21.73 17.58H24.6C25.5 17.58 26.79 17.47 27.5 16.52C28.11 15.74 28.16 14.6 27.67 12.95Z" fill="white"/>
<path d="M24.91 19.36C24.65 19.06 24.27 18.89 23.88 18.89H20.3C18.54 18.89 17.11 17.46 17.11 15.7V12.12C17.11 11.73 16.94 11.35 16.64 11.09C16.35 10.83 15.95 10.71 15.57 10.76C13.22 11.06 11.06 12.35 9.65002 14.29C8.23002 16.24 7.71002 18.62 8.16002 21C8.81002 24.44 11.56 27.19 15.01 27.84C15.56 27.95 16.11 28 16.66 28C18.47 28 20.22 27.44 21.71 26.35C23.65 24.94 24.94 22.78 25.24 20.43C25.29 20.04 25.17 19.65 24.91 19.36Z" fill="white"/>
</svg>
