<svg width="36" height="36" viewBox="0 0 36 36" fill="none" xmlns="http://www.w3.org/2000/svg">
<rect width="36" height="36" rx="8" fill="#30B4FF"/>
<path d="M23.53 13.77C23.46 13.76 23.39 13.76 23.32 13.77C21.77 13.72 20.54 12.45 20.54 10.89C20.54 9.3 21.83 8 23.43 8C25.02 8 26.32 9.29 26.32 10.89C26.31 12.45 25.08 13.72 23.53 13.77Z" fill="white"/>
<path d="M26.79 20.7C25.67 21.45 24.1 21.73 22.65 21.54C23.03 20.72 23.23 19.81 23.24 18.85C23.24 17.85 23.02 16.9 22.6 16.07C24.08 15.87 25.65 16.15 26.78 16.9C28.36 17.94 28.36 19.65 26.79 20.7Z" fill="white"/>
<path d="M12.44 13.77C12.51 13.76 12.58 13.76 12.65 13.77C14.2 13.72 15.43 12.45 15.43 10.89C15.43 9.29 14.14 8 12.54 8C10.95 8 9.66003 9.29 9.66003 10.89C9.66003 12.45 10.89 13.72 12.44 13.77Z" fill="white"/>
<path d="M12.55 18.85C12.55 19.82 12.76 20.74 13.14 21.57C11.73 21.72 10.26 21.42 9.18 20.71C7.6 19.66 7.6 17.95 9.18 16.9C10.25 16.18 11.76 15.89 13.18 16.05C12.77 16.89 12.55 17.84 12.55 18.85Z" fill="white"/>
<path d="M18.12 21.87C18.04 21.86 17.95 21.86 17.86 21.87C16.02 21.81 14.55 20.3 14.55 18.44C14.56 16.54 16.09 15 18 15C19.9 15 21.44 16.54 21.44 18.44C21.43 20.3 19.97 21.81 18.12 21.87Z" fill="white"/>
<path d="M14.87 23.94C13.36 24.95 13.36 26.61 14.87 27.61C16.59 28.76 19.41 28.76 21.13 27.61C22.64 26.6 22.64 24.94 21.13 23.94C19.42 22.79 16.6 22.79 14.87 23.94Z" fill="white"/>
</svg>
