<svg width="36" height="36" viewBox="0 0 36 36" fill="none" xmlns="http://www.w3.org/2000/svg">
<rect width="36" height="36" rx="8" fill="#30B4FF"/>
<path d="M23 28H13C12.59 28 12.25 27.66 12.25 27.25C12.25 26.84 12.59 26.5 13 26.5H23C23.41 26.5 23.75 26.84 23.75 27.25C23.75 27.66 23.41 28 23 28Z" fill="white"/>
<path d="M26.35 11.52L22.35 14.38C21.82 14.76 21.06 14.53 20.83 13.92L18.94 8.88004C18.62 8.01004 17.39 8.01004 17.07 8.88004L15.17 13.91C14.94 14.53 14.19 14.76 13.66 14.37L9.65998 11.51C8.85998 10.95 7.79998 11.74 8.12998 12.67L12.29 24.32C12.43 24.72 12.81 24.98 13.23 24.98H22.76C23.18 24.98 23.56 24.71 23.7 24.32L27.86 12.67C28.2 11.74 27.14 10.95 26.35 11.52ZM20.5 20.75H15.5C15.09 20.75 14.75 20.41 14.75 20C14.75 19.59 15.09 19.25 15.5 19.25H20.5C20.91 19.25 21.25 19.59 21.25 20C21.25 20.41 20.91 20.75 20.5 20.75Z" fill="white"/>
</svg>
