<svg width="164" height="24" viewBox="0 0 164 24" fill="none" xmlns="http://www.w3.org/2000/svg">
<path d="M1 1L0.999999 22.9963" stroke="white" stroke-width="2" stroke-linecap="round"/>
<path d="M33.1055 17.3178C33.1055 17.6278 32.9134 17.7806 32.5341 17.7806H30.4645C29.7634 17.7806 29.2064 17.452 28.7886 16.7902L27.3961 14.6059C26.7959 13.671 25.9267 13.2036 24.7887 13.2036V17.1419C24.7887 17.3316 24.7262 17.489 24.5966 17.6047C24.4669 17.725 24.3085 17.7852 24.1212 17.7852H21.6675C21.4706 17.7852 21.3073 17.725 21.1873 17.6047C21.0672 17.4844 21 17.3316 21 17.1419V6.86808C21 6.67834 21.0624 6.52099 21.1921 6.40067C21.3217 6.27572 21.4802 6.21557 21.6675 6.21557H24.1212C24.3181 6.21557 24.4766 6.27572 24.6014 6.40067C24.7262 6.52562 24.7887 6.67834 24.7887 6.86808V10.7971C26.0612 10.7971 26.9303 10.3205 27.3961 9.37176L28.4477 7.2198C28.5918 6.91899 28.8078 6.67372 29.0959 6.49323C29.3793 6.30812 29.6866 6.2202 30.0179 6.2202H32.0875C32.4525 6.2202 32.6349 6.35902 32.6349 6.63206C32.6349 6.78478 32.5773 6.98379 32.4621 7.22444L31.0503 10.0937C30.8102 10.575 30.4789 10.9822 30.0659 11.3293C29.6482 11.6764 29.2016 11.8939 28.7166 11.9957C29.6145 12.2549 30.3925 12.8889 31.0503 13.8978L32.9134 16.7995C33.0383 17.0031 33.1055 17.1789 33.1103 17.327L33.1055 17.3178Z" fill="white"/>
<path d="M35.9434 16.4709C34.8054 15.4574 34.2339 13.9626 34.2339 11.9911C34.2339 10.0197 34.8054 8.52486 35.9434 7.51599C37.0815 6.50712 38.7189 6.00268 40.8557 6.00268C42.9926 6.00268 44.63 6.50712 45.768 7.51599C46.9061 8.52486 47.4775 10.0197 47.4775 11.9911C47.4775 13.9626 46.9061 15.4574 45.768 16.4709C44.63 17.4844 42.9926 17.9888 40.8557 17.9888C38.7189 17.9888 37.0815 17.4844 35.9434 16.4709ZM38.7141 9.25144C38.2627 9.82066 38.037 10.7323 38.037 11.9865C38.037 13.2406 38.2627 14.1523 38.7141 14.7308C39.1655 15.3093 39.8809 15.5962 40.8557 15.5962C41.8305 15.5962 42.546 15.3093 43.0022 14.7308C43.4583 14.1523 43.6888 13.2406 43.6888 11.9865C43.6888 10.7323 43.4583 9.82066 43.0022 9.25144C42.546 8.68221 41.8305 8.39527 40.8557 8.39527C39.8809 8.39527 39.1655 8.68221 38.7141 9.25144Z" fill="white"/>
<path d="M49.9409 17.1373V6.86345C49.9409 6.67371 50.0033 6.51639 50.1329 6.39606C50.2626 6.27111 50.421 6.21094 50.6083 6.21094H54.3778C54.8099 6.21094 55.1365 6.4701 55.3622 6.99304L58.0368 13.2869L60.7114 6.99304C60.9371 6.47473 61.2685 6.21094 61.6958 6.21094H65.4653C65.6622 6.21094 65.8254 6.27111 65.9503 6.39606C66.0799 6.52101 66.1424 6.67371 66.1424 6.86345V17.1373C66.1424 17.327 66.0799 17.4844 65.9503 17.6001C65.8206 17.7158 65.6622 17.7806 65.4653 17.7806H63.0884C62.8915 17.7806 62.7282 17.7204 62.6082 17.5954C62.4833 17.4705 62.4209 17.3178 62.4209 17.1373V10.538L59.6166 17.0401C59.3909 17.5307 59.0452 17.7806 58.5746 17.7806H57.499C57.038 17.7806 56.6971 17.5353 56.4714 17.0401L53.6671 10.538V17.1373C53.6671 17.327 53.6047 17.4844 53.475 17.6001C53.3454 17.7204 53.1869 17.7806 52.9852 17.7806H50.6083C50.4114 17.7806 50.2482 17.7204 50.1281 17.6001C50.0081 17.4797 49.9409 17.327 49.9409 17.1373Z" fill="white"/>
<path d="M70.0463 17.0216C69.0811 16.3737 68.5961 15.4574 68.5961 14.2773C68.5961 13.0972 69.0811 12.1855 70.0463 11.5515C71.0114 10.9174 72.2599 10.6028 73.7869 10.6028H77.4123C77.4123 9.779 77.2347 9.20516 76.8745 8.88121C76.5144 8.55726 75.8901 8.39527 74.997 8.39527C74.1039 8.39527 73.4748 8.60815 73.1147 9.03391C72.7545 9.45967 72.308 9.67256 71.7845 9.67256H70.1519C69.955 9.67256 69.7918 9.61241 69.6669 9.48746C69.5421 9.36251 69.4749 9.20979 69.4749 9.02931C69.4749 7.00694 71.4628 5.99805 75.4436 5.99805C77.1819 5.99805 78.5744 6.3729 79.626 7.12261C80.6776 7.87232 81.2058 9.03392 81.2058 10.6028V17.1373C81.2058 17.327 81.1434 17.4844 81.0185 17.6001C80.8937 17.7158 80.7352 17.7806 80.5384 17.7806H78.4255C78.2287 17.7806 78.0654 17.7204 77.9453 17.5954C77.8205 17.4705 77.7581 17.3178 77.7581 17.1373V16.8087C76.6056 17.6047 75.2755 17.998 73.7677 17.998C72.2599 17.998 71.0211 17.6695 70.0559 17.0216H70.0463ZM72.841 13.3563C72.5432 13.597 72.3992 13.9071 72.3992 14.2865C72.3992 14.666 72.5528 14.9807 72.8602 15.226C73.1675 15.4712 73.5997 15.5962 74.1615 15.5962C75.2851 15.5962 76.3703 15.2815 77.4171 14.6475V13H74.0558C73.5468 13 73.1387 13.1203 72.8458 13.361L72.841 13.3563Z" fill="white"/>
<path d="M84.3462 17.1373V6.86345C84.3462 6.67371 84.4087 6.51639 84.5383 6.39606C84.668 6.27111 84.8264 6.21094 85.0137 6.21094H87.4674C87.6643 6.21094 87.8228 6.27111 87.9476 6.39606C88.0725 6.52101 88.1349 6.67371 88.1349 6.86345V10.6444H92.932V6.86345C92.932 6.67371 92.9944 6.51639 93.124 6.39606C93.2537 6.27574 93.4122 6.21094 93.6138 6.21094H96.058C96.2549 6.21094 96.4181 6.27111 96.5382 6.39606C96.663 6.52101 96.7254 6.67371 96.7254 6.86345V17.1373C96.7254 17.327 96.663 17.4844 96.5382 17.6001C96.4133 17.7204 96.2549 17.7806 96.058 17.7806H93.6138C93.417 17.7806 93.2537 17.7204 93.124 17.5954C92.9944 17.4705 92.932 17.3178 92.932 17.1373V13.199H88.1349V17.1373C88.1349 17.327 88.0725 17.4844 87.9428 17.6001C87.8132 17.7204 87.6547 17.7806 87.4674 17.7806H85.0137C84.8168 17.7806 84.6536 17.7204 84.5335 17.6001C84.4135 17.4797 84.3462 17.327 84.3462 17.1373Z" fill="white"/>
<path d="M98.7374 15.8831C98.7374 15.6934 98.7999 15.5361 98.9295 15.4157C99.0592 15.2954 99.2176 15.2306 99.4145 15.2306H100.269L101.767 9.4134C102.324 7.27996 104.154 6.21557 107.266 6.21557H112.24C112.437 6.21557 112.6 6.27572 112.73 6.40067C112.86 6.52562 112.922 6.67834 112.922 6.86808V17.1419C112.922 17.327 112.86 17.4797 112.73 17.6001C112.6 17.7204 112.442 17.7852 112.24 17.7852H99.4145C99.2176 17.7852 99.0544 17.725 98.9295 17.6001C98.7999 17.4751 98.7374 17.3224 98.7374 17.1419V15.8831ZM103.851 15.226H109.133V8.76552H107.15C106.089 8.76552 105.422 9.28383 105.134 10.3158L103.851 15.226Z" fill="white"/>
<path d="M116.84 17.0216C115.875 16.3737 115.39 15.4574 115.39 14.2773C115.39 13.0972 115.875 12.1855 116.84 11.5515C117.806 10.9174 119.054 10.6028 120.581 10.6028H124.207C124.207 9.779 124.029 9.20516 123.669 8.88121C123.309 8.55726 122.684 8.39527 121.791 8.39527C120.898 8.39527 120.269 8.60815 119.909 9.03391C119.549 9.45967 119.102 9.67256 118.579 9.67256H116.946C116.749 9.67256 116.586 9.61241 116.461 9.48746C116.336 9.36251 116.269 9.20979 116.269 9.02931C116.269 7.00694 118.257 5.99805 122.238 5.99805C123.976 5.99805 125.369 6.3729 126.42 7.12261C127.472 7.87232 128 9.03392 128 10.6028V17.1373C128 17.327 127.938 17.4844 127.813 17.6001C127.688 17.7158 127.529 17.7806 127.333 17.7806H125.22C125.023 17.7806 124.86 17.7204 124.74 17.5954C124.615 17.4705 124.552 17.3178 124.552 17.1373V16.8087C123.4 17.6047 122.07 17.998 120.562 17.998C119.054 17.998 117.815 17.6695 116.85 17.0216H116.84ZM119.635 13.3563C119.337 13.597 119.193 13.9071 119.193 14.2865C119.193 14.666 119.347 14.9807 119.654 15.226C119.962 15.4712 120.394 15.5962 120.956 15.5962C122.079 15.5962 123.165 15.2815 124.211 14.6475V13H120.85C120.341 13 119.933 13.1203 119.64 13.361L119.635 13.3563Z" fill="white"/>
<path d="M149.953 13.6917L150.612 13.3229C151.652 12.7476 151.652 11.2501 150.612 10.6748L149.953 10.306C149.606 10.1127 149.369 9.7834 149.237 9.41013C149.013 8.78216 148.411 8.32983 147.704 8.32983H145.144C143.41 8.32983 142 9.73946 142 11.4741V12.5192C142 14.2538 143.41 15.6635 145.144 15.6635H147.704C148.411 15.6635 149.013 15.2112 149.237 14.5832C149.369 14.2099 149.606 13.8806 149.953 13.6873V13.6917Z" fill="white"/>
<path d="M160.846 8.33179H158.285C157.578 8.33179 156.977 8.78408 156.753 9.41205C156.621 9.78532 156.384 10.1147 156.037 10.3079L155.378 10.6768C154.337 11.2521 154.337 12.7495 155.378 13.3248L156.037 13.6937C156.384 13.8869 156.621 14.2163 156.753 14.5895C156.977 15.2175 157.578 15.6698 158.285 15.6698H160.846C162.58 15.6698 163.99 14.2602 163.99 12.5256V11.4804C163.99 9.74581 162.58 8.33618 160.846 8.33618V8.33179Z" fill="white"/>
<path opacity="0.6" d="M150.408 8.23702C150.781 8.36876 151.111 8.6059 151.304 8.95282L151.673 9.61153C152.248 10.6523 153.745 10.6523 154.321 9.61153L154.69 8.95282C154.883 8.6059 155.212 8.36876 155.585 8.23702C156.213 8.01306 156.666 7.41144 156.666 6.70443V4.14423C156.666 2.40963 155.256 1 153.521 1H152.476C150.742 1 149.332 2.40963 149.332 4.14423V6.70443C149.332 7.41144 149.784 8.01306 150.412 8.23702H150.408Z" fill="white"/>
<path d="M155.584 15.7593C155.211 15.6276 154.881 15.3905 154.688 15.0435L154.319 14.3848C153.744 13.3441 152.246 13.3441 151.671 14.3848L151.302 15.0435C151.109 15.3905 150.78 15.6276 150.406 15.7593C149.778 15.9833 149.326 16.5849 149.326 17.2919V19.8521C149.326 21.5867 150.736 22.9964 152.47 22.9964H153.516C155.25 22.9964 156.66 21.5867 156.66 19.8521V17.2919C156.66 16.5849 156.208 15.9833 155.58 15.7593H155.584Z" fill="white"/>
</svg>
