<?xml version="1.0" encoding="utf-8"?><svg width="16" height="16" fill="none" xmlns="http://www.w3.org/2000/svg" viewBox="0 0 16 16"><g clip-path="url(#agclip0_767_8152)"><path d="M8 16A8 8 0 108-.001 8 8 0 008 16zm.93-9.412l-1 4.705c-.07.34.029.533.304.533.194 0 .487-.07.686-.246l-.088.416c-.287.346-.92.598-1.465.598-.703 0-1.002-.422-.808-1.319l.738-3.468c.064-.293.006-.399-.287-.47l-.451-.081.082-.381 2.289-.287zM8 5.5a1 1 0 110-2 1 1 0 010 2z" fill="#30B4FF"/></g><defs><clipPath id="agclip0_767_8152"><path fill="#fff" d="M0 0h16v16H0z"/></clipPath></defs></svg>