<?xml version="1.0" encoding="utf-8"?><svg width="18" height="18" fill="none" xmlns="http://www.w3.org/2000/svg" viewBox="0 0 18 18"><path d="M9 7.35V15m0-7.65c0-1.26 0-1.89.245-2.371a2.25 2.25 0 01.984-.984c.48-.245 1.11-.245 2.37-.245h1.95c.42 0 .631 0 .791.082a.75.75 0 01.328.328c.082.16.082.37.082.79v6.6c0 .42 0 .63-.082.79a.75.75 0 01-.328.328c-.16.082-.37.082-.79.082h-2.123c-.705 0-1.057 0-1.377.097a2.25 2.25 0 00-.774.415c-.258.212-.454.505-.845 1.091L9 15m0-7.65c0-1.26 0-1.89-.245-2.371a2.25 2.25 0 00-.983-.984C7.29 3.75 6.66 3.75 5.4 3.75H3.45c-.42 0-.63 0-.79.082a.75.75 0 00-.328.328c-.082.16-.082.37-.082.79v6.6c0 .42 0 .63.082.79a.75.75 0 00.327.328c.16.082.371.082.791.082h2.123c.705 0 1.057 0 1.377.097.283.086.546.227.774.415.259.212.454.505.845 1.091L9 15" stroke="#30B4FF" stroke-width="1.5" stroke-linecap="round" stroke-linejoin="round"/></svg>