<?xml version="1.0" encoding="utf-8"?><svg width="16" height="16" fill="none" xmlns="http://www.w3.org/2000/svg" viewBox="0 0 16 16"><path d="M3.394 13.188l.296-.58-.296.58zm-.582-.583l-.58.295.58-.295zm10.376 0l-.579-.295.58.295zm-.583.583l-.295-.58.295.58zm0-10.376l.295-.58-.295.58zm.583.582l-.579.295.58-.295zm-9.794-.582l.296.579-.296-.58zm-.582.582l.58.295-.58-.295zm7.855 7.272v-.65a.65.65 0 00-.65.65h.65zm.001 0l.65.015a.65.65 0 00-.65-.665v.65zm0 .002l-.016.65a.65.65 0 00.666-.635l-.65-.015zm-.001 0h-.65a.65.65 0 00.634.65l.016-.65zM8 10.666v-.65a.65.65 0 00-.65.65H8zm.001 0l.65.015a.65.65 0 00-.65-.665v.65zm0 .002l-.015.65a.65.65 0 00.665-.635l-.65-.015zm-.001 0h-.65a.65.65 0 00.634.65l.016-.65zm-2.667-.002v-.65a.65.65 0 00-.65.65h.65zm.002 0l.65.015a.65.65 0 00-.65-.665v.65zm0 .002l-.016.65a.65.65 0 00.665-.635l-.65-.015zm-.002 0h-.65a.65.65 0 00.635.65l.015-.65zM10.668 8h.65a.65.65 0 00-.65-.65V8zm0 .001l-.016.65a.65.65 0 00.666-.65h-.65zm-.001 0h-.65a.65.65 0 00.634.65l.016-.65zm0-.001v-.65a.65.65 0 00-.65.65h.65zM8 8v-.65a.65.65 0 00-.65.65H8zm.001 0l.65.015a.65.65 0 00-.65-.665V8zm0 .001l-.015.65a.65.65 0 00.665-.635l-.65-.015zm-.001 0h-.65a.65.65 0 00.634.65L8 8zM5.333 8v-.65a.65.65 0 00-.65.65h.65zm.002 0l.65.015a.65.65 0 00-.65-.665V8zm0 .001l-.016.65a.65.65 0 00.665-.635l-.65-.015zm-.002 0h-.65a.65.65 0 00.635.65L5.333 8zM2.667 4.683a.65.65 0 100 1.3v-1.3zm10.666 1.3a.65.65 0 100-1.3v1.3zm-2.016-4.65a.65.65 0 10-1.3 0h1.3zm-1.3 1.333a.65.65 0 101.3 0h-1.3zM5.983 1.333a.65.65 0 10-1.3 0h1.3zm-1.3 1.333a.65.65 0 001.3 0h-1.3zm.117.65h6.4v-1.3H4.8v1.3zM12.683 4.8v6.4h1.3V4.8h-1.3zM11.2 12.683H4.8v1.3h6.4v-1.3zM3.317 11.2V4.8h-1.3v6.4h1.3zM4.8 12.683c-.384 0-.633 0-.823-.016-.182-.015-.252-.04-.287-.059l-.59 1.159c.249.127.509.174.771.196.255.02.566.02.93.02v-1.3zM2.017 11.2c0 .362 0 .673.02.928.021.263.069.523.196.772l1.158-.59c-.018-.036-.043-.105-.058-.287-.016-.19-.016-.44-.016-.823h-1.3zm1.673 1.409a.683.683 0 01-.299-.3l-1.158.591c.19.373.493.677.866.867l.59-1.159zm8.993-1.41c0 .385 0 .634-.016.824-.014.182-.04.251-.058.287l1.158.59c.127-.25.175-.51.196-.772.02-.255.02-.566.02-.928h-1.3zM11.2 13.984c.363 0 .674 0 .929-.02a2.02 2.02 0 00.771-.196l-.59-1.159c-.036.019-.105.044-.287.059-.19.015-.439.016-.823.016v1.3zm1.409-1.673a.684.684 0 01-.299.298l.59 1.159c.373-.19.677-.493.867-.867l-1.158-.59zM11.2 3.316c.384 0 .633 0 .823.016.182.015.251.04.287.059l.59-1.158a2.019 2.019 0 00-.771-.196c-.255-.021-.566-.02-.929-.02v1.3zM13.983 4.8c0-.363 0-.674-.02-.929a2.02 2.02 0 00-.196-.772l-1.158.59c.018.036.043.106.058.288.016.19.016.438.016.823h1.3zM12.31 3.39c.129.066.234.171.299.3l1.158-.59a1.984 1.984 0 00-.867-.867l-.59 1.158zM4.8 2.017c-.363 0-.674 0-.929.02a2.02 2.02 0 00-.772.197l.59 1.158c.036-.018.106-.044.288-.059.19-.015.439-.016.823-.016v-1.3zM3.317 4.8c0-.384 0-.633.016-.823.015-.182.04-.252.058-.288L2.233 3.1a2.02 2.02 0 00-.196.772c-.02.255-.02.566-.02.929h1.3zm-.218-2.567c-.373.19-.676.493-.866.866l1.158.59a.683.683 0 01.299-.298L3.1 2.233zm7.568 9.083h.001v-1.3h-.001v1.3zm-.649-.665v.002l1.3.03v-.002l-1.3-.03zm.665-.633l-.032 1.3h.001l.032-1.3zm.634.65v-.002h-1.3v.002h1.3zM8 11.316h.001v-1.3H8v1.3zm-.649-.665v.002l1.3.03v-.002l-1.3-.03zm.666-.633h-.001l-.032 1.3h.002l.03-1.3zm.633.65v-.002h-1.3v.002h1.3zm-3.317.648h.002v-1.3h-.002v1.3zm-.648-.665v.002l1.3.03v-.002l-1.3-.03zm.665-.633H5.35l-.031 1.3h.001l.031-1.3zm.633.65v-.002h-1.3v.002h1.3zM10.018 8V8h1.3V8h-1.3zm.665-.649l-.032 1.3h.001l.032-1.3zm.634.65V8h-1.3V8h1.3zm-.65.649v-1.3 1.3zM8 8.65h.001v-1.3H8v1.3zm-.649-.666v.002l1.3.03v-.001l-1.3-.03zm.666-.633h-.001l-.032 1.3h.002l.03-1.3zm.633.65V8h-1.3V8h1.3zm-3.317.649h.002v-1.3h-.002v1.3zm-.648-.666v.002l1.3.03v-.001l-1.3-.03zm.665-.633H5.35l-.031 1.3h.001l.031-1.3zm.633.65V8h-1.3V8h1.3zM2.667 5.983h10.666v-1.3H2.667v1.3zm7.35-4.65v1.333h1.3V1.333h-1.3zm-5.334 0v1.333h1.3V1.333h-1.3z" fill="#30B4FF"/></svg>