<?xml version="1.0" encoding="utf-8"?><svg width="16" height="16" fill="none" xmlns="http://www.w3.org/2000/svg" viewBox="0 0 16 16"><path d="M3.395 13.188l.295-.579-.295.58zm-.583-.583l-.58.296.58-.296zm10.376 0l-.579-.295.58.295zm-.583.583l-.295-.579.295.58zm0-10.376l.295-.579-.295.58zm.583.583l-.579.295.58-.295zm-9.793-.583l.295.58-.295-.58zm-.583.583l.58.295-.58-.295zm7.855 7.272v-.65a.65.65 0 00-.65.65h.65zm.001 0l.65.015a.65.65 0 00-.65-.665v.65zm0 .001l-.015.65a.65.65 0 00.665-.635l-.65-.015zm-.001 0h-.65a.65.65 0 00.634.65l.016-.65zM8 10.667v-.65a.65.65 0 00-.65.65H8zm.001 0l.65.015a.65.65 0 00-.65-.665v.65zm0 .001l-.015.65a.65.65 0 00.665-.635l-.65-.015zm0 0h-.65a.65.65 0 00.634.65l.015-.65zm-2.668-.001v-.65a.65.65 0 00-.65.65h.65zm.002 0l.65.015a.65.65 0 00-.65-.665v.65zm0 .001l-.016.65a.65.65 0 00.666-.635l-.65-.015zm-.002 0h-.65a.65.65 0 00.635.65l.015-.65zM10.668 8h.65a.65.65 0 00-.65-.65V8zm0 .002l-.015.65a.65.65 0 00.665-.65h-.65zm-.001 0h-.65a.65.65 0 00.634.65l.016-.65zm0-.002v-.65a.65.65 0 00-.65.65h.65zM8 8v-.65a.65.65 0 00-.65.65H8zm.001 0l.65.015a.65.65 0 00-.65-.665V8zm0 .002l-.015.65a.65.65 0 00.665-.635l-.65-.015zm0 0h-.65a.65.65 0 00.634.65L8 8.001zM5.332 8v-.65a.65.65 0 00-.65.65h.65zm.002 0l.65.015a.65.65 0 00-.65-.665V8zm0 .002l-.016.65a.65.65 0 00.666-.635l-.65-.015zm-.002 0h-.65a.65.65 0 00.635.65l.015-.65zM2.667 4.682a.65.65 0 100 1.3v-1.3zm10.666 1.3a.65.65 0 100-1.3v1.3zm-2.016-4.65a.65.65 0 10-1.3 0h1.3zm-1.3 1.334a.65.65 0 001.3 0h-1.3zM5.983 1.334a.65.65 0 10-1.3 0h1.3zm-1.3 1.333a.65.65 0 001.3 0h-1.3zm.117.65h6.4v-1.3H4.8v1.3zM12.683 4.8v6.4h1.3V4.8h-1.3zM11.2 12.684H4.8v1.3h6.4v-1.3zM3.317 11.2V4.8h-1.3v6.4h1.3zM4.8 12.684c-.384 0-.633-.001-.823-.016-.182-.015-.252-.04-.287-.059l-.59 1.158c.25.128.509.175.771.196.255.021.567.02.93.02v-1.3zM2.017 11.2c0 .363 0 .674.02.929.022.262.069.522.196.772l1.158-.59c-.018-.036-.043-.106-.058-.288-.016-.19-.016-.439-.016-.823h-1.3zM3.69 12.61a.683.683 0 01-.299-.299l-1.158.59c.19.374.493.677.867.867l.59-1.158zm8.993-1.409c0 .384 0 .633-.015.823-.015.182-.04.252-.059.287l1.158.59c.128-.249.175-.509.196-.771.021-.255.02-.566.02-.929h-1.3zM11.2 13.984c.363 0 .674 0 .929-.02a2.02 2.02 0 00.771-.197l-.59-1.158c-.036.018-.105.044-.287.059-.19.015-.439.016-.823.016v1.3zm1.41-1.674a.684.684 0 01-.3.299l.59 1.158c.373-.19.677-.493.867-.866l-1.158-.59zM11.2 3.317c.384 0 .633 0 .823.016.182.015.251.04.287.058l.59-1.158a2.02 2.02 0 00-.771-.196c-.255-.02-.566-.02-.929-.02v1.3zM13.983 4.8c0-.362.001-.674-.02-.928a2.019 2.019 0 00-.196-.772l-1.158.59c.018.036.044.105.059.287.015.19.015.439.015.823h1.3zM12.31 3.391c.129.066.234.17.3.299l1.157-.59a1.984 1.984 0 00-.867-.867l-.59 1.158zM4.8 2.017c-.362 0-.674 0-.929.02a2.02 2.02 0 00-.771.196l.59 1.158c.035-.018.105-.043.287-.058.19-.016.44-.016.823-.016v-1.3zM3.317 4.8c0-.384 0-.633.016-.823.015-.182.04-.251.058-.287L2.233 3.1a2.02 2.02 0 00-.196.771c-.02.255-.02.566-.02.93h1.3zM3.1 2.233c-.374.19-.677.494-.867.867l1.158.59a.683.683 0 01.299-.299L3.1 2.233zm7.567 9.084h.001v-1.3h-.001v1.3zm-.649-.665v.001l1.3.03v-.001l-1.3-.03zm.666-.634h-.002l-.03 1.3.032-1.3zm.633.65v-.001h-1.3v.001h1.3zM8 11.317h.001v-1.3 1.3zm-.648-.665v.001l1.3.03v-.001l-1.3-.03zm.665-.634h-.001l-.031 1.3.032-1.3zm.633.65v-.001h-1.3v.001h1.3zm-3.317.649h.002v-1.3h-.002v1.3zm-.648-.665v.001l1.3.03v-.001l-1.3-.03zm.665-.634H5.35l-.031 1.3h.001l.031-1.3zm.633.65v-.001h-1.3v.001h1.3zM10.018 8v.002h1.3V8h-1.3zm.666-.648h-.002l-.03 1.3.032-1.3zm.633.65V8h-1.3v.001h1.3zm-.65.648h.001v-1.3h-.001v1.3zM8 8.65h.001v-1.3 1.3zm-.648-.665v.001l1.3.03-1.3-.031zm.665-.633h-.001l-.031 1.3.032-1.3zm.633.65V8h-1.3v.001h1.3zm-3.317.648h.002v-1.3h-.002v1.3zm-.648-.665v.001l1.3.03-1.3-.031zm.665-.633H5.35l-.031 1.3h.001l.031-1.3zm.633.65V8h-1.3v.001h1.3zM2.667 5.982h10.666v-1.3H2.667v1.3zm7.35-4.65v1.334h1.3V1.334h-1.3zm-5.334 0v1.334h1.3V1.334h-1.3z" fill="#404040"/></svg>