<?xml version="1.0" encoding="utf-8"?><svg width="16" height="16" fill="none" xmlns="http://www.w3.org/2000/svg" viewBox="0 0 16 16"><path d="M6.667 4v-.933c0-.374 0-.56.072-.703a.667.667 0 01.292-.291C7.173 2 7.36 2 7.733 2h3.158c.163 0 .245 0 .322.018a.668.668 0 01.193.08c.067.041.124.1.24.214l2.042 2.042c.115.116.172.173.214.24a.67.67 0 01.08.193c.018.077.018.158.018.321v5.825c0 .374 0 .56-.073.703a.665.665 0 01-.29.291c-.143.073-.33.073-.704.073h-3.6m0-4.667H7.066c-.373 0-.56 0-.702-.072a.666.666 0 01-.291-.292C6 6.827 6 6.64 6 6.267V4m8 1.333h-2.267c-.373 0-.56 0-.702-.072a.667.667 0 01-.292-.292c-.072-.142-.072-.329-.072-.702V2M9.333 12.933V7.108c0-.163 0-.244-.018-.32a.667.667 0 00-.08-.194 1.422 1.422 0 00-.214-.24L6.979 4.312c-.115-.115-.173-.173-.24-.214a.668.668 0 00-.193-.08C6.469 4 6.388 4 6.225 4H3.066c-.373 0-.56 0-.702.073a.667.667 0 00-.291.291C2 4.507 2 4.694 2 5.067v7.866c0 .374 0 .56.073.703a.666.666 0 00.29.291c.144.073.33.073.703.073h5.2c.374 0 .561 0 .704-.073a.665.665 0 00.29-.291c.073-.143.073-.33.073-.703z" stroke="#404040" stroke-linecap="round" stroke-linejoin="round"/></svg>