<?xml version="1.0" encoding="utf-8"?><svg width="16" height="16" fill="none" xmlns="http://www.w3.org/2000/svg" viewBox="0 0 16 16"><path d="M2 8.5h12v-1H2v1zm6 5A5.5 5.5 0 012.5 8h-1A6.5 6.5 0 008 14.5v-1zM2.5 8A5.5 5.5 0 018 2.5v-1A6.5 6.5 0 001.5 8h1zM8 2.5A5.5 5.5 0 0113.5 8h1A6.5 6.5 0 008 1.5v1zM13.5 8A5.5 5.5 0 018 13.5v1A6.5 6.5 0 0014.5 8h-1zM8 13.5c-.205 0-.439-.092-.693-.334-.257-.244-.511-.622-.736-1.126-.448-1.009-.738-2.436-.738-4.04h-1c0 1.71.307 3.282.824 4.446.259.58.58 1.082.96 1.445.384.365.852.609 1.383.609v-1zM5.833 8c0-1.604.29-3.031.738-4.04.225-.504.479-.882.736-1.126.254-.242.487-.334.693-.334v-1c-.53 0-.999.244-1.383.61-.38.362-.701.863-.96 1.444C5.14 4.718 4.833 6.29 4.833 8h1zM8 2.5c.206 0 .439.092.693.334.257.244.511.622.736 1.126.448 1.009.738 2.436.738 4.04h1c0-1.71-.307-3.282-.825-4.446-.258-.58-.578-1.082-.96-1.445C9 1.744 8.532 1.5 8 1.5v1zM10.167 8c0 1.604-.29 3.031-.738 4.04-.225.504-.479.882-.736 1.126-.254.242-.487.334-.693.334v1c.53 0 .999-.244 1.383-.61.38-.362.701-.863.96-1.444.517-1.164.824-2.736.824-4.446h-1z" fill="#404040"/></svg>