<?xml version="1.0" encoding="utf-8"?><svg width="16" height="16" class="bbstroke" fill="none" xmlns="http://www.w3.org/2000/svg" viewBox="0 0 16 16"><path d="M2.098 6.894c-.19-.186-.087-.52.172-.553l3.665-.456a.307.307 0 00.242-.184l1.546-3.515a.3.3 0 01.554 0l1.547 3.515c.044.101.135.171.24.184l3.666.456c.259.032.363.367.172.553l-2.71 2.628a.33.33 0 00-.092.298l.719 3.797c.05.268-.221.475-.449.341l-3.22-1.89a.293.293 0 00-.299 0l-3.221 1.89c-.227.134-.5-.073-.449-.341l.72-3.797a.33.33 0 00-.092-.298l-2.71-2.628z" stroke="currentColor" stroke-width="1.3" stroke-linecap="round" stroke-linejoin="round"/></svg>