<?xml version="1.0" encoding="utf-8"?><svg width="24" height="24" class="ostroke" fill="none" xmlns="http://www.w3.org/2000/svg" viewBox="0 0 24 24"><path d="M9.503 4.257A2 2 0 007.646 3H4.895A1.895 1.895 0 003 4.895C3 13.79 10.21 21 19.105 21A1.894 1.894 0 0021 19.105v-2.751a2 2 0 00-1.257-1.857l-2.636-1.054a2 2 0 00-2.023.32l-.68.568a2 2 0 01-2.695-.122L9.79 12.29a2 2 0 01-.122-2.694l.568-.681a2 2 0 00.32-2.023L9.503 4.257z" stroke="currentColor" stroke-width="1.5" stroke-linecap="round" stroke-linejoin="round"/></svg>