<?xml version="1.0" encoding="utf-8"?><svg width="24" height="24" class="nfill" fill="none" xmlns="http://www.w3.org/2000/svg" viewBox="0 0 24 24"><path d="M10 5.75a.75.75 0 000-1.5v1.5zM19.75 14a.75.75 0 00-1.5 0h1.5zm-1.842 4.782l-.34-.668.34.668zm.874-.874l-.668-.34.668.34zm-13.564 0l-.668.34.668-.34zm.874.874l.34-.668-.34.668zm0-13.564l.34.668-.34-.668zm-.874.874l.668.34-.668-.34zM19.25 9a.75.75 0 001.5 0h-1.5zM20 4h.75a.75.75 0 00-.75-.75V4zm-5-.75a.75.75 0 000 1.5v-1.5zm-2.53 7.22a.75.75 0 101.06 1.06l-1.06-1.06zM10 4.25H8.2v1.5H10v-1.5zM4.25 8.2v7.6h1.5V8.2h-1.5zM8.2 19.75h7.6v-1.5H8.2v1.5zm11.55-3.95V14h-1.5v1.8h1.5zm-3.95 3.95c.548 0 1.004 0 1.375-.03.38-.03.736-.098 1.073-.27l-.68-1.336c-.091.046-.229.088-.516.111-.295.024-.68.025-1.252.025v1.5zm2.45-3.95c0 .572 0 .957-.025 1.253-.023.287-.065.424-.111.514l1.337.681c.171-.337.238-.694.27-1.073.03-.372.029-.827.029-1.375h-1.5zm-.002 3.65a2.75 2.75 0 001.203-1.201l-1.337-.681a1.25 1.25 0 01-.547.546l.681 1.336zM4.25 15.8c0 .548 0 1.003.03 1.375.03.38.098.736.27 1.073l1.336-.68c-.046-.091-.088-.228-.111-.516-.024-.295-.025-.68-.025-1.252h-1.5zm3.95 2.45c-.572 0-.957 0-1.253-.025-.287-.023-.424-.065-.515-.111l-.68 1.336c.337.172.693.24 1.073.27.372.03.827.03 1.375.03v-1.5zm-3.65-.002c.263.518.684.938 1.201 1.202l.681-1.336a1.249 1.249 0 01-.546-.547l-1.336.681zM8.2 4.25c-.547 0-1.003 0-1.375.03-.38.03-.736.098-1.074.27l.681 1.336c.09-.046.228-.088.515-.111.296-.024.68-.025 1.253-.025v-1.5zM5.75 8.2c0-.572 0-.957.025-1.253.023-.287.065-.424.111-.514L4.55 5.752c-.172.337-.24.693-.27 1.073-.03.371-.03.827-.03 1.375h1.5zm.001-3.65A2.75 2.75 0 004.55 5.752l1.336.68a1.25 1.25 0 01.546-.546l-.68-1.336zM20.75 9V4h-1.5v5h1.5zM20 3.25h-5v1.5h5v-1.5zm-6.47 8.28l7-7-1.06-1.06-7 7 1.06 1.06z" fill="currentColor"/></svg>