<?xml version="1.0" encoding="utf-8"?><svg xmlns="http://www.w3.org/2000/svg" viewBox="0 0 512 512" width="512" height="512"><path class="azcls-1" d="M487.89 199.33C436.24 151.11 351.62 89.6 256 89.6S75.76 151.11 24.11 199.33c-32.15 30-32.15 83.32 0 113.33C75.76 360.89 160.38 422.4 256 422.4s180.24-61.51 231.89-109.73c32.11-30.02 32.11-83.32 0-113.34zM256 371.2A115.2 115.2 0 11371.2 256 115.2 115.2 0 01256 371.2zM320 256a64 64 0 11-64-64 64 64 0 0164 64zM243.2 38.4V12.8a12.8 12.8 0 1125.6 0v25.6a12.8 12.8 0 11-25.6 0zM93.35 60.25a12.8 12.8 0 0118.1-18.1l25.6 25.6a12.8 12.8 0 11-18.1 18.1zm294.4 25.6a12.8 12.8 0 010-18.1l25.6-25.6a12.8 12.8 0 0118.1 18.1l-25.6 25.6a12.8 12.8 0 01-18.1 0zM268.8 473.6v25.6a12.8 12.8 0 11-25.6 0v-25.6a12.8 12.8 0 1125.6 0zm-131.75-47.45a12.8 12.8 0 010 18.1l-25.6 25.6a12.8 12.8 0 01-18.1-18.1l25.6-25.6a12.8 12.8 0 0118.1 0zm294.4 25.6a12.8 12.8 0 11-18.1 18.1l-25.6-25.6a12.8 12.8 0 1118.1-18.1z"/></svg>