<?xml version="1.0" encoding="utf-8"?><svg width="40" height="40" fill="none" xmlns="http://www.w3.org/2000/svg" viewBox="0 0 40 40"><path fill-rule="evenodd" clip-rule="evenodd" d="M8 19.256a11.258 11.258 0 1120.052 7.027l4.597 4.597a1.251 1.251 0 01-1.769 1.769l-4.596-4.597A11.256 11.256 0 018 19.256zm11.257-5.003a1.25 1.25 0 011.25 1.25v2.502h2.502a1.25 1.25 0 110 2.502h-2.501v2.502a1.25 1.25 0 11-2.502 0v-2.502h-2.501a1.25 1.25 0 110-2.502h2.501v-2.501a1.25 1.25 0 011.25-1.251z" fill="#fff" fill-opacity=".6"/></svg>