<?xml version="1.0" encoding="utf-8"?><svg width="16" class="jstroke" height="16" fill="none" xmlns="http://www.w3.org/2000/svg" viewBox="0 0 16 16"><path d="M7.49 1.583c-.245.101-.465.32-.904.76-.44.44-.659.66-.76.904a1.333 1.333 0 000 1.02c.101.246.32.465.76.905h0c.44.439.659.659.904.76.327.135.694.135 1.02 0 .245-.102.465-.321.904-.76.44-.44.66-.66.76-.904a1.334 1.334 0 000-1.02c-.1-.246-.32-.466-.76-.905h0c-.439-.44-.659-.659-.904-.76a1.333 1.333 0 00-1.02 0zM3.247 5.825c-.245.102-.465.322-.904.76h0c-.44.44-.659.66-.76.905a1.333 1.333 0 000 1.02c.101.245.32.465.76.904h0c.44.44.66.66.904.76.327.136.694.136 1.02 0 .246-.1.465-.32.905-.76.439-.44.658-.659.76-.904a1.333 1.333 0 000-1.02c-.102-.245-.321-.465-.76-.904h0c-.44-.44-.66-.66-.904-.76a1.333 1.333 0 00-1.02 0zM11.733 5.825c-.245.102-.465.322-.904.76-.44.44-.66.66-.76.905a1.333 1.333 0 000 1.02c.1.245.32.465.76.904h0c.44.44.659.66.904.76.326.136.694.136 1.02 0 .245-.1.465-.32.904-.76.44-.44.66-.659.76-.904a1.334 1.334 0 000-1.02c-.1-.245-.32-.465-.76-.904h0c-.44-.44-.659-.66-.904-.76a1.334 1.334 0 00-1.02 0zM7.49 10.068c-.245.101-.465.321-.904.76-.44.44-.659.66-.76.904a1.333 1.333 0 000 1.02c.101.246.32.466.76.905h0c.44.44.659.659.904.76.327.136.694.136 1.02 0 .245-.101.465-.32.904-.76.44-.44.66-.659.76-.904a1.334 1.334 0 000-1.02c-.1-.246-.32-.465-.76-.904h0c-.439-.44-.659-.66-.904-.761a1.334 1.334 0 00-1.02 0z" stroke="currentColor" stroke-width="1.3" stroke-linecap="round" stroke-linejoin="round"/></svg>