<?xml version="1.0" encoding="utf-8"?><svg width="16" height="16" class="kstroke" fill="none" xmlns="http://www.w3.org/2000/svg" viewBox="0 0 16 16"><path d="M6 11.333h4m-4-2h4M12.666 6H9.733c-.373 0-.56 0-.702-.073a.666.666 0 01-.292-.291c-.072-.143-.072-.33-.072-.703V2m4 9.867V6.436c0-.309 0-.464-.034-.61a1.335 1.335 0 00-.144-.37c-.075-.13-.18-.243-.39-.47L9.967 2.685c-.234-.252-.35-.378-.49-.468a1.335 1.335 0 00-.4-.175C8.917 2 8.745 2 8.4 2H5.467c-.747 0-1.12 0-1.406.145-.25.128-.455.332-.582.583-.146.285-.146.659-.146 1.405v7.734c0 .746 0 1.12.146 1.405.127.25.331.455.582.583.285.145.66.145 1.406.145h5.067c.746 0 1.12 0 1.404-.145.251-.128.456-.332.583-.583.146-.285.146-.659.146-1.405z" stroke="currentColor" stroke-width="1.3" stroke-linecap="round" stroke-linejoin="round"/></svg>