<?xml version="1.0" encoding="utf-8"?><svg width="16" height="16" class="avfill" fill="none" xmlns="http://www.w3.org/2000/svg" viewBox="0 0 16 16"><path d="M5.804 7.853a.665.665 0 10-.94.94l.94-.94zm2.358 3.299l-.47.47a.665.665 0 00.94 0l-.47-.47zm6.127-5.187a.665.665 0 00-.94-.94l.94.94zM2.47 7.853a.665.665 0 00-.94.94l.94-.94zm1.888 3.77a.665.665 0 00.94-.941l-.94.94zm6.6-5.66a.665.665 0 10-.945-.936l.945.936zM7.86 7.2a.665.665 0 00.945.936l-.945-.936zM4.863 8.794l2.829 2.828.94-.94-2.828-2.829-.94.94zm3.769 2.828l5.657-5.657-.94-.94-5.657 5.657.94.94zM1.53 8.794l2.828 2.828.94-.94L2.47 7.853l-.94.94zm8.483-3.767L7.86 7.199l.945.936 2.152-2.172-.945-.936z" fill="currentColor"/></svg>