<?xml version="1.0" encoding="utf-8"?><svg width="18" height="18" fill="none" xmlns="http://www.w3.org/2000/svg" viewBox="0 0 18 18"><g clip-path="url(#bhclip0_673_3333)" fill="#30B4FF"><path d="M5.723 2.677c.134-.073.277.04.277.193v10.15c0 .177-.122.327-.277.412L3.96 14.437c-1.23.705-2.242.12-2.242-1.305V5.835c0-.473.337-1.058.757-1.298l3.248-1.86zM10.972 4.543a.5.5 0 01.278.448v9.588a.5.5 0 01-.717.45l-2.938-1.415a.5.5 0 01-.282-.45V3.536a.5.5 0 01.721-.448l2.938 1.455zM16.5 4.868v7.297c0 .473-.337 1.058-.758 1.298l-2.43 1.393a.5.5 0 01-.75-.434V4.82a.5.5 0 01.253-.434l1.443-.823c1.23-.705 2.242-.12 2.242 1.305z"/></g><defs><clipPath id="bhclip0_673_3333"><path fill="#fff" d="M0 0h18v18H0z"/></clipPath></defs></svg>