<?xml version="1.0" encoding="utf-8"?><svg width="16" height="16" fill="none" xmlns="http://www.w3.org/2000/svg" viewBox="0 0 16 16"><path d="M3 6.681c0 3.281 3.032 5.994 4.374 7.034h0c.193.15.289.225.432.263.112.03.276.03.388 0 .143-.039.24-.113.432-.263C9.968 12.675 13 9.962 13 6.681c0-1.241-.527-2.432-1.464-3.31C10.598 2.493 9.326 2 8 2s-2.598.493-3.536 1.371C3.527 4.25 3 5.44 3 6.681z" stroke="#404040" stroke-linecap="round" stroke-linejoin="round"/><circle cx="8" cy="6" r="1.5" stroke="#404040"/></svg>