<?xml version="1.0" encoding="utf-8"?><svg width="19" height="18" fill="none" xmlns="http://www.w3.org/2000/svg" viewBox="0 0 19 18"><g clip-path="url(#boclip0_830_6881)" fill="#fff"><path d="M6.223 2.677c.134-.073.277.04.277.193v10.15c0 .177-.122.327-.277.412L4.46 14.437c-1.23.705-2.242.12-2.242-1.305V5.835c0-.473.337-1.058.757-1.298l3.248-1.86zM11.472 4.543a.5.5 0 01.278.448v9.588a.5.5 0 01-.717.45l-2.938-1.415a.5.5 0 01-.283-.45V3.536a.5.5 0 01.722-.448l2.938 1.455zM17 4.868v7.297c0 .473-.337 1.058-.758 1.298l-2.43 1.393a.5.5 0 01-.75-.434V4.82a.5.5 0 01.253-.434l1.443-.823C15.988 2.858 17 3.443 17 4.868z"/></g><defs><clipPath id="boclip0_830_6881"><path fill="#fff" transform="translate(.5)" d="M0 0h18v18H0z"/></clipPath></defs></svg>