<?xml version="1.0" encoding="utf-8"?><svg width="16" height="16" fill="none" xmlns="http://www.w3.org/2000/svg" viewBox="0 0 16 16"><g clip-path="url(#bqclip0_545_1664)"><path fill-rule="evenodd" clip-rule="evenodd" d="M8.837 1.712l4.196 2.422a1.667 1.667 0 01.833 1.444v4.845a1.667 1.667 0 01-.833 1.443L8.837 14.29a1.667 1.667 0 01-1.667 0l-4.196-2.423a1.666 1.666 0 01-.833-1.443V5.578a1.667 1.667 0 01.833-1.444L7.17 1.712a1.667 1.667 0 011.667 0zM3.474 6.155v4.268a.334.334 0 00.167.289l3.696 2.133V8.374l-3.863-2.22zm9.059 0L8.67 8.374v4.472l3.696-2.134a.332.332 0 00.161-.23l.006-.058v-4.27zM7.837 2.867L4.14 5l3.696 2.134a.333.333 0 00.333 0L11.866 5 8.17 2.866a.333.333 0 00-.333 0z" fill="#404040"/></g><defs><clipPath id="bqclip0_545_1664"><path fill="#fff" d="M0 0h16v16H0z"/></clipPath></defs></svg>