<?xml version="1.0" encoding="utf-8"?><svg width="16" height="16" fill="none" xmlns="http://www.w3.org/2000/svg" viewBox="0 0 16 16"><g clip-path="url(#brclip0_545_1670)"><path d="M8 2c1.543 0 2.97.272 4.039.74.532.233 1.006.527 1.354.889.324.333.564.752.602 1.237L14 5v6.667c0 .542-.254 1.006-.607 1.371-.348.361-.822.656-1.354.89-1.068.466-2.496.739-4.039.739-1.543 0-2.97-.272-4.039-.74-.532-.233-1.006-.528-1.354-.889-.324-.333-.564-.752-.602-1.237L2 11.667V5c0-.543.254-1.007.607-1.371.348-.362.822-.656 1.354-.89C5.03 2.273 6.457 2 8 2zm4.667 8.271a5.422 5.422 0 01-.628.323c-1.068.467-2.496.74-4.039.74-1.543 0-2.97-.273-4.039-.74a5.419 5.419 0 01-.628-.323v1.396c0 .101.044.25.232.444.191.198.499.406.931.595.863.377 2.1.627 3.504.627 1.403 0 2.641-.25 3.504-.627.432-.19.74-.397.93-.595.189-.193.233-.343.233-.444V10.27zm0-3.333a5.423 5.423 0 01-.628.323C10.97 7.727 9.543 8 8 8c-1.543 0-2.97-.272-4.039-.74a5.415 5.415 0 01-.628-.322v1.395c0 .102.044.251.232.445.191.197.499.405.931.595C5.359 9.75 6.596 10 8 10c1.403 0 2.641-.25 3.504-.627.432-.19.74-.398.93-.595.189-.193.233-.343.233-.445V6.938zM8 3.333c-1.403 0-2.641.25-3.504.628-.432.189-.74.397-.93.594-.189.194-.233.344-.233.445 0 .101.044.25.232.445.191.197.499.405.931.594.863.378 2.1.628 3.504.628 1.403 0 2.641-.25 3.504-.628.432-.189.74-.397.93-.594.189-.194.233-.344.233-.445 0-.101-.044-.25-.232-.445-.191-.197-.499-.405-.931-.594-.863-.378-2.1-.628-3.504-.628z" fill="#404040"/></g><defs><clipPath id="brclip0_545_1670"><path fill="#fff" d="M0 0h16v16H0z"/></clipPath></defs></svg>