<?xml version="1.0" encoding="utf-8"?><svg width="18" height="18" fill="none" xmlns="http://www.w3.org/2000/svg" viewBox="0 0 18 18"><g clip-path="url(#bsclip0_901_2703)" fill="#30B4FF"><path d="M6.66 3.45c-.6-2.595-4.507-2.602-5.107 0-.353 1.523.615 2.813 1.455 3.615a1.61 1.61 0 002.197 0c.84-.802 1.8-2.092 1.455-3.615zm-2.527 1.2a.752.752 0 01-.75-.75c0-.412.33-.75.742-.75h.008c.42 0 .75.338.75.75 0 .413-.33.75-.75.75zM16.433 12.45c-.6-2.595-4.523-2.602-5.13 0-.353 1.523.614 2.813 1.462 3.615a1.62 1.62 0 002.205 0c.848-.803 1.815-2.093 1.463-3.615zm-2.535 1.2a.752.752 0 01-.75-.75c0-.412.33-.75.742-.75h.008c.412 0 .75.338.75.75s-.338.75-.75.75zM9 14.813H6.99c-.87 0-1.628-.526-1.928-1.336a2.05 2.05 0 01.57-2.28l5.993-5.242a.93.93 0 00.262-1.035.922.922 0 00-.877-.607H9a.567.567 0 01-.563-.563c0-.308.255-.563.563-.563h2.01c.87 0 1.627.526 1.928 1.336a2.05 2.05 0 01-.57 2.28l-5.993 5.242a.93.93 0 00-.263 1.035.922.922 0 00.878.607H9c.307 0 .562.256.562.563a.567.567 0 01-.562.563z"/></g><defs><clipPath id="bsclip0_901_2703"><path fill="#fff" d="M0 0h18v18H0z"/></clipPath></defs></svg>