<?xml version="1.0" encoding="utf-8"?><svg width="24" height="24" fill="none" xmlns="http://www.w3.org/2000/svg" viewBox="0 0 24 24"><path d="M14.53 13.47a.75.75 0 10-1.06 1.06l1.06-1.06zm2.94 5.06a.75.75 0 101.06-1.06l-1.06 1.06zm-6.803-3.947a3.917 3.917 0 01-3.917-3.916h-1.5a5.417 5.417 0 005.417 5.416v-1.5zM6.75 10.667a3.917 3.917 0 013.917-3.917v-1.5a5.417 5.417 0 00-5.417 5.417h1.5zm3.917-3.917a3.917 3.917 0 013.916 3.917h1.5a5.417 5.417 0 00-5.416-5.417v1.5zm3.916 3.917a3.917 3.917 0 01-3.916 3.916v1.5a5.417 5.417 0 005.416-5.416h-1.5zM13.47 14.53l4 4 1.06-1.06-4-4-1.06 1.06z" fill="#868686"/></svg>