<?xml version="1.0" encoding="utf-8"?><svg width="16" height="16" fill="none" xmlns="http://www.w3.org/2000/svg" viewBox="0 0 16 16"><path d="M4.91 4.744a.488.488 0 01.489-.488h5.209a.488.488 0 010 .977h-5.21a.488.488 0 01-.488-.489zM5.4 6.535a.488.488 0 000 .977h3.255a.488.488 0 000-.977H5.4z" fill="#404040"/><path fill-rule="evenodd" clip-rule="evenodd" d="M6.664 1c-.89 0-1.608 0-2.173.076-.586.078-1.08.248-1.471.639-.392.392-.56.886-.64 1.472-.075.564-.075 1.282-.075 2.173v5.28c0 .89 0 1.61.076 2.174.078.586.247 1.08.639 1.471.392.392.885.56 1.471.64C5.056 15 5.774 15 6.664 15h2.677c.89 0 1.608 0 2.173-.075.586-.08 1.08-.248 1.471-.64.392-.392.56-.885.64-1.471.075-.565.075-1.283.075-2.173V5.36c0-.89 0-1.609-.075-2.173-.08-.586-.248-1.08-.64-1.472-.392-.392-.885-.56-1.471-.639C10.949 1 10.23 1 9.34 1H6.664zM3.711 2.406c.18-.18.433-.298.912-.362.49-.066 1.143-.067 2.078-.067h2.605c.934 0 1.586.001 2.078.067.478.064.73.182.911.362.18.18.298.433.362.912.066.49.067 1.143.067 2.077v4.722H5.256c-.533 0-.896 0-1.208.083a2.442 2.442 0 00-.767.357V5.395c0-.934.002-1.586.068-2.078.064-.478.183-.73.362-.911zM3.3 12.069c.01.23.025.433.05.614.064.478.182.731.361.911.18.18.433.298.912.363.49.065 1.143.067 2.078.067h2.605c.934 0 1.586-.002 2.078-.067.478-.065.73-.183.911-.363.18-.18.298-.433.362-.911.054-.4.065-.909.066-1.59H5.331c-.636 0-.86.004-1.03.05a1.466 1.466 0 00-1.001.926z" fill="#404040"/></svg>