<?xml version="1.0" encoding="utf-8"?><svg width="42" height="42" fill="none" xmlns="http://www.w3.org/2000/svg" viewBox="0 0 42 42"><rect width="42" height="42" rx="8" fill="#ECF7FF"/><path d="M21 12c-4.963 0-9 4.037-9 9v3.729c0 .921.807 1.671 1.8 1.671h.9a.9.9 0 00.9-.9v-4.629a.9.9 0 00-.9-.9h-.817c.5-3.483 3.497-6.171 7.117-6.171s6.617 2.688 7.117 6.171H27.3a.9.9 0 00-.9.9V26.4c0 .993-.807 1.8-1.8 1.8h-1.8v-.9h-3.6V30h5.4c1.985 0 3.6-1.615 3.6-3.6.993 0 1.8-.75 1.8-1.671V21c0-4.963-4.037-9-9-9z" fill="#30B4FF"/></svg>