<?xml version="1.0" encoding="utf-8"?><svg width="24" height="24" fill="none" xmlns="http://www.w3.org/2000/svg" viewBox="0 0 24 24"><rect width="24" height="24" rx="4" fill="#2F89CE"/><path d="M5.61 12.225l2.76 1.028 1.075 3.46c.047.234.327.281.514.14l1.543-1.262c.14-.14.374-.14.561 0l2.76 2.011c.186.14.467.047.514-.187l2.057-9.82c.047-.233-.187-.467-.42-.374L5.61 11.617c-.281.093-.281.514 0 .608zm3.695.514l5.424-3.32c.093-.047.187.094.093.14l-4.442 4.162c-.14.14-.28.327-.28.561l-.14 1.122c0 .14-.235.187-.281 0l-.561-2.057c-.14-.234-.047-.514.187-.608z" fill="#fff"/></svg>