<?xml version="1.0" encoding="utf-8"?><svg width="16" height="16" fill="none" xmlns="http://www.w3.org/2000/svg" viewBox="0 0 16 16"><path fill-rule="evenodd" clip-rule="evenodd" d="M8 8.667V6zM14 4l-1.333-1.333zM6.667 1.333h2.666z" fill="#868686"/><path d="M7.35 8.667a.65.65 0 001.3 0h-1.3zM8.65 6a.65.65 0 00-1.3 0h1.3zm4.89-1.54a.65.65 0 10.92-.92l-.92.92zm-.414-2.253a.65.65 0 00-.919.92l.92-.92zM6.666.683a.65.65 0 100 1.3v-1.3zm2.667 1.3a.65.65 0 100-1.3v1.3zM8 13.35a4.683 4.683 0 01-4.683-4.683h-1.3A5.983 5.983 0 008 14.65v-1.3zM3.317 8.667A4.683 4.683 0 018 3.983v-1.3a5.983 5.983 0 00-5.983 5.984h1.3zM8 3.983a4.683 4.683 0 014.683 4.684h1.3A5.983 5.983 0 008 2.683v1.3zm4.683 4.684A4.683 4.683 0 018 13.35v1.3a5.983 5.983 0 005.983-5.983h-1.3zm-4.033 0V6h-1.3v2.667h1.3zm5.81-5.127l-1.334-1.333-.919.92L13.54 4.46l.92-.92zM6.667 1.983h2.666v-1.3H6.667v1.3z" fill="#868686"/></svg>