<?xml version="1.0" encoding="utf-8"?><svg width="17" height="16" fill="none" xmlns="http://www.w3.org/2000/svg" viewBox="0 0 17 16"><path d="M.95 7.72l3.69 1.376 1.438 4.628c.062.312.437.375.688.187l2.063-1.688c.188-.188.5-.188.75 0l3.69 2.689c.25.188.626.062.688-.25L16.71 1.529c.063-.313-.25-.626-.563-.5L.95 6.906c-.375.125-.375.688 0 .813zm4.94.688l7.255-4.44c.125-.063.25.125.125.187L7.328 9.721c-.187.188-.375.438-.375.75l-.187 1.502c0 .187-.313.25-.376 0L5.64 9.22c-.188-.313-.063-.688.25-.813z" fill="#2F89CE"/></svg>