<?xml version="1.0" encoding="utf-8"?><svg width="24" height="24" fill="none" xmlns="http://www.w3.org/2000/svg" viewBox="0 0 24 24"><rect width="24" height="24" rx="4" fill="#7C509A"/><path d="M15.752 6.328a18.59 18.59 0 00-6.948 0c-1.012.218-2.287 1.44-2.507 2.402a13.722 13.722 0 000 5.677c.264.96 1.54 2.184 2.507 2.402.044 0 .088.044.088.087v2.752c0 .13.176.218.264.087l1.319-1.354s1.055-1.091 1.231-1.266c0 0 .044-.044.088-.044 1.32.044 2.683-.087 4.002-.306 1.012-.218 2.287-1.44 2.507-2.402.396-1.877.396-3.8 0-5.677-.264-.917-1.54-2.14-2.55-2.358zm.044 8.21c-.22.437-.483.786-.923 1.005l-.396.13c-.176-.043-.308-.087-.44-.13-1.407-.568-2.727-1.354-3.782-2.49a10.503 10.503 0 01-1.451-2.183c-.176-.393-.352-.743-.484-1.136-.132-.35.088-.699.308-.96.22-.263.484-.437.791-.569.22-.13.44-.043.616.132.352.436.704.873.968 1.353.175.306.132.655-.176.874-.088.043-.132.087-.22.175-.044.043-.132.087-.176.174a.422.422 0 00-.044.393c.352 1.005 1.011 1.79 2.023 2.228.176.087.308.13.528.13.308-.043.44-.392.66-.567.22-.175.483-.175.747-.044.22.131.44.306.704.48.22.175.44.306.66.481.131.087.175.306.087.524zm-1.847-3.275c-.088 0-.044 0 0 0-.176 0-.22-.088-.264-.219 0-.087 0-.218-.044-.306a.83.83 0 00-.307-.48l-.264-.13c-.132-.045-.22-.045-.352-.045-.132-.043-.176-.13-.176-.262 0-.087.132-.174.22-.174.703.043 1.231.436 1.32 1.266v.175c0 .087-.045.175-.133.175zm-.44-1.922c-.22-.087-.44-.175-.703-.218-.088 0-.22-.044-.308-.044-.132 0-.22-.087-.176-.218 0-.131.088-.219.22-.175.44.044.835.13 1.231.306.792.393 1.232 1.048 1.364 1.921V11.481c-.044.175-.352.218-.396 0 0-.044-.044-.131-.044-.175 0-.393-.088-.786-.264-1.135a2.359 2.359 0 00-.924-.83zm2.375 2.62c-.132 0-.22-.13-.22-.262 0-.262-.044-.524-.088-.786-.176-1.397-1.319-2.533-2.682-2.751-.22-.044-.44-.044-.616-.088-.132 0-.308 0-.352-.174-.044-.131.088-.262.22-.262h.088c.088 0 1.803.043 0 0 1.847.043 3.386 1.266 3.694 3.1.044.306.088.612.088.961.088.131 0 .262-.132.262z" fill="#fff"/></svg>