<?xml version="1.0" encoding="utf-8"?><svg width="16" height="16" fill="none" xmlns="http://www.w3.org/2000/svg" viewBox="0 0 16 16"><path d="M15.356 13h-1.75c-.663 0-.863-.565-2.05-1.816-1.038-1.052-1.477-1.183-1.74-1.183-.363 0-.462.105-.462.63v1.658c0 .449-.138.711-1.25.711a6.596 6.596 0 01-3.056-1.007 7.013 7.013 0 01-2.284-2.361A15.023 15.023 0 010 3.528C0 3.25.1 3 .6 3h1.75c.45 0 .613.21.79.698.849 2.631 2.3 4.92 2.888 4.92.226 0 .324-.105.324-.697v-2.71c-.075-1.237-.699-1.341-.699-1.788a.464.464 0 01.143-.308.42.42 0 01.306-.115h2.752c.376 0 .5.197.5.67v3.66c0 .394.162.525.275.525.226 0 .4-.13.813-.565a15.33 15.33 0 002.151-3.764.788.788 0 01.298-.397.726.726 0 01.465-.128h1.75c.526 0 .637.276.526.67a23.305 23.305 0 01-2.35 4.25c-.19.303-.265.46 0 .816.173.276.787.816 1.2 1.329a8.2 8.2 0 011.475 2.156c.15.514-.1.776-.6.776z" fill="#0077FE"/></svg>