<?xml version="1.0" encoding="utf-8"?><svg width="20" height="20" fill="none" xmlns="http://www.w3.org/2000/svg" viewBox="0 0 20 20"><path d="M12.056 3.75l-1.018-.868a1.601 1.601 0 00-2.076 0l-1.018.867c-.256.219-.575.35-.91.378L5.7 4.233a1.6 1.6 0 00-1.468 1.468l-.107 1.333a1.6 1.6 0 01-.376.91l-.868 1.018a1.6 1.6 0 000 2.076l.867 1.018a1.6 1.6 0 01.378.91l.106 1.333a1.6 1.6 0 001.468 1.468l1.333.106a1.6 1.6 0 01.91.378l1.018.867c.598.51 1.478.51 2.076 0l1.018-.867a1.6 1.6 0 01.91-.378l1.333-.106a1.6 1.6 0 001.468-1.468l.106-1.333a1.6 1.6 0 01.378-.91l.866-1.018a1.6 1.6 0 000-2.076l-.867-1.017a1.601 1.601 0 01-.377-.911L15.767 5.7A1.6 1.6 0 0014.3 4.233l-1.333-.106a1.6 1.6 0 01-.91-.378z" fill="#30B4FF"/><path d="M12.5 8.332l-3.333 3.333L7.5 10" stroke="#fff" stroke-width="1.5" stroke-linecap="round" stroke-linejoin="round"/></svg>