<?xml version="1.0" encoding="utf-8"?><svg width="16" height="16" fill="none" xmlns="http://www.w3.org/2000/svg" viewBox="0 0 16 16"><path d="M12.785 3.042A6.952 6.952 0 007.858 1C4.005 1 .883 4.111.883 7.951c0 1.216.341 2.43.927 3.452L.834 15l3.707-.972a7.132 7.132 0 003.317.826c3.854 0 6.976-3.11 6.976-6.951-.049-1.799-.732-3.549-2.049-4.861zm-1.56 7.389c-.147.388-.83.777-1.171.826a2.732 2.732 0 01-1.074-.049c-.244-.097-.585-.194-.975-.389-1.756-.729-2.878-2.479-2.976-2.625-.097-.097-.732-.923-.732-1.798s.44-1.264.586-1.458c.146-.195.341-.195.488-.195h.341c.098 0 .244-.049.39.292.147.34.488 1.215.537 1.264a.309.309 0 010 .291 1.017 1.017 0 01-.195.292c-.098.097-.195.243-.244.292-.098.097-.195.194-.098.34.098.194.44.729.976 1.215.683.584 1.22.778 1.415.875.195.097.292.049.39-.048.097-.098.439-.487.536-.681.098-.194.244-.146.39-.097.147.048 1.025.486 1.171.583.195.097.293.146.342.195.049.145.049.486-.098.875z" fill="#48C95F"/></svg>