<?xml version="1.0" encoding="utf-8"?><svg width="60" height="60" fill="none" xmlns="http://www.w3.org/2000/svg" viewBox="0 0 60 60"><g clip-path="url(#zclip0_287_205)" fill-opacity=".4"><rect width="60" height="60" rx="30" fill="#ECF7FF"/><path fill-rule="evenodd" clip-rule="evenodd" d="M17 29.607a12.608 12.608 0 1122.459 7.87l5.148 5.149a1.401 1.401 0 01-1.981 1.98l-5.148-5.148A12.608 12.608 0 0117 29.607zm12.608-5.604a1.4 1.4 0 011.4 1.401v2.802h2.802a1.4 1.4 0 110 2.802H31.01v2.802a1.401 1.401 0 01-2.802 0v-2.802h-2.802a1.4 1.4 0 110-2.802h2.802v-2.802a1.401 1.401 0 011.4-1.4z" fill="#30B4FF"/></g><defs><clipPath id="zclip0_287_205"><path fill="#fff" d="M0 0h60v60H0z"/></clipPath></defs></svg>