<svg width="18" height="18" viewBox="0 0 18 18" fill="none" xmlns="http://www.w3.org/2000/svg">
<path d="M9 7.35004V15M9 7.35004C9 6.08992 9 5.45985 9.24524 4.97855C9.46095 4.55518 9.80527 4.21095 10.2286 3.99524C10.7099 3.75 11.3397 3.75 12.5999 3.75H14.5499C14.9699 3.75 15.18 3.75 15.3404 3.83175C15.4815 3.90365 15.5964 4.01839 15.6683 4.15952C15.7501 4.31995 15.75 4.52994 15.75 4.94998V11.55C15.75 11.97 15.7501 12.1801 15.6683 12.3405C15.5964 12.4816 15.4815 12.5963 15.3404 12.6682C15.18 12.75 14.97 12.75 14.55 12.75H12.4266C11.7222 12.75 11.3701 12.75 11.0504 12.8471C10.7674 12.933 10.5041 13.074 10.2756 13.2618C10.0175 13.4739 9.82202 13.767 9.43128 14.3531L9 15M9 7.35004C9 6.08992 8.99987 5.45985 8.75464 4.97855C8.53892 4.55518 8.19499 4.21095 7.77163 3.99524C7.29032 3.75 6.66019 3.75 5.40007 3.75H3.45007C3.03003 3.75 2.81986 3.75 2.65942 3.83175C2.5183 3.90365 2.40365 4.01839 2.33175 4.15952C2.25 4.31995 2.25 4.52994 2.25 4.94998V11.55C2.25 11.97 2.25 12.1801 2.33175 12.3405C2.40365 12.4816 2.5183 12.5963 2.65942 12.6682C2.81986 12.75 3.03003 12.75 3.45007 12.75H5.57341C6.27782 12.75 6.62998 12.75 6.94968 12.8471C7.23271 12.933 7.49598 13.074 7.72449 13.2618C7.98261 13.4739 8.17787 13.767 8.5686 14.3531L9 15" stroke="#30B4FF" stroke-width="1.5" stroke-linecap="round" stroke-linejoin="round"/>
</svg>
