<svg width="16" height="16" viewBox="0 0 16 16" fill="none" xmlns="http://www.w3.org/2000/svg">
<path d="M3.39461 13.1882L3.68971 12.609L3.39461 13.1882ZM2.81207 12.6055L2.23292 12.9006H2.23292L2.81207 12.6055ZM13.1882 12.6055L12.6091 12.3104L13.1882 12.6055ZM12.6053 13.1882L12.3102 12.609L12.6053 13.1882ZM12.6053 2.81215L12.9004 2.233L12.6053 2.81215ZM13.1882 3.39486L12.6091 3.68995L13.1882 3.39486ZM3.39461 2.81215L3.68971 3.39131L3.39461 2.81215ZM2.81207 3.39486L3.39123 3.68995L2.81207 3.39486ZM10.6667 10.6668V10.0168C10.3078 10.0168 10.0167 10.3078 10.0167 10.6668H10.6667ZM10.6681 10.6668L11.3179 10.682C11.322 10.507 11.2553 10.3378 11.133 10.2126C11.0107 10.0874 10.8431 10.0168 10.6681 10.0168V10.6668ZM10.668 10.6682L10.6525 11.318C10.8249 11.3221 10.9919 11.2575 11.1167 11.1385C11.2415 11.0195 11.3138 10.8558 11.3179 10.6833L10.668 10.6682ZM10.6667 10.6681H10.0167C10.0167 11.0211 10.2984 11.3095 10.6512 11.3179L10.6667 10.6681ZM8.00008 10.6668V10.0168C7.6411 10.0168 7.35008 10.3078 7.35008 10.6668H8.00008ZM8.00141 10.6668L8.65124 10.682C8.65533 10.507 8.58868 10.3378 8.46637 10.2126C8.34407 10.0874 8.17644 10.0168 8.00141 10.0168V10.6668ZM8.00138 10.6682L7.98584 11.318C8.15824 11.3221 8.32522 11.2575 8.45001 11.1385C8.5748 11.0195 8.64718 10.8558 8.65121 10.6833L8.00138 10.6682ZM8.00008 10.6681H7.35008C7.35008 11.0211 7.63171 11.3095 7.98453 11.3179L8.00008 10.6681ZM5.33341 10.6668V10.0168C4.97443 10.0168 4.68341 10.3078 4.68341 10.6668H5.33341ZM5.33475 10.6668L5.98457 10.682C5.98866 10.507 5.92201 10.3378 5.7997 10.2126C5.6774 10.0874 5.50977 10.0168 5.33475 10.0168V10.6668ZM5.33472 10.6682L5.31917 11.318C5.49157 11.3221 5.65855 11.2575 5.78334 11.1385C5.90813 11.0195 5.98051 10.8558 5.98454 10.6833L5.33472 10.6682ZM5.33341 10.6681H4.68341C4.68341 11.0211 4.96504 11.3095 5.31787 11.3179L5.33341 10.6681ZM10.668 8.00016H11.318C11.318 7.64118 11.027 7.35016 10.668 7.35016V8.00016ZM10.668 8.0015L10.6525 8.65131C10.8275 8.6555 10.9969 8.58889 11.1221 8.46658C11.2474 8.34426 11.318 8.17658 11.318 8.0015H10.668ZM10.6667 8.00146H10.0167C10.0167 8.35439 10.2984 8.64284 10.6512 8.65128L10.6667 8.00146ZM10.6667 8.00016V7.35016C10.3078 7.35016 10.0167 7.64118 10.0167 8.00016H10.6667ZM8.00008 8.00016V7.35016C7.6411 7.35016 7.35008 7.64118 7.35008 8.00016H8.00008ZM8.00141 8.00016L8.65124 8.01535C8.65533 7.84037 8.58868 7.67114 8.46637 7.54594C8.34407 7.42075 8.17644 7.35016 8.00141 7.35016V8.00016ZM8.00138 8.0015L7.98584 8.65131C8.15824 8.65544 8.32522 8.59088 8.45001 8.47185C8.5748 8.35283 8.64718 8.18909 8.65121 8.01668L8.00138 8.0015ZM8.00008 8.00146H7.35008C7.35008 8.35439 7.63171 8.64284 7.98453 8.65128L8.00008 8.00146ZM5.33341 8.00016V7.35016C4.97443 7.35016 4.68341 7.64118 4.68341 8.00016H5.33341ZM5.33475 8.00016L5.98457 8.01535C5.98866 7.84037 5.92201 7.67114 5.7997 7.54594C5.6774 7.42075 5.50977 7.35016 5.33475 7.35016V8.00016ZM5.33472 8.0015L5.31917 8.65131C5.49157 8.65544 5.65855 8.59088 5.78334 8.47185C5.90813 8.35283 5.98051 8.18909 5.98454 8.01668L5.33472 8.0015ZM5.33341 8.00146H4.68341C4.68341 8.35439 4.96504 8.64284 5.31787 8.65128L5.33341 8.00146ZM2.66675 4.6835C2.30776 4.6835 2.01675 4.97451 2.01675 5.3335C2.01675 5.69248 2.30776 5.9835 2.66675 5.9835V4.6835ZM13.3334 5.9835C13.6924 5.9835 13.9834 5.69248 13.9834 5.3335C13.9834 4.97451 13.6924 4.6835 13.3334 4.6835V5.9835ZM11.3167 1.3335C11.3167 0.974511 11.0257 0.683496 10.6667 0.683496C10.3078 0.683496 10.0167 0.974511 10.0167 1.3335H11.3167ZM10.0167 2.66683C10.0167 3.02581 10.3078 3.31683 10.6667 3.31683C11.0257 3.31683 11.3167 3.02581 11.3167 2.66683H10.0167ZM5.98341 1.3335C5.98341 0.974511 5.6924 0.683496 5.33341 0.683496C4.97443 0.683496 4.68341 0.974511 4.68341 1.3335H5.98341ZM4.68341 2.66683C4.68341 3.02581 4.97443 3.31683 5.33341 3.31683C5.6924 3.31683 5.98341 3.02581 5.98341 2.66683H4.68341ZM4.80021 3.31683H11.2002V2.01683H4.80021V3.31683ZM12.6834 4.80013V11.2001H13.9834V4.80013H12.6834ZM11.2002 12.6835H4.80021V13.9835H11.2002V12.6835ZM3.31675 11.2001V4.80013H2.01675V11.2001H3.31675ZM4.80021 12.6835C4.41613 12.6835 4.16707 12.683 3.97727 12.6675C3.79501 12.6526 3.72538 12.6272 3.68971 12.609L3.09952 13.7673C3.34906 13.8945 3.60886 13.9417 3.87141 13.9632C4.12642 13.984 4.43755 13.9835 4.80021 13.9835V12.6835ZM2.01675 11.2001C2.01675 11.5628 2.01624 11.8739 2.03707 12.1288C2.05852 12.3914 2.10578 12.6511 2.23292 12.9006L3.39123 12.3104C3.37304 12.2747 3.34764 12.2051 3.33276 12.023C3.31725 11.8332 3.31675 11.5842 3.31675 11.2001H2.01675ZM3.68971 12.609C3.56123 12.5435 3.45679 12.4391 3.39123 12.3104L2.23292 12.9006C2.42302 13.2737 2.72623 13.5771 3.09952 13.7673L3.68971 12.609ZM12.6834 11.2001C12.6834 11.5843 12.6829 11.8333 12.6675 12.0231C12.6526 12.2053 12.6272 12.2748 12.6091 12.3104L13.7674 12.9006C13.8946 12.651 13.9418 12.3912 13.9632 12.1287C13.984 11.8738 13.9834 11.5627 13.9834 11.2001H12.6834ZM11.2002 13.9835C11.5629 13.9835 11.8739 13.984 12.1288 13.9632C12.3913 13.9417 12.6509 13.8944 12.9004 13.7673L12.3102 12.609C12.2744 12.6272 12.2049 12.6526 12.0229 12.6675C11.8332 12.683 11.5843 12.6835 11.2002 12.6835V13.9835ZM12.6091 12.3104C12.5437 12.4387 12.4391 12.5433 12.3102 12.609L12.9004 13.7673C13.2732 13.5773 13.5771 13.2741 13.7674 12.9006L12.6091 12.3104ZM11.2002 3.31683C11.5843 3.31683 11.8332 3.31734 12.0229 3.33284C12.2049 3.34771 12.2744 3.3731 12.3102 3.39131L12.9004 2.233C12.6509 2.10589 12.3913 2.05861 12.1288 2.03716C11.8739 2.01632 11.5628 2.01683 11.2002 2.01683V3.31683ZM13.9834 4.80013C13.9834 4.43755 13.984 4.12648 13.9632 3.87159C13.9418 3.6091 13.8946 3.34934 13.7674 3.09976L12.6091 3.68995C12.6272 3.72559 12.6526 3.7951 12.6675 3.97725C12.6829 4.16701 12.6834 4.41597 12.6834 4.80013H13.9834ZM12.3102 3.39131C12.439 3.45696 12.5437 3.56164 12.6091 3.68995L13.7674 3.09976C13.5771 2.72631 13.2733 2.42301 12.9004 2.233L12.3102 3.39131ZM4.80021 2.01683C4.43756 2.01683 4.12643 2.01632 3.87143 2.03715C3.60888 2.0586 3.34907 2.10585 3.09952 2.233L3.68971 3.39131C3.72537 3.37314 3.79499 3.34772 3.97726 3.33284C4.16706 3.31733 4.41612 3.31683 4.80021 3.31683V2.01683ZM3.31675 4.80013C3.31675 4.41604 3.31725 4.16707 3.33275 3.97736C3.34764 3.79524 3.37303 3.72566 3.39123 3.68995L2.23292 3.09976C2.10579 3.34927 2.05852 3.60896 2.03707 3.87149C2.01624 4.12642 2.01675 4.43749 2.01675 4.80013H3.31675ZM3.09952 2.233C2.72616 2.42323 2.42298 2.72674 2.23292 3.09976L3.39123 3.68995C3.45683 3.56121 3.5613 3.45674 3.68971 3.39131L3.09952 2.233ZM10.6667 11.3168H10.6681V10.0168H10.6667V11.3168ZM10.0183 10.6516L10.0182 10.653L11.3179 10.6833L11.3179 10.682L10.0183 10.6516ZM10.6836 10.0183L10.6823 10.0183L10.6512 11.3179L10.6525 11.318L10.6836 10.0183ZM11.3167 10.6681V10.6668H10.0167V10.6681H11.3167ZM8.00008 11.3168H8.00141V10.0168H8.00008V11.3168ZM7.35159 10.6516L7.35156 10.653L8.65121 10.6833L8.65124 10.682L7.35159 10.6516ZM8.01693 10.0183L8.01563 10.0183L7.98453 11.3179L7.98584 11.318L8.01693 10.0183ZM8.65008 10.6681V10.6668H7.35008V10.6681H8.65008ZM5.33341 11.3168H5.33475V10.0168H5.33341V11.3168ZM4.68493 10.6516L4.68489 10.653L5.98454 10.6833L5.98457 10.682L4.68493 10.6516ZM5.35026 10.0183L5.34896 10.0183L5.31787 11.3179L5.31917 11.318L5.35026 10.0183ZM5.98341 10.6681V10.6668H4.68341V10.6681H5.98341ZM10.018 8.00016V8.0015H11.318V8.00016H10.018ZM10.6836 7.35168L10.6823 7.35165L10.6512 8.65128L10.6525 8.65131L10.6836 7.35168ZM11.3167 8.00146V8.00016H10.0167V8.00146H11.3167ZM10.6667 8.65016H10.668V7.35016H10.6667V8.65016ZM8.00008 8.65016H8.00141V7.35016H8.00008V8.65016ZM7.35159 7.98498L7.35156 7.98631L8.65121 8.01668L8.65124 8.01535L7.35159 7.98498ZM8.01693 7.35168L8.01563 7.35165L7.98453 8.65128L7.98584 8.65131L8.01693 7.35168ZM8.65008 8.00146V8.00016H7.35008V8.00146H8.65008ZM5.33341 8.65016H5.33475V7.35016H5.33341V8.65016ZM4.68493 7.98498L4.68489 7.98631L5.98454 8.01668L5.98457 8.01535L4.68493 7.98498ZM5.35026 7.35168L5.34896 7.35165L5.31787 8.65128L5.31917 8.65131L5.35026 7.35168ZM5.98341 8.00146V8.00016H4.68341V8.00146H5.98341ZM2.66675 5.9835H13.3334V4.6835H2.66675V5.9835ZM10.0167 1.3335V2.66683H11.3167V1.3335H10.0167ZM4.68341 1.3335V2.66683H5.98341V1.3335H4.68341Z" fill="#404040"/>
</svg>
