<svg width="16" height="16" viewBox="0 0 16 16" fill="none" xmlns="http://www.w3.org/2000/svg">
<path d="M3.39449 13.1877L3.68958 12.6085L3.39449 13.1877ZM2.81195 12.605L2.2328 12.9001H2.2328L2.81195 12.605ZM13.1881 12.605L12.609 12.3099L13.1881 12.605ZM12.6051 13.1877L12.3101 12.6085L12.6051 13.1877ZM12.6051 2.81167L12.9002 2.23251L12.6051 2.81167ZM13.1881 3.39437L12.609 3.68946L13.1881 3.39437ZM3.39449 2.81167L3.68958 3.39082L3.39449 2.81167ZM2.81195 3.39437L3.3911 3.68946L2.81195 3.39437ZM10.6666 10.6663V10.0163C10.3076 10.0163 10.0166 10.3074 10.0166 10.6663H10.6666ZM10.668 10.6663L11.3178 10.6815C11.3219 10.5065 11.2552 10.3373 11.1329 10.2121C11.0106 10.0869 10.843 10.0163 10.668 10.0163V10.6663ZM10.6679 10.6677L10.6524 11.3175C10.8248 11.3216 10.9918 11.2571 11.1166 11.138C11.2413 11.019 11.3137 10.8553 11.3177 10.6829L10.6679 10.6677ZM10.6666 10.6676H10.0166C10.0166 11.0206 10.2983 11.309 10.6511 11.3175L10.6666 10.6676ZM7.99996 10.6663V10.0163C7.64097 10.0163 7.34996 10.3074 7.34996 10.6663H7.99996ZM8.00129 10.6663L8.65111 10.6815C8.6552 10.5065 8.58856 10.3373 8.46625 10.2121C8.34394 10.0869 8.17632 10.0163 8.00129 10.0163V10.6663ZM8.00126 10.6677L7.98571 11.3175C8.15812 11.3216 8.3251 11.2571 8.44989 11.138C8.57468 11.019 8.64706 10.8553 8.65108 10.6829L8.00126 10.6677ZM7.99996 10.6676H7.34996C7.34996 11.0206 7.63158 11.309 7.98441 11.3175L7.99996 10.6676ZM5.33329 10.6663V10.0163C4.97431 10.0163 4.68329 10.3074 4.68329 10.6663H5.33329ZM5.33463 10.6663L5.98445 10.6815C5.98854 10.5065 5.92189 10.3373 5.79958 10.2121C5.67728 10.0869 5.50965 10.0163 5.33463 10.0163V10.6663ZM5.33459 10.6677L5.31905 11.3175C5.49145 11.3216 5.65843 11.2571 5.78322 11.138C5.90801 11.019 5.98039 10.8553 5.98442 10.6829L5.33459 10.6677ZM5.33329 10.6676H4.68329C4.68329 11.0206 4.96492 11.309 5.31775 11.3175L5.33329 10.6676ZM10.6679 7.99967H11.3179C11.3179 7.64069 11.0269 7.34967 10.6679 7.34967V7.99967ZM10.6679 8.00101L10.6524 8.65082C10.8274 8.65501 10.9967 8.58841 11.122 8.46609C11.2473 8.34378 11.3179 8.17609 11.3179 8.00101H10.6679ZM10.6666 8.00098H10.0166C10.0166 8.3539 10.2983 8.64235 10.6511 8.65079L10.6666 8.00098ZM10.6666 7.99967V7.34967C10.3076 7.34967 10.0166 7.64069 10.0166 7.99967H10.6666ZM7.99996 7.99967V7.34967C7.64097 7.34967 7.34996 7.64069 7.34996 7.99967H7.99996ZM8.00129 7.99967L8.65111 8.01486C8.6552 7.83988 8.58856 7.67065 8.46625 7.54546C8.34394 7.42026 8.17632 7.34967 8.00129 7.34967V7.99967ZM8.00126 8.00101L7.98571 8.65082C8.15812 8.65495 8.3251 8.59039 8.44989 8.47136C8.57468 8.35234 8.64706 8.1886 8.65108 8.01619L8.00126 8.00101ZM7.99996 8.00098H7.34996C7.34996 8.3539 7.63158 8.64235 7.98441 8.65079L7.99996 8.00098ZM5.33329 7.99967V7.34967C4.97431 7.34967 4.68329 7.64069 4.68329 7.99967H5.33329ZM5.33463 7.99967L5.98445 8.01486C5.98854 7.83988 5.92189 7.67065 5.79958 7.54546C5.67728 7.42026 5.50965 7.34967 5.33463 7.34967V7.99967ZM5.33459 8.00101L5.31905 8.65082C5.49145 8.65495 5.65843 8.59039 5.78322 8.47136C5.90801 8.35234 5.98039 8.1886 5.98442 8.01619L5.33459 8.00101ZM5.33329 8.00098H4.68329C4.68329 8.3539 4.96492 8.64235 5.31775 8.65079L5.33329 8.00098ZM2.66663 4.68301C2.30764 4.68301 2.01663 4.97402 2.01663 5.33301C2.01663 5.69199 2.30764 5.98301 2.66663 5.98301V4.68301ZM13.3333 5.98301C13.6923 5.98301 13.9833 5.69199 13.9833 5.33301C13.9833 4.97402 13.6923 4.68301 13.3333 4.68301V5.98301ZM11.3166 1.33301C11.3166 0.974023 11.0256 0.683008 10.6666 0.683008C10.3076 0.683008 10.0166 0.974023 10.0166 1.33301H11.3166ZM10.0166 2.66634C10.0166 3.02533 10.3076 3.31634 10.6666 3.31634C11.0256 3.31634 11.3166 3.02533 11.3166 2.66634H10.0166ZM5.98329 1.33301C5.98329 0.974023 5.69228 0.683008 5.33329 0.683008C4.97431 0.683008 4.68329 0.974023 4.68329 1.33301H5.98329ZM4.68329 2.66634C4.68329 3.02533 4.97431 3.31634 5.33329 3.31634C5.69228 3.31634 5.98329 3.02533 5.98329 2.66634H4.68329ZM4.80009 3.31634H11.2001V2.01634H4.80009V3.31634ZM12.6833 4.79964V11.1996H13.9833V4.79964H12.6833ZM11.2001 12.683H4.80009V13.983H11.2001V12.683ZM3.31663 11.1996V4.79964H2.01663V11.1996H3.31663ZM4.80009 12.683C4.41601 12.683 4.16695 12.6825 3.97715 12.667C3.79489 12.6521 3.72526 12.6267 3.68958 12.6085L3.0994 13.7668C3.34894 13.894 3.60874 13.9412 3.87129 13.9627C4.1263 13.9835 4.43743 13.983 4.80009 13.983V12.683ZM2.01663 11.1996C2.01663 11.5623 2.01612 11.8734 2.03695 12.1283C2.0584 12.3909 2.10566 12.6506 2.2328 12.9001L3.3911 12.3099C3.37292 12.2742 3.34752 12.2046 3.33263 12.0225C3.31713 11.8327 3.31663 11.5837 3.31663 11.1996H2.01663ZM3.68958 12.6085C3.56111 12.543 3.45667 12.4386 3.3911 12.3099L2.2328 12.9001C2.4229 13.2732 2.72611 13.5766 3.0994 13.7668L3.68958 12.6085ZM12.6833 11.1996C12.6833 11.5838 12.6828 11.8328 12.6673 12.0226C12.6525 12.2048 12.6271 12.2743 12.609 12.3099L13.7673 12.9001C13.8944 12.6505 13.9416 12.3907 13.963 12.1282C13.9838 11.8733 13.9833 11.5622 13.9833 11.1996H12.6833ZM11.2001 13.983C11.5627 13.983 11.8738 13.9835 12.1287 13.9627C12.3912 13.9412 12.6508 13.8939 12.9002 13.7668L12.3101 12.6085C12.2743 12.6267 12.2047 12.6521 12.0227 12.667C11.8331 12.6825 11.5842 12.683 11.2001 12.683V13.983ZM12.609 12.3099C12.5436 12.4382 12.439 12.5428 12.3101 12.6085L12.9002 13.7668C13.2731 13.5768 13.5769 13.2736 13.7673 12.9001L12.609 12.3099ZM11.2001 3.31634C11.5842 3.31634 11.8331 3.31685 12.0227 3.33235C12.2048 3.34722 12.2743 3.37261 12.3101 3.39082L12.9002 2.23251C12.6508 2.1054 12.3912 2.05812 12.1286 2.03667C11.8737 2.01584 11.5627 2.01634 11.2001 2.01634V3.31634ZM13.9833 4.79964C13.9833 4.43707 13.9838 4.126 13.963 3.8711C13.9416 3.60861 13.8944 3.34885 13.7673 3.09927L12.609 3.68946C12.6271 3.7251 12.6525 3.79461 12.6673 3.97677C12.6828 4.16652 12.6833 4.41548 12.6833 4.79964H13.9833ZM12.3101 3.39082C12.4389 3.45647 12.5436 3.56115 12.609 3.68946L13.7673 3.09927C13.577 2.72582 13.2732 2.42252 12.9002 2.23251L12.3101 3.39082ZM4.80009 2.01634C4.43744 2.01634 4.12631 2.01584 3.87131 2.03666C3.60876 2.05811 3.34895 2.10536 3.0994 2.23251L3.68958 3.39082C3.72525 3.37265 3.79487 3.34724 3.97713 3.33235C4.16694 3.31685 4.416 3.31634 4.80009 3.31634V2.01634ZM3.31663 4.79964C3.31663 4.41555 3.31713 4.16658 3.33263 3.97687C3.34751 3.79475 3.37291 3.72517 3.3911 3.68946L2.2328 3.09927C2.10567 3.34878 2.0584 3.60847 2.03695 3.871C2.01612 4.12594 2.01663 4.437 2.01663 4.79964H3.31663ZM3.0994 2.23251C2.72604 2.42275 2.42286 2.72625 2.2328 3.09927L3.3911 3.68946C3.4567 3.56072 3.56117 3.45625 3.68958 3.39082L3.0994 2.23251ZM10.6666 11.3163H10.668V10.0163H10.6666V11.3163ZM10.0181 10.6512L10.0181 10.6525L11.3177 10.6829L11.3178 10.6815L10.0181 10.6512ZM10.6835 10.0179L10.6822 10.0178L10.6511 11.3175L10.6524 11.3175L10.6835 10.0179ZM11.3166 10.6676V10.6663H10.0166V10.6676H11.3166ZM7.99996 11.3163H8.00129V10.0163H7.99996V11.3163ZM7.35147 10.6512L7.35144 10.6525L8.65108 10.6829L8.65111 10.6815L7.35147 10.6512ZM8.01681 10.0179L8.01551 10.0178L7.98441 11.3175L7.98571 11.3175L8.01681 10.0179ZM8.64996 10.6676V10.6663H7.34996V10.6676H8.64996ZM5.33329 11.3163H5.33463V10.0163H5.33329V11.3163ZM4.6848 10.6512L4.68477 10.6525L5.98442 10.6829L5.98445 10.6815L4.6848 10.6512ZM5.35014 10.0179L5.34884 10.0178L5.31775 11.3175L5.31905 11.3175L5.35014 10.0179ZM5.98329 10.6676V10.6663H4.68329V10.6676H5.98329ZM10.0179 7.99967V8.00101H11.3179V7.99967H10.0179ZM10.6835 7.35119L10.6822 7.35116L10.6511 8.65079L10.6524 8.65082L10.6835 7.35119ZM11.3166 8.00098V7.99967H10.0166V8.00098H11.3166ZM10.6666 8.64967H10.6679V7.34967H10.6666V8.64967ZM7.99996 8.64967H8.00129V7.34967H7.99996V8.64967ZM7.35147 7.98449L7.35144 7.98582L8.65108 8.01619L8.65111 8.01486L7.35147 7.98449ZM8.01681 7.35119L8.01551 7.35116L7.98441 8.65079L7.98571 8.65082L8.01681 7.35119ZM8.64996 8.00098V7.99967H7.34996V8.00098H8.64996ZM5.33329 8.64967H5.33463V7.34967H5.33329V8.64967ZM4.6848 7.98449L4.68477 7.98582L5.98442 8.01619L5.98445 8.01486L4.6848 7.98449ZM5.35014 7.35119L5.34884 7.35116L5.31775 8.65079L5.31905 8.65082L5.35014 7.35119ZM5.98329 8.00098V7.99967H4.68329V8.00098H5.98329ZM2.66663 5.98301H13.3333V4.68301H2.66663V5.98301ZM10.0166 1.33301V2.66634H11.3166V1.33301H10.0166ZM4.68329 1.33301V2.66634H5.98329V1.33301H4.68329Z" fill="#30B4FF"/>
</svg>
