<svg width="20" height="20" viewBox="0 0 20 20" fill="none" xmlns="http://www.w3.org/2000/svg">
<path d="M13.7665 4.70801L11.1832 2.70801C10.8499 2.37467 10.0999 2.20801 9.59986 2.20801H6.43319C5.43319 2.20801 4.34986 2.95801 4.09986 3.95801L2.09986 10.0413C1.68319 11.208 2.43319 12.208 3.68319 12.208H7.01653C7.51653 12.208 7.93319 12.6247 7.84986 13.208L7.43319 15.8747C7.26653 16.6247 7.76653 17.458 8.51653 17.708C9.18319 17.958 10.0165 17.6247 10.3499 17.1247L13.7665 12.0413" stroke="#30B4FF" stroke-width="1.5" stroke-miterlimit="10"/>
<path d="M18.0168 4.70833V12.875C18.0168 14.0417 17.5168 14.4583 16.3501 14.4583H15.5168C14.3501 14.4583 13.8501 14.0417 13.8501 12.875V4.70833C13.8501 3.54167 14.3501 3.125 15.5168 3.125H16.3501C17.5168 3.125 18.0168 3.54167 18.0168 4.70833Z" stroke="#30B4FF" stroke-width="1.5" stroke-linecap="round" stroke-linejoin="round"/>
</svg>
