<svg width="16" height="16" viewBox="0 0 16 16" fill="none" xmlns="http://www.w3.org/2000/svg">
<path d="M6.66667 3.99998V3.06665C6.66667 2.69328 6.66667 2.50662 6.73933 2.36401C6.80324 2.23857 6.90516 2.13658 7.0306 2.07266C7.17321 2 7.3597 2 7.73307 2H10.8912C11.0543 2 11.1359 2 11.2126 2.01842C11.2806 2.03475 11.346 2.06167 11.4056 2.09823C11.4729 2.13945 11.5305 2.19712 11.6458 2.31242L13.6877 4.35425C13.803 4.46955 13.8605 4.5272 13.9017 4.59448C13.9382 4.65413 13.9654 4.71917 13.9818 4.78719C14.0002 4.86392 14 4.94542 14 5.10848V10.9333C14 11.3067 13.9997 11.4934 13.9271 11.636C13.8632 11.7615 13.7617 11.8634 13.6363 11.9273C13.4936 12 13.3067 12 12.9333 12H9.33333M9.33307 7.33333H7.06641C6.69304 7.33333 6.50654 7.33332 6.36393 7.26066C6.23849 7.19675 6.13658 7.09478 6.07266 6.96934C6 6.82674 6 6.64003 6 6.26667V4M13.9997 5.33333H11.7331C11.3597 5.33333 11.1732 5.33332 11.0306 5.26066C10.9052 5.19675 10.8032 5.09478 10.7393 4.96934C10.6667 4.82674 10.6667 4.64003 10.6667 4.26667V2M9.33333 12.9333V7.10848C9.33333 6.94542 9.33352 6.86392 9.3151 6.78719C9.29877 6.71917 9.27157 6.65413 9.23501 6.59448C9.19379 6.5272 9.1363 6.46954 9.021 6.35425L6.97917 4.31242C6.86387 4.19712 6.80621 4.13945 6.73893 4.09823C6.67928 4.06167 6.61395 4.03475 6.54592 4.01842C6.4692 4 6.38764 4 6.22458 4H3.06641C2.69304 4 2.50654 4 2.36393 4.07266C2.23849 4.13658 2.13658 4.23857 2.07266 4.36401C2 4.50662 2 4.69328 2 5.06665V12.9333C2 13.3067 2 13.4934 2.07266 13.636C2.13658 13.7615 2.23849 13.8634 2.36393 13.9273C2.50654 14 2.69304 14 3.06641 14H8.26641C8.63978 14 8.82698 14 8.96959 13.9273C9.09503 13.8634 9.1965 13.7615 9.26042 13.636C9.33308 13.4934 9.33333 13.3067 9.33333 12.9333Z" stroke="#404040" stroke-linecap="round" stroke-linejoin="round"/>
</svg>
