<svg width="16" height="16" viewBox="0 0 16 16" fill="none" xmlns="http://www.w3.org/2000/svg">
<path d="M2 8.5H14V7.5H2V8.5ZM8 13.5C4.96243 13.5 2.5 11.0376 2.5 8H1.5C1.5 11.5899 4.41015 14.5 8 14.5V13.5ZM2.5 8C2.5 4.96243 4.96243 2.5 8 2.5V1.5C4.41015 1.5 1.5 4.41015 1.5 8H2.5ZM8 2.5C11.0376 2.5 13.5 4.96243 13.5 8H14.5C14.5 4.41015 11.5899 1.5 8 1.5V2.5ZM13.5 8C13.5 11.0376 11.0376 13.5 8 13.5V14.5C11.5899 14.5 14.5 11.5899 14.5 8H13.5ZM8 13.5C7.7945 13.5 7.56108 13.4084 7.30671 13.1663C7.04975 12.9218 6.7956 12.5443 6.57129 12.0396C6.12322 11.0314 5.83333 9.60364 5.83333 8H4.83333C4.83333 9.71007 5.1404 11.2823 5.65748 12.4457C5.91574 13.0268 6.2362 13.528 6.61732 13.8907C7.00101 14.2558 7.46912 14.5 8 14.5V13.5ZM5.83333 8C5.83333 6.39636 6.12322 4.96857 6.57129 3.96043C6.7956 3.45572 7.04975 3.07824 7.30671 2.83371C7.56108 2.59162 7.7945 2.5 8 2.5V1.5C7.46912 1.5 7.00101 1.74416 6.61732 2.10931C6.2362 2.47201 5.91574 2.97321 5.65748 3.55429C5.1404 4.71772 4.83333 6.28993 4.83333 8H5.83333ZM8 2.5C8.2055 2.5 8.43892 2.59162 8.69329 2.83371C8.95025 3.07824 9.2044 3.45572 9.42871 3.96043C9.87678 4.96857 10.1667 6.39636 10.1667 8H11.1667C11.1667 6.28993 10.8596 4.71772 10.3425 3.55429C10.0843 2.97321 9.7638 2.47201 9.38268 2.10931C8.99899 1.74416 8.53088 1.5 8 1.5V2.5ZM10.1667 8C10.1667 9.60364 9.87678 11.0314 9.42871 12.0396C9.2044 12.5443 8.95025 12.9218 8.69329 13.1663C8.43892 13.4084 8.2055 13.5 8 13.5V14.5C8.53088 14.5 8.99899 14.2558 9.38268 13.8907C9.7638 13.528 10.0843 13.0268 10.3425 12.4457C10.8596 11.2823 11.1667 9.71007 11.1667 8H10.1667Z" fill="#404040"/>
</svg>
