<svg width="16" class="stroke" height="16" viewBox="0 0 16 16" fill="none" xmlns="http://www.w3.org/2000/svg">
<path d="M7.48991 1.5827C7.24488 1.68419 7.02523 1.90384 6.58594 2.34313C6.14664 2.78242 5.92701 3.00205 5.82552 3.24708C5.6902 3.57378 5.6902 3.94089 5.82552 4.26759C5.92701 4.51262 6.14666 4.73227 6.58596 5.17156L6.58614 5.17175C7.02531 5.61092 7.24491 5.83052 7.48991 5.932C7.81661 6.06732 8.18371 6.06732 8.51042 5.932C8.75544 5.8305 8.97509 5.61086 9.41439 5.17156C9.85368 4.73227 10.0733 4.51262 10.1748 4.26759C10.3101 3.94089 10.3101 3.57378 10.1748 3.24708C10.0733 3.00209 9.85374 2.78249 9.41457 2.34332L9.41439 2.34313C8.97509 1.90384 8.75544 1.68419 8.51042 1.5827C8.18371 1.44737 7.81661 1.44737 7.48991 1.5827Z" stroke="currentColor" stroke-width="1.3" stroke-linecap="round" stroke-linejoin="round"/>
<path d="M3.24707 5.82537C3.00204 5.92686 2.78239 6.14651 2.3431 6.58581L2.34309 6.58581C1.9038 7.0251 1.68418 7.24473 1.58268 7.48976C1.44736 7.81646 1.44736 8.18356 1.58268 8.51027C1.68418 8.75529 1.90382 8.97494 2.34312 9.41424L2.34329 9.41441C2.78247 9.85359 3.00207 10.0732 3.24707 10.1747C3.57377 10.31 3.94087 10.31 4.26758 10.1747C4.51261 10.0732 4.73225 9.85353 5.17155 9.41424C5.61084 8.97494 5.83049 8.75529 5.93198 8.51027C6.06731 8.18356 6.06731 7.81646 5.93198 7.48976C5.8305 7.24476 5.6109 7.02516 5.17174 6.586L5.17155 6.58581C4.73225 6.14651 4.51261 5.92686 4.26758 5.82537C3.94087 5.69005 3.57377 5.69005 3.24707 5.82537Z" stroke="currentColor" stroke-width="1.3" stroke-linecap="round" stroke-linejoin="round"/>
<path d="M11.7327 5.82537C11.4877 5.92686 11.2681 6.14651 10.8288 6.58581C10.3895 7.0251 10.1699 7.24473 10.0684 7.48976C9.93303 7.81646 9.93303 8.18356 10.0684 8.51027C10.1699 8.75529 10.3895 8.97494 10.8288 9.41424L10.829 9.41442C11.2681 9.85359 11.4877 10.0732 11.7327 10.1747C12.0594 10.31 12.4266 10.31 12.7533 10.1747C12.9983 10.0732 13.2179 9.85353 13.6572 9.41424C14.0965 8.97494 14.3162 8.75529 14.4177 8.51027C14.553 8.18356 14.553 7.81646 14.4177 7.48976C14.3162 7.24476 14.0966 7.02516 13.6574 6.586L13.6572 6.58581L13.6572 6.5858C13.2179 6.14651 12.9983 5.92686 12.7533 5.82537C12.4266 5.69005 12.0594 5.69005 11.7327 5.82537Z" stroke="currentColor" stroke-width="1.3" stroke-linecap="round" stroke-linejoin="round"/>
<path d="M7.48991 10.068C7.24488 10.1695 7.02523 10.3892 6.58594 10.8285C6.14664 11.2678 5.92701 11.4874 5.82552 11.7324C5.6902 12.0591 5.6902 12.4262 5.82552 12.7529C5.92701 12.998 6.14666 13.2176 6.58596 13.6569L6.58613 13.6571C7.02531 14.0963 7.24491 14.3159 7.48991 14.4173C7.81661 14.5527 8.18371 14.5527 8.51042 14.4173C8.75544 14.3159 8.97509 14.0962 9.41439 13.6569C9.85368 13.2176 10.0733 12.998 10.1748 12.7529C10.3101 12.4262 10.3101 12.0591 10.1748 11.7324C10.0733 11.4874 9.85374 11.2678 9.41458 10.8287L9.41439 10.8285C8.97509 10.3892 8.75544 10.1695 8.51042 10.068C8.18371 9.93272 7.81661 9.93272 7.48991 10.068Z" stroke="currentColor" stroke-width="1.3" stroke-linecap="round" stroke-linejoin="round"/> 
</svg>
