<svg xmlns="http://www.w3.org/2000/svg" viewBox="0 0 512 512">
    <path class="cls-1" d="M487.89,199.33C436.24,151.11,351.62,89.6,256,89.6S75.76,151.11,24.11,199.33c-32.15,30-32.15,83.32,0,113.33C75.76,360.89,160.38,422.4,256,422.4s180.24-61.51,231.89-109.73C520,282.65,520,229.35,487.89,199.33ZM256,371.2A115.2,115.2,0,1,1,371.2,256,115.2,115.2,0,0,1,256,371.2ZM320,256a64,64,0,1,1-64-64A64,64,0,0,1,320,256ZM243.2,38.4V12.8a12.8,12.8,0,1,1,25.6,0V38.4a12.8,12.8,0,1,1-25.6,0ZM93.35,60.25a12.8,12.8,0,0,1,18.1-18.1l25.6,25.6a12.8,12.8,0,1,1-18.1,18.1Zm294.4,25.6a12.8,12.8,0,0,1,0-18.1l25.6-25.6a12.8,12.8,0,0,1,18.1,18.1l-25.6,25.6a12.8,12.8,0,0,1-18.1,0ZM268.8,473.6v25.6a12.8,12.8,0,1,1-25.6,0V473.6a12.8,12.8,0,1,1,25.6,0ZM137.05,426.15a12.8,12.8,0,0,1,0,18.1l-25.6,25.6a12.8,12.8,0,0,1-18.1-18.1l25.6-25.6A12.8,12.8,0,0,1,137.05,426.15Zm294.4,25.6a12.8,12.8,0,1,1-18.1,18.1l-25.6-25.6a12.8,12.8,0,1,1,18.1-18.1Z" />
</svg>