<svg width="16" height="16" class="fill" viewBox="0 0 16 16" fill="none" xmlns="http://www.w3.org/2000/svg">
<path d="M6.923 1.37797C7.61624 1.11132 8.38376 1.11132 9.077 1.37797L14.039 3.28597C14.3219 3.39489 14.5651 3.58697 14.7367 3.83689C14.9082 4.0868 15 4.38283 15 4.68597V11.312C15 11.6151 14.9082 11.9111 14.7367 12.161C14.5651 12.411 14.3219 12.603 14.039 12.712L9.077 14.621C8.38376 14.8876 7.61624 14.8876 6.923 14.621L1.962 12.712C1.67893 12.6032 1.43547 12.4112 1.26373 12.1613C1.09199 11.9113 1.00004 11.6152 1 11.312V4.68597C1.00004 4.38272 1.09199 4.0866 1.26373 3.83667C1.43547 3.58674 1.67893 3.39473 1.962 3.28597L6.923 1.37797ZM8.718 2.31097C8.25584 2.1332 7.74416 2.1332 7.282 2.31097L5.898 2.84397L11.488 4.95997L13.436 4.12597L8.718 2.30997V2.31097ZM14 4.97097L8.5 7.32997V13.758C8.574 13.739 8.646 13.716 8.718 13.688L13.68 11.78C13.7743 11.7436 13.8553 11.6795 13.9125 11.5961C13.9696 11.5127 14.0001 11.414 14 11.313V4.97297V4.97097ZM7.5 13.757V7.32997L2 4.97197V11.312C1.99989 11.413 2.03042 11.5117 2.08754 11.5951C2.14467 11.6785 2.22571 11.7426 2.32 11.779L7.282 13.687C7.354 13.715 7.426 13.738 7.5 13.757ZM2.564 4.12597L8 6.45597L10.164 5.52797L4.497 3.38197L2.564 4.12597Z" fill="currentColor"/>
</svg>
