<svg width="24" height="24" class="fill" viewBox="0 0 24 24" fill="none" xmlns="http://www.w3.org/2000/svg">
<path d="M10.0002 5.75C10.4144 5.75 10.7502 5.41421 10.7502 5C10.7502 4.58579 10.4144 4.25 10.0002 4.25V5.75ZM19.75 14C19.75 13.5858 19.4142 13.25 19 13.25C18.5858 13.25 18.25 13.5858 18.25 14H19.75ZM17.9078 18.782L17.5673 18.1137L17.9078 18.782ZM18.7822 17.908L18.114 17.5675L18.7822 17.908ZM5.21799 17.908L4.54973 18.2485H4.54973L5.21799 17.908ZM6.0918 18.782L6.43229 18.1137L6.0918 18.782ZM6.0918 5.21799L6.43229 5.88624L6.0918 5.21799ZM5.21799 6.09204L5.88624 6.43253L5.21799 6.09204ZM19.25 9C19.25 9.41421 19.5858 9.75 20 9.75C20.4142 9.75 20.75 9.41421 20.75 9H19.25ZM20 4H20.75C20.75 3.58579 20.4142 3.25 20 3.25V4ZM15 3.25C14.5858 3.25 14.25 3.58579 14.25 4C14.25 4.41421 14.5858 4.75 15 4.75V3.25ZM12.4697 10.4697C12.1768 10.7626 12.1768 11.2374 12.4697 11.5303C12.7626 11.8232 13.2374 11.8232 13.5303 11.5303L12.4697 10.4697ZM10.0002 4.25H8.2002V5.75H10.0002V4.25ZM4.25 8.19995V15.8H5.75V8.19995H4.25ZM8.2002 19.75H15.8002V18.25H8.2002V19.75ZM19.75 15.8V14H18.25V15.8H19.75ZM15.8002 19.75C16.3479 19.75 16.8037 19.7506 17.1747 19.7202C17.5546 19.6892 17.9111 19.6221 18.2483 19.4502L17.5673 18.1137C17.4767 18.1599 17.3394 18.2018 17.0525 18.2252C16.7567 18.2494 16.3726 18.25 15.8002 18.25V19.75ZM18.25 15.8C18.25 16.3725 18.2495 16.7567 18.2253 17.0527C18.2019 17.3399 18.1601 17.4771 18.114 17.5675L19.4505 18.2485C19.6224 17.9112 19.6894 17.5544 19.7204 17.1746C19.7506 16.8035 19.75 16.3476 19.75 15.8H18.25ZM18.2483 19.4502C18.7653 19.1868 19.1866 18.7664 19.4505 18.2485L18.114 17.5675C17.9943 17.8024 17.8029 17.9937 17.5673 18.1137L18.2483 19.4502ZM4.25 15.8C4.25 16.3476 4.24942 16.8035 4.27974 17.1747C4.31078 17.5546 4.37788 17.9112 4.54973 18.2485L5.88624 17.5675C5.8401 17.477 5.79822 17.3397 5.77476 17.0525C5.75058 16.7566 5.75 16.3724 5.75 15.8H4.25ZM8.2002 18.25C7.62779 18.25 7.24345 18.2494 6.94746 18.2252C6.66018 18.2018 6.52282 18.1599 6.43229 18.1137L5.7513 19.4502C6.0886 19.6221 6.44538 19.6892 6.82532 19.7202C7.19655 19.7506 7.6525 19.75 8.2002 19.75V18.25ZM4.54973 18.2485C4.81333 18.7659 5.23374 19.1865 5.7513 19.4502L6.43229 18.1137C6.1972 17.9939 6.00614 17.8029 5.88624 17.5675L4.54973 18.2485ZM8.2002 4.25C7.65251 4.25 7.19656 4.24942 6.82534 4.27974C6.44541 4.31077 6.08861 4.37787 5.7513 4.54973L6.43229 5.88624C6.52281 5.84012 6.66016 5.79822 6.94745 5.77476C7.24344 5.75058 7.62777 5.75 8.2002 5.75V4.25ZM5.75 8.19995C5.75 7.62752 5.75058 7.24333 5.77476 6.94747C5.79822 6.66037 5.84009 6.5231 5.88624 6.43253L4.54973 5.75155C4.37789 6.0888 4.31078 6.44544 4.27974 6.82531C4.24942 7.19643 4.25 7.65228 4.25 8.19995H5.75ZM5.7513 4.54973C5.23366 4.81348 4.81329 5.2343 4.54973 5.75155L5.88624 6.43253C6.00618 6.19714 6.19728 6.00598 6.43229 5.88624L5.7513 4.54973ZM20.75 9V4H19.25V9H20.75ZM20 3.25H15V4.75H20V3.25ZM13.5303 11.5303L20.5303 4.53033L19.4697 3.46967L12.4697 10.4697L13.5303 11.5303Z" fill="currentColor"/>
</svg>
