<svg width="16" height="16" class="stroke " viewBox="0 0 16 16" fill="none" xmlns="http://www.w3.org/2000/svg">
<path d="M2.09838 6.89392C1.90712 6.70843 2.01102 6.3731 2.26971 6.34094L5.93535 5.88516C6.04079 5.87205 6.13237 5.80239 6.17684 5.70128L7.72296 2.18607C7.83207 1.938 8.16837 1.93796 8.27748 2.18604L9.8236 5.70133C9.86807 5.80244 9.95905 5.87206 10.0645 5.88517L13.7303 6.34094C13.989 6.3731 14.0929 6.70845 13.9016 6.89394L11.1917 9.52223C11.1137 9.59783 11.0789 9.71051 11.0996 9.81972L11.8189 13.6166C11.8696 13.8846 11.5977 14.0918 11.3704 13.9584L8.14938 12.0676C8.05674 12.0132 7.94388 12.0131 7.85123 12.0675L4.62991 13.9584C4.40259 14.0918 4.13037 13.8846 4.18114 13.6167L4.90057 9.81968C4.92126 9.71047 4.8865 9.59787 4.80855 9.52227L2.09838 6.89392Z" stroke="currentColor" stroke-width="1.3" stroke-linecap="round" stroke-linejoin="round"/>
</svg>
