<svg width="40" height="40" viewBox="0 0 40 40" fill="none" xmlns="http://www.w3.org/2000/svg">
<path fill-rule="evenodd" clip-rule="evenodd" d="M8 19.2562C8.00019 17.458 8.43114 15.686 9.25676 14.0885C10.0824 12.4911 11.2787 11.1147 12.7454 10.0745C14.2122 9.03432 15.9068 8.36068 17.6874 8.10996C19.468 7.85924 21.2827 8.03874 22.9797 8.63342C24.6766 9.22811 26.2064 10.2207 27.441 11.528C28.6757 12.8354 29.5791 14.4195 30.0758 16.1478C30.5725 17.876 30.648 19.6981 30.296 21.4616C29.9439 23.225 29.1746 24.8784 28.0523 26.2834L32.6489 30.8802C32.8767 31.1161 33.0028 31.4321 33 31.76C32.9971 32.088 32.8656 32.4017 32.6337 32.6336C32.4018 32.8656 32.088 32.9971 31.7601 33C31.4322 33.0028 31.1162 32.8767 30.8803 32.6489L26.2837 28.0521C24.6275 29.3755 22.6313 30.2042 20.5249 30.443C18.4185 30.6818 16.2874 30.321 14.377 29.4019C12.4667 28.4829 10.8546 27.0431 9.72643 25.2482C8.59825 23.4533 7.99982 21.3763 8 19.2562ZM19.2569 14.2529C19.5886 14.2529 19.9068 14.3847 20.1413 14.6193C20.3759 14.8539 20.5077 15.172 20.5077 15.5038V18.0054H23.0092C23.3409 18.0054 23.6591 18.1372 23.8936 18.3718C24.1282 18.6064 24.26 18.9245 24.26 19.2562C24.26 19.588 24.1282 19.9061 23.8936 20.1407C23.6591 20.3753 23.3409 20.5071 23.0092 20.5071H20.5077V23.0087C20.5077 23.3405 20.3759 23.6586 20.1413 23.8932C19.9068 24.1278 19.5886 24.2596 19.2569 24.2596C18.9252 24.2596 18.6071 24.1278 18.3725 23.8932C18.1379 23.6586 18.0061 23.3405 18.0061 23.0087V20.5071H15.5046C15.1729 20.5071 14.8547 20.3753 14.6202 20.1407C14.3856 19.9061 14.2538 19.588 14.2538 19.2562C14.2538 18.9245 14.3856 18.6064 14.6202 18.3718C14.8547 18.1372 15.1729 18.0054 15.5046 18.0054H18.0061V15.5038C18.0061 15.172 18.1379 14.8539 18.3725 14.6193C18.6071 14.3847 18.9252 14.2529 19.2569 14.2529Z" fill="white" fill-opacity="0.6"/>
</svg>
