<svg width="16" height="16" class="fill" viewBox="0 0 16 16" fill="none" xmlns="http://www.w3.org/2000/svg">
<path d="M5.80356 7.85334C5.54386 7.59364 5.12281 7.59364 4.86311 7.85334C4.60341 8.11304 4.60341 8.5341 4.86311 8.79379L5.80356 7.85334ZM8.16176 11.152L7.69153 11.6222C7.81625 11.7469 7.9854 11.817 8.16177 11.817C8.33814 11.817 8.50729 11.7469 8.632 11.6222L8.16176 11.152ZM14.2886 5.96533C14.5482 5.70562 14.5482 5.28457 14.2885 5.02488C14.0288 4.76519 13.6078 4.7652 13.3481 5.0249L14.2886 5.96533ZM2.47023 7.85334C2.21053 7.59364 1.78947 7.59364 1.52977 7.85334C1.27008 8.11304 1.27008 8.5341 1.52977 8.79379L2.47023 7.85334ZM4.3582 11.6222C4.6179 11.8819 5.03895 11.8819 5.29865 11.6222C5.55835 11.3625 5.55835 10.9415 5.29865 10.6818L4.3582 11.6222ZM10.9576 5.9632C11.2162 5.70232 11.2142 5.28127 10.9534 5.02276C10.6925 4.76424 10.2714 4.76616 10.0129 5.02703L10.9576 5.9632ZM7.86097 7.19864C7.60246 7.45952 7.60437 7.88057 7.86525 8.13908C8.12613 8.3976 8.54718 8.39568 8.80569 8.13481L7.86097 7.19864ZM4.86311 8.79379L7.69153 11.6222L8.63199 10.6818L5.80356 7.85334L4.86311 8.79379ZM8.632 11.6222L14.2886 5.96533L13.3481 5.0249L7.69152 10.6818L8.632 11.6222ZM1.52977 8.79379L4.3582 11.6222L5.29865 10.6818L2.47023 7.85334L1.52977 8.79379ZM10.0129 5.02703L7.86097 7.19864L8.80569 8.13481L10.9576 5.9632L10.0129 5.02703Z" fill="currentColor"/>
</svg>
