<svg width="16" height="16" class="stroke" viewBox="0 0 16 16" fill="none" xmlns="http://www.w3.org/2000/svg">
<path d="M6 11.3333H10M6 9.33333H10M12.6664 6H9.73307C9.3597 6 9.17321 5.99999 9.0306 5.92733C8.90516 5.86341 8.80324 5.76145 8.73933 5.63601C8.66667 5.4934 8.66667 5.3067 8.66667 4.93333V2M12.6667 11.8667V6.43599C12.6667 6.12699 12.6668 5.97248 12.6335 5.82621C12.6039 5.6965 12.5552 5.57192 12.4888 5.45666C12.4139 5.32668 12.3088 5.21331 12.0989 4.98657L9.9668 2.68392C9.73347 2.43192 9.61669 2.30592 9.47786 2.21562C9.35481 2.13558 9.2191 2.07643 9.07677 2.04052C8.91619 2 8.74481 2 8.40138 2H5.4668C4.72006 2 4.34641 2 4.0612 2.14532C3.81031 2.27316 3.60649 2.47714 3.47866 2.72803C3.33333 3.01324 3.33333 3.3866 3.33333 4.13334V11.8667C3.33333 12.6134 3.33333 12.9868 3.47866 13.272C3.60649 13.5229 3.81031 13.7268 4.0612 13.8547C4.34641 14 4.72006 14 5.4668 14H10.5335C11.2802 14 11.6533 14 11.9385 13.8547C12.1894 13.7268 12.3937 13.5229 12.5215 13.272C12.6668 12.9868 12.6667 12.6134 12.6667 11.8667Z" stroke="currentColor" stroke-width="1.3" stroke-linecap="round" stroke-linejoin="round"/>
</svg>
