<svg width="19" height="18" viewBox="0 0 19 18" fill="none" xmlns="http://www.w3.org/2000/svg">
<g clip-path="url(#clip0_830_6881)">
<path d="M6.22253 2.67727C6.35707 2.60388 6.50003 2.71678 6.50003 2.87003V13.0197C6.50003 13.1973 6.37845 13.3472 6.22253 13.4323L4.46003 14.4373C3.23003 15.1423 2.21753 14.5573 2.21753 13.1323V5.83477C2.21753 5.36227 2.55503 4.77727 2.97503 4.53727L6.22253 2.67727Z" fill="white"/>
<path d="M11.4719 4.54274C11.6422 4.6271 11.75 4.80073 11.75 4.99081V14.5791C11.75 14.9476 11.365 15.1895 11.033 15.0296L8.09548 13.6143C7.92248 13.531 7.8125 13.3559 7.8125 13.1639V3.53604C7.8125 3.16519 8.20206 2.92339 8.5344 3.08798L11.4719 4.54274Z" fill="white"/>
<path d="M17 4.86755V12.165C17 12.6375 16.6625 13.2225 16.2425 13.4625L13.8111 14.856C13.4778 15.047 13.0625 14.8064 13.0625 14.4222V4.82037C13.0625 4.64086 13.1587 4.47512 13.3146 4.38613L14.7575 3.56255C15.9875 2.85755 17 3.44255 17 4.86755Z" fill="white"/>
</g>
<defs>
<clipPath id="clip0_830_6881">
<rect width="18" height="18" fill="white" transform="translate(0.5)"/>
</clipPath>
</defs>
</svg>
