<svg width="16" height="16" viewBox="0 0 16 16" fill="none" xmlns="http://www.w3.org/2000/svg">
<g clip-path="url(#clip0_545_1664)">
<path fill-rule="evenodd" clip-rule="evenodd" d="M8.83663 1.71157L13.0326 4.13424C13.286 4.28052 13.4964 4.49091 13.6427 4.74426C13.7889 4.99762 13.866 5.28502 13.866 5.57757V10.4229C13.866 10.7155 13.7889 11.0029 13.6427 11.2562C13.4964 11.5096 13.286 11.72 13.0326 11.8662L8.83663 14.2889C8.58326 14.4352 8.29585 14.5122 8.00329 14.5122C7.71073 14.5122 7.42332 14.4352 7.16996 14.2889L2.97396 11.8662C2.7206 11.72 2.51021 11.5096 2.36393 11.2562C2.21765 11.0029 2.14063 10.7155 2.14062 10.4229V5.57757C2.14063 5.28502 2.21765 4.99762 2.36393 4.74426C2.51021 4.49091 2.7206 4.28052 2.97396 4.13424L7.16996 1.71157C7.42332 1.56529 7.71073 1.48828 8.00329 1.48828C8.29585 1.48828 8.58326 1.56529 8.83663 1.71157ZM3.47396 6.15491V10.4229C3.47396 10.4814 3.48936 10.5389 3.51862 10.5896C3.54787 10.6402 3.58995 10.6823 3.64062 10.7116L7.33663 12.8449V8.37357L3.47396 6.15491ZM12.5326 6.15491L8.66996 8.37357V12.8462L12.366 10.7122C12.408 10.688 12.4442 10.6548 12.472 10.6151C12.4999 10.5753 12.5188 10.53 12.5273 10.4822L12.5326 10.4236V6.15491ZM7.83663 2.86691L4.14062 5.00024L7.83663 7.13424C7.8873 7.1635 7.94478 7.1789 8.00329 7.1789C8.0618 7.1789 8.11929 7.1635 8.16996 7.13424L11.866 5.00024L8.16996 2.86624C8.11929 2.83698 8.0618 2.82158 8.00329 2.82158C7.94478 2.82158 7.8873 2.83698 7.83663 2.86624V2.86691Z" fill="#404040"/>
</g>
<defs>
<clipPath id="clip0_545_1664">
<rect width="16" height="16" fill="white"/>
</clipPath>
</defs>
</svg>
