<svg width="16" height="16" viewBox="0 0 16 16" fill="none" xmlns="http://www.w3.org/2000/svg">
<g clip-path="url(#clip0_804_4011)">
<path d="M8 2C9.54267 2 10.9707 2.272 12.0387 2.73933C12.5713 2.97267 13.0447 3.26733 13.3933 3.62867C13.7167 3.962 13.9567 4.38067 13.9947 4.866L14 5V11.6667C14 12.2093 13.746 12.6733 13.3933 13.038C13.0447 13.3993 12.5713 13.694 12.0387 13.9273C10.9707 14.394 9.54267 14.6667 8 14.6667C6.45733 14.6667 5.02933 14.3947 3.96133 13.9273C3.42867 13.694 2.95533 13.3993 2.60667 13.038C2.28333 12.7047 2.04333 12.286 2.00533 11.8007L2 11.6667V5C2 4.45733 2.254 3.99333 2.60667 3.62867C2.95533 3.26733 3.42867 2.97267 3.96133 2.73933C5.02933 2.27267 6.45733 2 8 2ZM12.6667 10.2713C12.4646 10.3924 12.2548 10.5002 12.0387 10.594C10.9707 11.0607 9.54267 11.3333 8 11.3333C6.45733 11.3333 5.02933 11.0613 3.96133 10.594C3.7452 10.5002 3.53542 10.3924 3.33333 10.2713V11.6667C3.33333 11.768 3.37733 11.9173 3.56533 12.1113C3.756 12.3087 4.064 12.5167 4.496 12.706C5.35867 13.0833 6.59667 13.3333 8 13.3333C9.40333 13.3333 10.6413 13.0833 11.504 12.706C11.936 12.5167 12.244 12.3087 12.4347 12.1113C12.6227 11.918 12.6667 11.768 12.6667 11.6667V10.2713ZM12.6667 6.938C12.4646 7.05909 12.2548 7.16687 12.0387 7.26067C10.9707 7.72733 9.54267 8 8 8C6.45733 8 5.02933 7.728 3.96133 7.26067C3.7452 7.16689 3.53542 7.0591 3.33333 6.938V8.33333C3.33333 8.43467 3.37733 8.584 3.56533 8.778C3.756 8.97533 4.064 9.18333 4.496 9.37267C5.35867 9.75 6.59667 10 8 10C9.40333 10 10.6413 9.75 11.504 9.37267C11.936 9.18333 12.244 8.97533 12.4347 8.778C12.6227 8.58467 12.6667 8.43467 12.6667 8.33333V6.938ZM8 3.33333C6.59667 3.33333 5.35867 3.58333 4.496 3.96067C4.064 4.15 3.756 4.358 3.56533 4.55533C3.37733 4.74867 3.33333 4.89867 3.33333 5C3.33333 5.10133 3.37733 5.25067 3.56533 5.44467C3.756 5.642 4.064 5.85 4.496 6.03933C5.35867 6.41667 6.59667 6.66667 8 6.66667C9.40333 6.66667 10.6413 6.41667 11.504 6.03933C11.936 5.85 12.244 5.642 12.4347 5.44467C12.6227 5.25133 12.6667 5.10133 12.6667 5C12.6667 4.89867 12.6227 4.74933 12.4347 4.55533C12.244 4.358 11.936 4.15 11.504 3.96067C10.6413 3.58333 9.40333 3.33333 8 3.33333Z" fill="#30B4FF"/>
</g>
<defs>
<clipPath id="clip0_804_4011">
<rect width="16" height="16" fill="white"/>
</clipPath>
</defs>
</svg>
