<svg width="16" height="16" viewBox="0 0 16 16" fill="none" xmlns="http://www.w3.org/2000/svg">
<path d="M3 6.68133C3 9.96209 6.03178 12.6751 7.37372 13.7153L7.37425 13.7157C7.56667 13.8649 7.66291 13.9395 7.80633 13.9777C7.91791 14.0074 8.08201 14.0074 8.19358 13.9777C8.33714 13.9394 8.43363 13.8647 8.62641 13.7153C9.96835 12.6751 13 9.96207 13 6.68131C13 5.43975 12.4732 4.24904 11.5356 3.37113C10.5979 2.49321 9.32613 2 8.00004 2C6.67396 2 5.40215 2.4932 4.46447 3.37112C3.52679 4.24904 3 5.43977 3 6.68133Z" stroke="#30B4FF" stroke-linecap="round" stroke-linejoin="round"/>
<circle cx="8" cy="6" r="1.5" stroke="#30B4FF"/>
</svg>
