<svg width="18" height="18" viewBox="0 0 18 18" fill="none" xmlns="http://www.w3.org/2000/svg">
<g clip-path="url(#clip0_767_8640)">
<path d="M6.66002 3.44906C6.06002 0.854063 2.15252 0.846563 1.55252 3.44906C1.20002 4.97156 2.16752 6.26156 3.00752 7.06406C3.62252 7.64156 4.59002 7.64156 5.20502 7.06406C6.04502 6.26156 7.00502 4.97156 6.66002 3.44906ZM4.13252 4.64906C3.72002 4.64906 3.38252 4.31156 3.38252 3.89906C3.38252 3.48656 3.71252 3.14906 4.12502 3.14906H4.13252C4.55252 3.14906 4.88252 3.48656 4.88252 3.89906C4.88252 4.31156 4.55252 4.64906 4.13252 4.64906Z" fill="white"/>
<path d="M16.4325 12.4491C15.8325 9.85406 11.91 9.84656 11.3025 12.4491C10.95 13.9716 11.9175 15.2616 12.765 16.0641C13.38 16.6416 14.355 16.6416 14.97 16.0641C15.8175 15.2616 16.785 13.9716 16.4325 12.4491ZM13.8975 13.6491C13.485 13.6491 13.1475 13.3116 13.1475 12.8991C13.1475 12.4866 13.4775 12.1491 13.89 12.1491H13.8975C14.31 12.1491 14.6475 12.4866 14.6475 12.8991C14.6475 13.3116 14.31 13.6491 13.8975 13.6491Z" fill="white"/>
<path d="M8.99996 14.8125H6.98996C6.11996 14.8125 5.36246 14.2875 5.06246 13.4775C4.75496 12.6675 4.97996 11.775 5.63246 11.1975L11.625 5.955C11.985 5.64 11.9925 5.2125 11.8875 4.92C11.775 4.6275 11.49 4.3125 11.01 4.3125H8.99996C8.69246 4.3125 8.43746 4.0575 8.43746 3.75C8.43746 3.4425 8.69246 3.1875 8.99996 3.1875H11.01C11.88 3.1875 12.6375 3.7125 12.9375 4.5225C13.245 5.3325 13.02 6.225 12.3675 6.8025L6.37496 12.045C6.01496 12.36 6.00746 12.7875 6.11246 13.08C6.22496 13.3725 6.50996 13.6875 6.98996 13.6875H8.99996C9.30746 13.6875 9.56246 13.9425 9.56246 14.25C9.56246 14.5575 9.30746 14.8125 8.99996 14.8125Z" fill="white"/>
</g>
<defs>
<clipPath id="clip0_767_8640">
<rect width="18" height="18" fill="white"/>
</clipPath>
</defs>
</svg>
