<svg width="24" height="24" viewBox="0 0 24 24" fill="none" xmlns="http://www.w3.org/2000/svg">
<path d="M14.5303 13.4697C14.2374 13.1768 13.7626 13.1768 13.4697 13.4697C13.1768 13.7626 13.1768 14.2374 13.4697 14.5303L14.5303 13.4697ZM17.4697 18.5303C17.7626 18.8232 18.2374 18.8232 18.5303 18.5303C18.8232 18.2374 18.8232 17.7626 18.5303 17.4697L17.4697 18.5303ZM10.6667 14.5833C8.50355 14.5833 6.75 12.8298 6.75 10.6667H5.25C5.25 13.6582 7.67512 16.0833 10.6667 16.0833V14.5833ZM6.75 10.6667C6.75 8.50355 8.50355 6.75 10.6667 6.75V5.25C7.67512 5.25 5.25 7.67512 5.25 10.6667H6.75ZM10.6667 6.75C12.8298 6.75 14.5833 8.50355 14.5833 10.6667H16.0833C16.0833 7.67512 13.6582 5.25 10.6667 5.25V6.75ZM14.5833 10.6667C14.5833 12.8298 12.8298 14.5833 10.6667 14.5833V16.0833C13.6582 16.0833 16.0833 13.6582 16.0833 10.6667H14.5833ZM13.4697 14.5303L17.4697 18.5303L18.5303 17.4697L14.5303 13.4697L13.4697 14.5303Z" fill="#868686"/>
</svg>
