<svg width="16" height="16" viewBox="0 0 16 16" fill="none" xmlns="http://www.w3.org/2000/svg">
<path d="M4.91016 4.74424C4.91016 4.61472 4.96161 4.49049 5.0532 4.3989C5.14479 4.30731 5.26901 4.25586 5.39854 4.25586H10.608C10.7375 4.25586 10.8617 4.30731 10.9533 4.3989C11.0449 4.49049 11.0963 4.61472 11.0963 4.74424C11.0963 4.87377 11.0449 4.99799 10.9533 5.08958C10.8617 5.18117 10.7375 5.23263 10.608 5.23263H5.39854C5.26901 5.23263 5.14479 5.18117 5.0532 5.08958C4.96161 4.99799 4.91016 4.87377 4.91016 4.74424ZM5.39854 6.53498C5.26901 6.53498 5.14479 6.58644 5.0532 6.67803C4.96161 6.76962 4.91016 6.89384 4.91016 7.02337C4.91016 7.15289 4.96161 7.27711 5.0532 7.3687C5.14479 7.46029 5.26901 7.51175 5.39854 7.51175H8.65443C8.78396 7.51175 8.90818 7.46029 8.99977 7.3687C9.09136 7.27711 9.14281 7.15289 9.14281 7.02337C9.14281 6.89384 9.09136 6.76962 8.99977 6.67803C8.90818 6.58644 8.78396 6.53498 8.65443 6.53498H5.39854Z" fill="#404040"/>
<path fill-rule="evenodd" clip-rule="evenodd" d="M6.66432 1C5.77416 1 5.05591 1 4.49134 1.07619C3.90528 1.15433 3.41169 1.32364 3.01968 1.71499C2.62767 2.107 2.45967 2.6006 2.38088 3.18666C2.30469 3.75123 2.30469 4.46948 2.30469 5.35964V10.6407C2.30469 11.5308 2.30469 12.2491 2.38088 12.8137C2.45902 13.3997 2.62832 13.8933 3.01968 14.2853C3.41169 14.6773 3.90528 14.8453 4.49134 14.9248C5.05591 15.0003 5.77416 15.0003 6.66432 15.0003H9.34067C10.2308 15.0003 10.9491 15.0003 11.5136 14.9248C12.0997 14.8453 12.5933 14.6773 12.9853 14.2853C13.3773 13.8933 13.5453 13.3997 13.6248 12.8137C13.7003 12.2491 13.7003 11.5308 13.7003 10.6407V5.35964C13.7003 4.46948 13.7003 3.75123 13.6248 3.18666C13.5453 2.6006 13.3773 2.107 12.9853 1.71499C12.5933 1.32298 12.0997 1.15498 11.5136 1.07619C10.9491 1 10.2308 1 9.34067 1H6.66432ZM3.71123 2.40589C3.89161 2.22552 4.14427 2.1083 4.62288 2.04384C5.11387 1.97807 5.76635 1.97677 6.70079 1.97677H9.3055C10.2399 1.97677 10.8918 1.97807 11.3841 2.04384C11.862 2.1083 12.1147 2.22617 12.2951 2.40589C12.4754 2.58627 12.5926 2.83893 12.6571 3.31754C12.7229 3.80853 12.7242 4.46101 12.7242 5.39545V10.1165H5.25583C4.72316 10.1165 4.35981 10.1165 4.04789 10.1998C3.7736 10.2733 3.51423 10.3941 3.28145 10.5567V5.39545C3.28145 4.46101 3.28276 3.80853 3.34853 3.31689C3.41299 2.83893 3.53151 2.58627 3.71123 2.40589ZM3.29969 12.0694C3.30946 12.2999 3.32508 12.5024 3.34918 12.6834C3.41364 13.1614 3.53151 13.4141 3.71123 13.5944C3.89161 13.7748 4.14427 13.892 4.62288 13.9565C5.11387 14.0223 5.76635 14.0236 6.70079 14.0236H9.3055C10.2399 14.0236 10.8918 14.0223 11.3841 13.9565C11.862 13.892 12.1147 13.7742 12.2951 13.5944C12.4754 13.4141 12.5926 13.1614 12.6571 12.6828C12.7112 12.2823 12.7216 11.7744 12.7235 11.0933H5.33136C4.69451 11.0933 4.47181 11.0972 4.30055 11.1434C4.07104 11.205 3.85994 11.3214 3.68547 11.4827C3.51099 11.6441 3.37902 11.8454 3.29969 12.0694Z" fill="#404040"/>
</svg>
