<?xml version="1.0" encoding="utf-8"?><svg viewBox="0 0 512 512" xmlns="http://www.w3.org/2000/svg" xmlns:xlink="http://www.w3.org/1999/xlink"><style>:root>svg{display:none}:root>svg:target{display:block}</style><svg fill="none" viewBox="0 0 18 18" id="add_plus" xmlns="http://www.w3.org/2000/svg"><path d="M4.5 9h9M9 13.5v-9" stroke="#fff" stroke-width="1.5" stroke-linecap="round" stroke-linejoin="round"/></svg><svg fill="none" viewBox="0 0 18 18" id="arrow-up" xmlns="http://www.w3.org/2000/svg"><path d="M14.01 7.515l-2.408 2.408-1.47 1.477a1.598 1.598 0 01-2.257 0L3.99 7.515c-.51-.51-.143-1.38.57-1.38H13.44c.72 0 1.08.87.57 1.38z" fill="#E2E3E5"/></svg><svg fill="none" viewBox="0 0 18 18" id="arrow_blue" xmlns="http://www.w3.org/2000/svg"><path d="M7.5 6l3 3-3 3" stroke="#30B4FF" stroke-width="1.3" stroke-linecap="round" stroke-linejoin="round"/></svg><svg fill="none" viewBox="0 0 24 24" id="arrow_down" xmlns="http://www.w3.org/2000/svg"><path d="M18 9l-6 6-6-6" stroke="#404040" stroke-width="2" stroke-linecap="round" stroke-linejoin="round"/></svg><svg fill="none" viewBox="0 0 18 18" id="arrow_icon" xmlns="http://www.w3.org/2000/svg"><path d="M7.5 6l3 3-3 3" stroke="currentColor" stroke-width="1.3" stroke-linecap="round" stroke-linejoin="round"/></svg><svg fill="none" viewBox="0 0 18 18" id="arrow_white" xmlns="http://www.w3.org/2000/svg"><path d="M7.5 6l3 3-3 3" stroke="#fff" stroke-width="1.3" stroke-linecap="round" stroke-linejoin="round"/></svg><svg fill="none" viewBox="0 0 16 16" id="bi_info-circle" xmlns="http://www.w3.org/2000/svg"><g clip-path="url(#agclip0_767_8152)"><path d="M8 16A8 8 0 108-.001 8 8 0 008 16zm.93-9.412l-1 4.705c-.07.34.029.533.304.533.194 0 .487-.07.686-.246l-.088.416c-.287.346-.92.598-1.465.598-.703 0-1.002-.422-.808-1.319l.738-3.468c.064-.293.006-.399-.287-.47l-.451-.081.082-.381 2.289-.287zM8 5.5a1 1 0 110-2 1 1 0 010 2z" fill="#30B4FF"/></g><defs><clipPath id="agclip0_767_8152"><path fill="#fff" d="M0 0h16v16H0z"/></clipPath></defs></svg><svg fill="none" viewBox="0 0 18 18" id="book_icon" xmlns="http://www.w3.org/2000/svg"><path d="M9 7.35V15m0-7.65c0-1.26 0-1.89.245-2.371a2.25 2.25 0 01.984-.984c.48-.245 1.11-.245 2.37-.245h1.95c.42 0 .631 0 .791.082a.75.75 0 01.328.328c.082.16.082.37.082.79v6.6c0 .42 0 .63-.082.79a.75.75 0 01-.328.328c-.16.082-.37.082-.79.082h-2.123c-.705 0-1.057 0-1.377.097a2.25 2.25 0 00-.774.415c-.258.212-.454.505-.845 1.091L9 15m0-7.65c0-1.26 0-1.89-.245-2.371a2.25 2.25 0 00-.983-.984C7.29 3.75 6.66 3.75 5.4 3.75H3.45c-.42 0-.63 0-.79.082a.75.75 0 00-.328.328c-.082.16-.082.37-.082.79v6.6c0 .42 0 .63.082.79a.75.75 0 00.327.328c.16.082.371.082.791.082h2.123c.705 0 1.057 0 1.377.097.283.086.546.227.774.415.259.212.454.505.845 1.091L9 15" stroke="#30B4FF" stroke-width="1.5" stroke-linecap="round" stroke-linejoin="round"/></svg><svg fill="none" viewBox="0 0 16 16" id="calendar_days" xmlns="http://www.w3.org/2000/svg"><path d="M3.395 13.188l.295-.579-.295.58zm-.583-.583l-.58.296.58-.296zm10.376 0l-.579-.295.58.295zm-.583.583l-.295-.579.295.58zm0-10.376l.295-.579-.295.58zm.583.583l-.579.295.58-.295zm-9.793-.583l.295.58-.295-.58zm-.583.583l.58.295-.58-.295zm7.855 7.272v-.65a.65.65 0 00-.65.65h.65zm.001 0l.65.015a.65.65 0 00-.65-.665v.65zm0 .001l-.015.65a.65.65 0 00.665-.635l-.65-.015zm-.001 0h-.65a.65.65 0 00.634.65l.016-.65zM8 10.667v-.65a.65.65 0 00-.65.65H8zm.001 0l.65.015a.65.65 0 00-.65-.665v.65zm0 .001l-.015.65a.65.65 0 00.665-.635l-.65-.015zm0 0h-.65a.65.65 0 00.634.65l.015-.65zm-2.668-.001v-.65a.65.65 0 00-.65.65h.65zm.002 0l.65.015a.65.65 0 00-.65-.665v.65zm0 .001l-.016.65a.65.65 0 00.666-.635l-.65-.015zm-.002 0h-.65a.65.65 0 00.635.65l.015-.65zM10.668 8h.65a.65.65 0 00-.65-.65V8zm0 .002l-.015.65a.65.65 0 00.665-.65h-.65zm-.001 0h-.65a.65.65 0 00.634.65l.016-.65zm0-.002v-.65a.65.65 0 00-.65.65h.65zM8 8v-.65a.65.65 0 00-.65.65H8zm.001 0l.65.015a.65.65 0 00-.65-.665V8zm0 .002l-.015.65a.65.65 0 00.665-.635l-.65-.015zm0 0h-.65a.65.65 0 00.634.65L8 8.001zM5.332 8v-.65a.65.65 0 00-.65.65h.65zm.002 0l.65.015a.65.65 0 00-.65-.665V8zm0 .002l-.016.65a.65.65 0 00.666-.635l-.65-.015zm-.002 0h-.65a.65.65 0 00.635.65l.015-.65zM2.667 4.682a.65.65 0 100 1.3v-1.3zm10.666 1.3a.65.65 0 100-1.3v1.3zm-2.016-4.65a.65.65 0 10-1.3 0h1.3zm-1.3 1.334a.65.65 0 001.3 0h-1.3zM5.983 1.334a.65.65 0 10-1.3 0h1.3zm-1.3 1.333a.65.65 0 001.3 0h-1.3zm.117.65h6.4v-1.3H4.8v1.3zM12.683 4.8v6.4h1.3V4.8h-1.3zM11.2 12.684H4.8v1.3h6.4v-1.3zM3.317 11.2V4.8h-1.3v6.4h1.3zM4.8 12.684c-.384 0-.633-.001-.823-.016-.182-.015-.252-.04-.287-.059l-.59 1.158c.25.128.509.175.771.196.255.021.567.02.93.02v-1.3zM2.017 11.2c0 .363 0 .674.02.929.022.262.069.522.196.772l1.158-.59c-.018-.036-.043-.106-.058-.288-.016-.19-.016-.439-.016-.823h-1.3zM3.69 12.61a.683.683 0 01-.299-.299l-1.158.59c.19.374.493.677.867.867l.59-1.158zm8.993-1.409c0 .384 0 .633-.015.823-.015.182-.04.252-.059.287l1.158.59c.128-.249.175-.509.196-.771.021-.255.02-.566.02-.929h-1.3zM11.2 13.984c.363 0 .674 0 .929-.02a2.02 2.02 0 00.771-.197l-.59-1.158c-.036.018-.105.044-.287.059-.19.015-.439.016-.823.016v1.3zm1.41-1.674a.684.684 0 01-.3.299l.59 1.158c.373-.19.677-.493.867-.866l-1.158-.59zM11.2 3.317c.384 0 .633 0 .823.016.182.015.251.04.287.058l.59-1.158a2.02 2.02 0 00-.771-.196c-.255-.02-.566-.02-.929-.02v1.3zM13.983 4.8c0-.362.001-.674-.02-.928a2.019 2.019 0 00-.196-.772l-1.158.59c.018.036.044.105.059.287.015.19.015.439.015.823h1.3zM12.31 3.391c.129.066.234.17.3.299l1.157-.59a1.984 1.984 0 00-.867-.867l-.59 1.158zM4.8 2.017c-.362 0-.674 0-.929.02a2.02 2.02 0 00-.771.196l.59 1.158c.035-.018.105-.043.287-.058.19-.016.44-.016.823-.016v-1.3zM3.317 4.8c0-.384 0-.633.016-.823.015-.182.04-.251.058-.287L2.233 3.1a2.02 2.02 0 00-.196.771c-.02.255-.02.566-.02.93h1.3zM3.1 2.233c-.374.19-.677.494-.867.867l1.158.59a.683.683 0 01.299-.299L3.1 2.233zm7.567 9.084h.001v-1.3h-.001v1.3zm-.649-.665v.001l1.3.03v-.001l-1.3-.03zm.666-.634h-.002l-.03 1.3.032-1.3zm.633.65v-.001h-1.3v.001h1.3zM8 11.317h.001v-1.3 1.3zm-.648-.665v.001l1.3.03v-.001l-1.3-.03zm.665-.634h-.001l-.031 1.3.032-1.3zm.633.65v-.001h-1.3v.001h1.3zm-3.317.649h.002v-1.3h-.002v1.3zm-.648-.665v.001l1.3.03v-.001l-1.3-.03zm.665-.634H5.35l-.031 1.3h.001l.031-1.3zm.633.65v-.001h-1.3v.001h1.3zM10.018 8v.002h1.3V8h-1.3zm.666-.648h-.002l-.03 1.3.032-1.3zm.633.65V8h-1.3v.001h1.3zm-.65.648h.001v-1.3h-.001v1.3zM8 8.65h.001v-1.3 1.3zm-.648-.665v.001l1.3.03-1.3-.031zm.665-.633h-.001l-.031 1.3.032-1.3zm.633.65V8h-1.3v.001h1.3zm-3.317.648h.002v-1.3h-.002v1.3zm-.648-.665v.001l1.3.03-1.3-.031zm.665-.633H5.35l-.031 1.3h.001l.031-1.3zm.633.65V8h-1.3v.001h1.3zM2.667 5.982h10.666v-1.3H2.667v1.3zm7.35-4.65v1.334h1.3V1.334h-1.3zm-5.334 0v1.334h1.3V1.334h-1.3z" fill="#404040"/></svg><svg fill="none" viewBox="0 0 16 16" id="calendar_days_blue" xmlns="http://www.w3.org/2000/svg"><path d="M3.394 13.188l.296-.58-.296.58zm-.582-.583l-.58.295.58-.295zm10.376 0l-.579-.295.58.295zm-.583.583l-.295-.58.295.58zm0-10.376l.295-.58-.295.58zm.583.582l-.579.295.58-.295zm-9.794-.582l.296.579-.296-.58zm-.582.582l.58.295-.58-.295zm7.855 7.272v-.65a.65.65 0 00-.65.65h.65zm.001 0l.65.015a.65.65 0 00-.65-.665v.65zm0 .002l-.016.65a.65.65 0 00.666-.635l-.65-.015zm-.001 0h-.65a.65.65 0 00.634.65l.016-.65zM8 10.666v-.65a.65.65 0 00-.65.65H8zm.001 0l.65.015a.65.65 0 00-.65-.665v.65zm0 .002l-.015.65a.65.65 0 00.665-.635l-.65-.015zm-.001 0h-.65a.65.65 0 00.634.65l.016-.65zm-2.667-.002v-.65a.65.65 0 00-.65.65h.65zm.002 0l.65.015a.65.65 0 00-.65-.665v.65zm0 .002l-.016.65a.65.65 0 00.665-.635l-.65-.015zm-.002 0h-.65a.65.65 0 00.635.65l.015-.65zM10.668 8h.65a.65.65 0 00-.65-.65V8zm0 .001l-.016.65a.65.65 0 00.666-.65h-.65zm-.001 0h-.65a.65.65 0 00.634.65l.016-.65zm0-.001v-.65a.65.65 0 00-.65.65h.65zM8 8v-.65a.65.65 0 00-.65.65H8zm.001 0l.65.015a.65.65 0 00-.65-.665V8zm0 .001l-.015.65a.65.65 0 00.665-.635l-.65-.015zm-.001 0h-.65a.65.65 0 00.634.65L8 8zM5.333 8v-.65a.65.65 0 00-.65.65h.65zm.002 0l.65.015a.65.65 0 00-.65-.665V8zm0 .001l-.016.65a.65.65 0 00.665-.635l-.65-.015zm-.002 0h-.65a.65.65 0 00.635.65L5.333 8zM2.667 4.683a.65.65 0 100 1.3v-1.3zm10.666 1.3a.65.65 0 100-1.3v1.3zm-2.016-4.65a.65.65 0 10-1.3 0h1.3zm-1.3 1.333a.65.65 0 101.3 0h-1.3zM5.983 1.333a.65.65 0 10-1.3 0h1.3zm-1.3 1.333a.65.65 0 001.3 0h-1.3zm.117.65h6.4v-1.3H4.8v1.3zM12.683 4.8v6.4h1.3V4.8h-1.3zM11.2 12.683H4.8v1.3h6.4v-1.3zM3.317 11.2V4.8h-1.3v6.4h1.3zM4.8 12.683c-.384 0-.633 0-.823-.016-.182-.015-.252-.04-.287-.059l-.59 1.159c.249.127.509.174.771.196.255.02.566.02.93.02v-1.3zM2.017 11.2c0 .362 0 .673.02.928.021.263.069.523.196.772l1.158-.59c-.018-.036-.043-.105-.058-.287-.016-.19-.016-.44-.016-.823h-1.3zm1.673 1.409a.683.683 0 01-.299-.3l-1.158.591c.19.373.493.677.866.867l.59-1.159zm8.993-1.41c0 .385 0 .634-.016.824-.014.182-.04.251-.058.287l1.158.59c.127-.25.175-.51.196-.772.02-.255.02-.566.02-.928h-1.3zM11.2 13.984c.363 0 .674 0 .929-.02a2.02 2.02 0 00.771-.196l-.59-1.159c-.036.019-.105.044-.287.059-.19.015-.439.016-.823.016v1.3zm1.409-1.673a.684.684 0 01-.299.298l.59 1.159c.373-.19.677-.493.867-.867l-1.158-.59zM11.2 3.316c.384 0 .633 0 .823.016.182.015.251.04.287.059l.59-1.158a2.019 2.019 0 00-.771-.196c-.255-.021-.566-.02-.929-.02v1.3zM13.983 4.8c0-.363 0-.674-.02-.929a2.02 2.02 0 00-.196-.772l-1.158.59c.018.036.043.106.058.288.016.19.016.438.016.823h1.3zM12.31 3.39c.129.066.234.171.299.3l1.158-.59a1.984 1.984 0 00-.867-.867l-.59 1.158zM4.8 2.017c-.363 0-.674 0-.929.02a2.02 2.02 0 00-.772.197l.59 1.158c.036-.018.106-.044.288-.059.19-.015.439-.016.823-.016v-1.3zM3.317 4.8c0-.384 0-.633.016-.823.015-.182.04-.252.058-.288L2.233 3.1a2.02 2.02 0 00-.196.772c-.02.255-.02.566-.02.929h1.3zm-.218-2.567c-.373.19-.676.493-.866.866l1.158.59a.683.683 0 01.299-.298L3.1 2.233zm7.568 9.083h.001v-1.3h-.001v1.3zm-.649-.665v.002l1.3.03v-.002l-1.3-.03zm.665-.633l-.032 1.3h.001l.032-1.3zm.634.65v-.002h-1.3v.002h1.3zM8 11.316h.001v-1.3H8v1.3zm-.649-.665v.002l1.3.03v-.002l-1.3-.03zm.666-.633h-.001l-.032 1.3h.002l.03-1.3zm.633.65v-.002h-1.3v.002h1.3zm-3.317.648h.002v-1.3h-.002v1.3zm-.648-.665v.002l1.3.03v-.002l-1.3-.03zm.665-.633H5.35l-.031 1.3h.001l.031-1.3zm.633.65v-.002h-1.3v.002h1.3zM10.018 8V8h1.3V8h-1.3zm.665-.649l-.032 1.3h.001l.032-1.3zm.634.65V8h-1.3V8h1.3zm-.65.649v-1.3 1.3zM8 8.65h.001v-1.3H8v1.3zm-.649-.666v.002l1.3.03v-.001l-1.3-.03zm.666-.633h-.001l-.032 1.3h.002l.03-1.3zm.633.65V8h-1.3V8h1.3zm-3.317.649h.002v-1.3h-.002v1.3zm-.648-.666v.002l1.3.03v-.001l-1.3-.03zm.665-.633H5.35l-.031 1.3h.001l.031-1.3zm.633.65V8h-1.3V8h1.3zM2.667 5.983h10.666v-1.3H2.667v1.3zm7.35-4.65v1.333h1.3V1.333h-1.3zm-5.334 0v1.333h1.3V1.333h-1.3z" fill="#30B4FF"/></svg><svg fill="none" viewBox="0 0 18 18" id="calendar_icon" xmlns="http://www.w3.org/2000/svg"><path d="M12.6 4.2H5.4A2.4 2.4 0 003 6.6v6A2.4 2.4 0 005.4 15h7.2a2.4 2.4 0 002.4-2.4v-6a2.4 2.4 0 00-2.4-2.4zM6.602 3v2.4M11.398 3v2.4M3 7.8h12" stroke="#494949" stroke-linecap="round" stroke-linejoin="round"/></svg><svg fill="none" viewBox="0 0 24 24" id="check-icon" xmlns="http://www.w3.org/2000/svg"><path d="M8 12l3 3 6-6" stroke="#868686" stroke-width="1.5" stroke-linecap="round" stroke-linejoin="round"/></svg><svg fill="none" viewBox="0 0 8 7" id="checkbox" xmlns="http://www.w3.org/2000/svg"><path d="M3 6.273L.3 3.626l1.4-1.43L3 3.467 6.3.2l1.4 1.422L3 6.272z" fill="#fff"/></svg><svg fill="none" viewBox="0 0 18 18" id="clear-icon" xmlns="http://www.w3.org/2000/svg"><path d="M12.316 12.316L5.684 5.685m6.632 0l-6.632 6.631" stroke="#30B4FF" stroke-width="1.5" stroke-linecap="round" stroke-linejoin="round"/></svg><svg fill="none" viewBox="0 0 16 16" id="clock_green" xmlns="http://www.w3.org/2000/svg"><path d="M8 4.667V8h3.333M8 14A6 6 0 118 2a6 6 0 010 12z" stroke="#14C500" stroke-width="1.5" stroke-linecap="round" stroke-linejoin="round"/></svg><svg fill="none" viewBox="0 0 16 16" id="clock_red" xmlns="http://www.w3.org/2000/svg"><path d="M8 4.667V8h3.333M8 14A6 6 0 118 2a6 6 0 010 12z" stroke="#EC1B00" stroke-width="1.5" stroke-linecap="round" stroke-linejoin="round"/></svg><svg fill="none" viewBox="0 0 20 20" id="dislike" xmlns="http://www.w3.org/2000/svg"><path d="M13.767 4.708l-2.584-2c-.333-.333-1.083-.5-1.583-.5H6.433c-1 0-2.083.75-2.333 1.75l-2 6.083c-.417 1.167.333 2.167 1.583 2.167h3.334c.5 0 .916.417.833 1l-.417 2.667c-.166.75.334 1.583 1.084 1.833.666.25 1.5-.083 1.833-.583l3.417-5.084" stroke="#30B4FF" stroke-width="1.5" stroke-miterlimit="10"/><path d="M18.017 4.708v8.167c0 1.167-.5 1.583-1.667 1.583h-.833c-1.167 0-1.667-.416-1.667-1.583V4.708c0-1.166.5-1.583 1.667-1.583h.833c1.167 0 1.667.417 1.667 1.583z" stroke="#30B4FF" stroke-width="1.5" stroke-linecap="round" stroke-linejoin="round"/></svg><svg fill="none" viewBox="0 0 24 24" id="external_icon" xmlns="http://www.w3.org/2000/svg"><path d="M10 5.75a.75.75 0 000-1.5v1.5zM19.75 14a.75.75 0 00-1.5 0h1.5zm-1.842 4.782l-.34-.668.34.668zm.874-.874l-.668-.34.668.34zm-13.564 0l-.668.34.668-.34zm.874.874l.34-.668-.34.668zm0-13.564l.34.668-.34-.668zm-.874.874l.668.34-.668-.34zM19.25 9a.75.75 0 001.5 0h-1.5zM20 4h.75a.75.75 0 00-.75-.75V4zm-5-.75a.75.75 0 000 1.5v-1.5zm-2.53 7.22a.75.75 0 101.06 1.06l-1.06-1.06zM10 4.25H8.2v1.5H10v-1.5zM4.25 8.2v7.6h1.5V8.2h-1.5zM8.2 19.75h7.6v-1.5H8.2v1.5zm11.55-3.95V14h-1.5v1.8h1.5zm-3.95 3.95c.548 0 1.004 0 1.375-.03.38-.03.736-.098 1.073-.27l-.68-1.336c-.091.046-.229.088-.516.111-.295.024-.68.025-1.252.025v1.5zm2.45-3.95c0 .572 0 .957-.025 1.253-.023.287-.065.424-.111.514l1.337.681c.171-.337.238-.694.27-1.073.03-.372.029-.827.029-1.375h-1.5zm-.002 3.65a2.75 2.75 0 001.203-1.201l-1.337-.681a1.25 1.25 0 01-.547.546l.681 1.336zM4.25 15.8c0 .548 0 1.003.03 1.375.03.38.098.736.27 1.073l1.336-.68c-.046-.091-.088-.228-.111-.516-.024-.295-.025-.68-.025-1.252h-1.5zm3.95 2.45c-.572 0-.957 0-1.253-.025-.287-.023-.424-.065-.515-.111l-.68 1.336c.337.172.693.24 1.073.27.372.03.827.03 1.375.03v-1.5zm-3.65-.002c.263.518.684.938 1.201 1.202l.681-1.336a1.249 1.249 0 01-.546-.547l-1.336.681zM8.2 4.25c-.547 0-1.003 0-1.375.03-.38.03-.736.098-1.074.27l.681 1.336c.09-.046.228-.088.515-.111.296-.024.68-.025 1.253-.025v-1.5zM5.75 8.2c0-.572 0-.957.025-1.253.023-.287.065-.424.111-.514L4.55 5.752c-.172.337-.24.693-.27 1.073-.03.371-.03.827-.03 1.375h1.5zm.001-3.65A2.75 2.75 0 004.55 5.752l1.336.68a1.25 1.25 0 01.546-.546l-.68-1.336zM20.75 9V4h-1.5v5h1.5zM20 3.25h-5v1.5h5v-1.5zm-6.47 8.28l7-7-1.06-1.06-7 7 1.06 1.06z" fill="#30B4FF"/></svg><svg fill="none" viewBox="0 0 16 16" id="files_icon" xmlns="http://www.w3.org/2000/svg"><path d="M6.667 4v-.933c0-.374 0-.56.072-.703a.667.667 0 01.292-.291C7.173 2 7.36 2 7.733 2h3.158c.163 0 .245 0 .322.018a.668.668 0 01.193.08c.067.041.124.1.24.214l2.042 2.042c.115.116.172.173.214.24a.67.67 0 01.08.193c.018.077.018.158.018.321v5.825c0 .374 0 .56-.073.703a.665.665 0 01-.29.291c-.143.073-.33.073-.704.073h-3.6m0-4.667H7.066c-.373 0-.56 0-.702-.072a.666.666 0 01-.291-.292C6 6.827 6 6.64 6 6.267V4m8 1.333h-2.267c-.373 0-.56 0-.702-.072a.667.667 0 01-.292-.292c-.072-.142-.072-.329-.072-.702V2M9.333 12.933V7.108c0-.163 0-.244-.018-.32a.667.667 0 00-.08-.194 1.422 1.422 0 00-.214-.24L6.979 4.312c-.115-.115-.173-.173-.24-.214a.668.668 0 00-.193-.08C6.469 4 6.388 4 6.225 4H3.066c-.373 0-.56 0-.702.073a.667.667 0 00-.291.291C2 4.507 2 4.694 2 5.067v7.866c0 .374 0 .56.073.703a.666.666 0 00.29.291c.144.073.33.073.703.073h5.2c.374 0 .561 0 .704-.073a.665.665 0 00.29-.291c.073-.143.073-.33.073-.703z" stroke="#404040" stroke-linecap="round" stroke-linejoin="round"/></svg><svg fill="none" viewBox="0 0 16 16" id="global_icon" xmlns="http://www.w3.org/2000/svg"><path d="M2 8.5h12v-1H2v1zm6 5A5.5 5.5 0 012.5 8h-1A6.5 6.5 0 008 14.5v-1zM2.5 8A5.5 5.5 0 018 2.5v-1A6.5 6.5 0 001.5 8h1zM8 2.5A5.5 5.5 0 0113.5 8h1A6.5 6.5 0 008 1.5v1zM13.5 8A5.5 5.5 0 018 13.5v1A6.5 6.5 0 0014.5 8h-1zM8 13.5c-.205 0-.439-.092-.693-.334-.257-.244-.511-.622-.736-1.126-.448-1.009-.738-2.436-.738-4.04h-1c0 1.71.307 3.282.824 4.446.259.58.58 1.082.96 1.445.384.365.852.609 1.383.609v-1zM5.833 8c0-1.604.29-3.031.738-4.04.225-.504.479-.882.736-1.126.254-.242.487-.334.693-.334v-1c-.53 0-.999.244-1.383.61-.38.362-.701.863-.96 1.444C5.14 4.718 4.833 6.29 4.833 8h1zM8 2.5c.206 0 .439.092.693.334.257.244.511.622.736 1.126.448 1.009.738 2.436.738 4.04h1c0-1.71-.307-3.282-.825-4.446-.258-.58-.578-1.082-.96-1.445C9 1.744 8.532 1.5 8 1.5v1zM10.167 8c0 1.604-.29 3.031-.738 4.04-.225.504-.479.882-.736 1.126-.254.242-.487.334-.693.334v1c.53 0 .999-.244 1.383-.61.38-.362.701-.863.96-1.444.517-1.164.824-2.736.824-4.446h-1z" fill="#404040"/></svg><svg class="aufill" fill="none" viewBox="0 0 16 16" id="icon-box" xmlns="http://www.w3.org/2000/svg"><path d="M6.923 1.378a3 3 0 012.154 0l4.962 1.908a1.5 1.5 0 01.961 1.4v6.626a1.5 1.5 0 01-.961 1.4l-4.962 1.909a3 3 0 01-2.154 0l-4.961-1.909a1.5 1.5 0 01-.962-1.4V4.686a1.5 1.5 0 01.962-1.4l4.961-1.908zm1.795.933a2 2 0 00-1.436 0l-1.384.533 5.59 2.116 1.948-.834L8.718 2.31v.001zM14 4.971L8.5 7.33v6.428c.074-.019.146-.042.218-.07l4.962-1.908a.5.5 0 00.32-.467V4.971zm-6.5 8.786V7.33L2 4.972v6.34a.5.5 0 00.32.467l4.962 1.908c.072.028.144.051.218.07zM2.564 4.126L8 6.456l2.164-.928-5.667-2.146-1.933.744z" fill="currentColor"/></svg><svg class="avfill" fill="none" viewBox="0 0 16 16" id="icon-check" xmlns="http://www.w3.org/2000/svg"><path d="M5.804 7.853a.665.665 0 10-.94.94l.94-.94zm2.358 3.299l-.47.47a.665.665 0 00.94 0l-.47-.47zm6.127-5.187a.665.665 0 00-.94-.94l.94.94zM2.47 7.853a.665.665 0 00-.94.94l.94-.94zm1.888 3.77a.665.665 0 00.94-.941l-.94.94zm6.6-5.66a.665.665 0 10-.945-.936l.945.936zM7.86 7.2a.665.665 0 00.945.936l-.945-.936zM4.863 8.794l2.829 2.828.94-.94-2.828-2.829-.94.94zm3.769 2.828l5.657-5.657-.94-.94-5.657 5.657.94.94zM1.53 8.794l2.828 2.828.94-.94L2.47 7.853l-.94.94zm8.483-3.767L7.86 7.199l.945.936 2.152-2.172-.945-.936z" fill="currentColor"/></svg><svg class="awstroke" fill="none" viewBox="0 0 16 16" id="icon-cross" xmlns="http://www.w3.org/2000/svg"><path d="M7.49 1.583c-.245.101-.465.32-.904.76-.44.44-.659.66-.76.904a1.333 1.333 0 000 1.02c.101.246.32.465.76.905h0c.44.439.659.659.904.76.327.135.694.135 1.02 0 .245-.102.465-.321.904-.76.44-.44.66-.66.76-.904a1.334 1.334 0 000-1.02c-.1-.246-.32-.466-.76-.905h0c-.439-.44-.659-.659-.904-.76a1.333 1.333 0 00-1.02 0zM3.247 5.825c-.245.102-.465.322-.904.76h0c-.44.44-.659.66-.76.905a1.333 1.333 0 000 1.02c.101.245.32.465.76.904h0c.44.44.66.66.904.76.327.136.694.136 1.02 0 .246-.1.465-.32.905-.76.439-.44.658-.659.76-.904a1.333 1.333 0 000-1.02c-.102-.245-.321-.465-.76-.904h0c-.44-.44-.66-.66-.904-.76a1.333 1.333 0 00-1.02 0zM11.733 5.825c-.245.102-.465.322-.904.76-.44.44-.66.66-.76.905a1.333 1.333 0 000 1.02c.1.245.32.465.76.904h0c.44.44.659.66.904.76.326.136.694.136 1.02 0 .245-.1.465-.32.904-.76.44-.44.66-.659.76-.904a1.334 1.334 0 000-1.02c-.1-.245-.32-.465-.76-.904h0c-.44-.44-.659-.66-.904-.76a1.334 1.334 0 00-1.02 0zM7.49 10.068c-.245.101-.465.321-.904.76-.44.44-.659.66-.76.904a1.333 1.333 0 000 1.02c.101.246.32.466.76.905h0c.44.44.659.659.904.76.327.136.694.136 1.02 0 .245-.101.465-.32.904-.76.44-.44.66-.659.76-.904a1.334 1.334 0 000-1.02c-.1-.246-.32-.465-.76-.904h0c-.439-.44-.659-.66-.904-.761a1.334 1.334 0 00-1.02 0z" stroke="currentColor" stroke-width="1.3" stroke-linecap="round" stroke-linejoin="round"/></svg><svg class="axstroke" fill="none" viewBox="0 0 16 16" id="icon-doc" xmlns="http://www.w3.org/2000/svg"><path d="M6 11.333h4m-4-2h4M12.666 6H9.733c-.373 0-.56 0-.702-.073a.666.666 0 01-.292-.291c-.072-.143-.072-.33-.072-.703V2m4 9.867V6.436c0-.309 0-.464-.034-.61a1.335 1.335 0 00-.144-.37c-.075-.13-.18-.243-.39-.47L9.967 2.685c-.234-.252-.35-.378-.49-.468a1.335 1.335 0 00-.4-.175C8.917 2 8.745 2 8.4 2H5.467c-.747 0-1.12 0-1.406.145-.25.128-.455.332-.582.583-.146.285-.146.659-.146 1.405v7.734c0 .746 0 1.12.146 1.405.127.25.331.455.582.583.285.145.66.145 1.406.145h5.067c.746 0 1.12 0 1.404-.145.251-.128.456-.332.583-.583.146-.285.146-.659.146-1.405z" stroke="currentColor" stroke-width="1.3" stroke-linecap="round" stroke-linejoin="round"/></svg><svg fill="none" viewBox="0 0 20 20" id="icon-eye" xmlns="http://www.w3.org/2000/svg"><path fill-rule="evenodd" clip-rule="evenodd" d="M3.707 2.293a1 1 0 00-1.414 1.414l14 14a1 1 0 001.414-1.414l-1.473-1.473A10.014 10.014 0 0019.542 10C18.268 5.943 14.478 3 10 3a9.958 9.958 0 00-4.512 1.074l-1.78-1.781zm4.261 4.26l1.514 1.515a2.003 2.003 0 012.45 2.45l1.514 1.514a4 4 0 00-5.478-5.48z" fill="#D6D6D6"/><path d="M12.454 16.697L9.75 13.992a4 4 0 01-3.742-3.741L2.335 6.578A9.98 9.98 0 00.458 10c1.274 4.057 5.065 7 9.542 7 .847 0 1.669-.105 2.454-.303z" fill="#D6D6D6"/></svg><svg viewBox="0 0 512 512" id="icon-eye-1" xmlns="http://www.w3.org/2000/svg"><path class="azcls-1" d="M487.89 199.33C436.24 151.11 351.62 89.6 256 89.6S75.76 151.11 24.11 199.33c-32.15 30-32.15 83.32 0 113.33C75.76 360.89 160.38 422.4 256 422.4s180.24-61.51 231.89-109.73c32.11-30.02 32.11-83.32 0-113.34zM256 371.2A115.2 115.2 0 11371.2 256 115.2 115.2 0 01256 371.2zM320 256a64 64 0 11-64-64 64 64 0 0164 64zM243.2 38.4V12.8a12.8 12.8 0 1125.6 0v25.6a12.8 12.8 0 11-25.6 0zM93.35 60.25a12.8 12.8 0 0118.1-18.1l25.6 25.6a12.8 12.8 0 11-18.1 18.1zm294.4 25.6a12.8 12.8 0 010-18.1l25.6-25.6a12.8 12.8 0 0118.1 18.1l-25.6 25.6a12.8 12.8 0 01-18.1 0zM268.8 473.6v25.6a12.8 12.8 0 11-25.6 0v-25.6a12.8 12.8 0 1125.6 0zm-131.75-47.45a12.8 12.8 0 010 18.1l-25.6 25.6a12.8 12.8 0 01-18.1-18.1l25.6-25.6a12.8 12.8 0 0118.1 0zm294.4 25.6a12.8 12.8 0 11-18.1 18.1l-25.6-25.6a12.8 12.8 0 1118.1-18.1z"/></svg><svg fill="none" viewBox="0 0 24 24" id="icon-info" xmlns="http://www.w3.org/2000/svg"><path d="M21.56 10.74l-1.35-1.58c-.25-.3-.46-.86-.46-1.26V6.2c0-1.06-.87-1.93-1.93-1.93h-1.7c-.4 0-.97-.21-1.27-.46l-1.58-1.35c-.69-.59-1.82-.59-2.51 0l-1.6 1.35c-.3.25-.86.46-1.26.46H6.17c-1.06 0-1.93.87-1.93 1.93v1.7c0 .39-.2.95-.45 1.25l-1.35 1.59c-.58.7-.58 1.82 0 2.5l1.35 1.59c.25.29.45.86.45 1.25v1.71c0 1.06.87 1.93 1.93 1.93h1.74c.39 0 .96.21 1.26.46l1.58 1.35c.69.59 1.82.59 2.51 0l1.58-1.35c.3-.25.86-.46 1.26-.46h1.7c1.06 0 1.93-.87 1.93-1.93v-1.7c0-.4.21-.96.46-1.26l1.35-1.58c.61-.68.61-1.81.02-2.51zM11.25 8.13c0-.41.34-.75.75-.75s.75.34.75.75v4.83c0 .41-.34.75-.75.75s-.75-.34-.75-.75V8.13zm.75 8.74c-.55 0-1-.45-1-1s.44-1 1-1c.55 0 1 .45 1 1s-.44 1-1 1z" fill="#30B4FF"/></svg><svg class="bbfill" fill="none" viewBox="0 0 24 24" id="icon-link" xmlns="http://www.w3.org/2000/svg"><path d="M10 5.75a.75.75 0 000-1.5v1.5zM19.75 14a.75.75 0 00-1.5 0h1.5zm-1.842 4.782l-.34-.668.34.668zm.874-.874l-.668-.34.668.34zm-13.564 0l-.668.34.668-.34zm.874.874l.34-.668-.34.668zm0-13.564l.34.668-.34-.668zm-.874.874l.668.34-.668-.34zM19.25 9a.75.75 0 001.5 0h-1.5zM20 4h.75a.75.75 0 00-.75-.75V4zm-5-.75a.75.75 0 000 1.5v-1.5zm-2.53 7.22a.75.75 0 101.06 1.06l-1.06-1.06zM10 4.25H8.2v1.5H10v-1.5zM4.25 8.2v7.6h1.5V8.2h-1.5zM8.2 19.75h7.6v-1.5H8.2v1.5zm11.55-3.95V14h-1.5v1.8h1.5zm-3.95 3.95c.548 0 1.004 0 1.375-.03.38-.03.736-.098 1.073-.27l-.68-1.336c-.091.046-.229.088-.516.111-.295.024-.68.025-1.252.025v1.5zm2.45-3.95c0 .572 0 .957-.025 1.253-.023.287-.065.424-.111.514l1.337.681c.171-.337.238-.694.27-1.073.03-.372.029-.827.029-1.375h-1.5zm-.002 3.65a2.75 2.75 0 001.203-1.201l-1.337-.681a1.25 1.25 0 01-.547.546l.681 1.336zM4.25 15.8c0 .548 0 1.003.03 1.375.03.38.098.736.27 1.073l1.336-.68c-.046-.091-.088-.228-.111-.516-.024-.295-.025-.68-.025-1.252h-1.5zm3.95 2.45c-.572 0-.957 0-1.253-.025-.287-.023-.424-.065-.515-.111l-.68 1.336c.337.172.693.24 1.073.27.372.03.827.03 1.375.03v-1.5zm-3.65-.002c.263.518.684.938 1.201 1.202l.681-1.336a1.249 1.249 0 01-.546-.547l-1.336.681zM8.2 4.25c-.547 0-1.003 0-1.375.03-.38.03-.736.098-1.074.27l.681 1.336c.09-.046.228-.088.515-.111.296-.024.68-.025 1.253-.025v-1.5zM5.75 8.2c0-.572 0-.957.025-1.253.023-.287.065-.424.111-.514L4.55 5.752c-.172.337-.24.693-.27 1.073-.03.371-.03.827-.03 1.375h1.5zm.001-3.65A2.75 2.75 0 004.55 5.752l1.336.68a1.25 1.25 0 01.546-.546l-.68-1.336zM20.75 9V4h-1.5v5h1.5zM20 3.25h-5v1.5h5v-1.5zm-6.47 8.28l7-7-1.06-1.06-7 7 1.06 1.06z" fill="currentColor"/></svg><svg class="bcstroke" fill="none" viewBox="0 0 24 24" id="icon-phone" xmlns="http://www.w3.org/2000/svg"><path d="M9.503 4.257A2 2 0 007.646 3H4.895A1.895 1.895 0 003 4.895C3 13.79 10.21 21 19.105 21A1.894 1.894 0 0021 19.105v-2.751a2 2 0 00-1.257-1.857l-2.636-1.054a2 2 0 00-2.023.32l-.68.568a2 2 0 01-2.695-.122L9.79 12.29a2 2 0 01-.122-2.694l.568-.681a2 2 0 00.32-2.023L9.503 4.257z" stroke="currentColor" stroke-width="1.5" stroke-linecap="round" stroke-linejoin="round"/></svg><svg fill="none" viewBox="0 0 16 16" id="icon-pin" xmlns="http://www.w3.org/2000/svg"><path d="M3 6.681c0 3.281 3.032 5.994 4.374 7.034h0c.193.15.289.225.432.263.112.03.276.03.388 0 .143-.039.24-.113.432-.263C9.968 12.675 13 9.962 13 6.681c0-1.241-.527-2.432-1.464-3.31C10.598 2.493 9.326 2 8 2s-2.598.493-3.536 1.371C3.527 4.25 3 5.44 3 6.681z" stroke="currentColor" stroke-linecap="round" stroke-linejoin="round"/><circle cx="8" cy="6" r="1.5" stroke="currentColor"/></svg><svg fill="none" viewBox="0 0 16 16" id="icon-plus" xmlns="http://www.w3.org/2000/svg"><path d="M4 8h8M8 12V4" stroke="#30B4FF" stroke-width="1.5" stroke-linecap="round" stroke-linejoin="round"/></svg><svg class="bfstroke" fill="none" viewBox="0 0 16 16" id="icon-star" xmlns="http://www.w3.org/2000/svg"><path d="M2.098 6.894c-.19-.186-.087-.52.172-.553l3.665-.456a.307.307 0 00.242-.184l1.546-3.515a.3.3 0 01.554 0l1.547 3.515c.044.101.135.171.24.184l3.666.456c.259.032.363.367.172.553l-2.71 2.628a.33.33 0 00-.092.298l.719 3.797c.05.268-.221.475-.449.341l-3.22-1.89a.293.293 0 00-.299 0l-3.221 1.89c-.227.134-.5-.073-.449-.341l.72-3.797a.33.33 0 00-.092-.298l-2.71-2.628z" stroke="currentColor" stroke-width="1.3" stroke-linecap="round" stroke-linejoin="round"/></svg><svg fill="none" viewBox="0 0 40 40" id="icon-zoom" xmlns="http://www.w3.org/2000/svg"><path fill-rule="evenodd" clip-rule="evenodd" d="M8 19.256a11.258 11.258 0 1120.052 7.027l4.597 4.597a1.251 1.251 0 01-1.769 1.769l-4.596-4.597A11.256 11.256 0 018 19.256zm11.257-5.003a1.25 1.25 0 011.25 1.25v2.502h2.502a1.25 1.25 0 110 2.502h-2.501v2.502a1.25 1.25 0 11-2.502 0v-2.502h-2.501a1.25 1.25 0 110-2.502h2.501v-2.501a1.25 1.25 0 011.25-1.251z" fill="#fff" fill-opacity=".6"/></svg><svg fill="none" viewBox="0 0 16 16" id="info-circle" xmlns="http://www.w3.org/2000/svg"><path d="M8 14.666c3.667 0 6.667-3 6.667-6.666 0-3.667-3-6.667-6.667-6.667S1.333 4.333 1.333 8c0 3.666 3 6.666 6.667 6.666zM8 5.333v3.333" stroke="#B76E00" stroke-width="1.5" stroke-linecap="round" stroke-linejoin="round"/><path fill-rule="evenodd" clip-rule="evenodd" d="M7.996 10.667h.006-.006z" fill="#B76E00"/><path d="M7.996 10.667h.006" stroke="#B76E00" stroke-width="2" stroke-linecap="round" stroke-linejoin="round"/></svg><svg fill="none" viewBox="0 0 16 16" id="info_circle" xmlns="http://www.w3.org/2000/svg"><path d="M8 14.666c3.667 0 6.667-3 6.667-6.666 0-3.667-3-6.667-6.667-6.667S1.333 4.333 1.333 8c0 3.666 3 6.666 6.667 6.666zM8 5.333v3.333" stroke="#30B4FF" stroke-width="1.5" stroke-linecap="round" stroke-linejoin="round"/><path d="M7.996 10.667h.006" stroke="#30B4FF" stroke-width="2" stroke-linecap="round" stroke-linejoin="round"/></svg><svg fill="none" viewBox="0 0 20 20" id="like" xmlns="http://www.w3.org/2000/svg"><path d="M6.233 15.292l2.584 2c.333.333 1.083.5 1.583.5h3.167c1 0 2.083-.75 2.333-1.75l2-6.083c.417-1.167-.333-2.167-1.583-2.167h-3.334c-.5 0-.916-.417-.833-1l.417-2.667c.166-.75-.334-1.583-1.084-1.833-.666-.25-1.5.083-1.833.583L6.233 7.96" stroke="#30B4FF" stroke-width="1.5" stroke-miterlimit="10"/><path d="M1.983 15.292V7.125c0-1.166.5-1.583 1.667-1.583h.833c1.167 0 1.667.417 1.667 1.583v8.167c0 1.167-.5 1.583-1.667 1.583H3.65c-1.167 0-1.667-.416-1.667-1.583z" stroke="#30B4FF" stroke-width="1.5" stroke-linecap="round" stroke-linejoin="round"/></svg><svg fill="none" viewBox="0 0 18 18" id="list_icon" xmlns="http://www.w3.org/2000/svg"><path d="M6.75 12.75h7.5M6.75 9h7.5m-7.5-3.75h7.5m-10.499 7.5v.002H3.75v-.002h.001zm0-3.75v.002H3.75V9h.001zm0-3.75v.002H3.75V5.25h.001z" stroke="#30B4FF" stroke-width="1.3" stroke-linecap="round" stroke-linejoin="round"/></svg><svg fill="none" viewBox="0 0 18 18" id="map" xmlns="http://www.w3.org/2000/svg"><g clip-path="url(#blclip0_673_3333)" fill="#30B4FF"><path d="M5.723 2.677c.134-.073.277.04.277.193v10.15c0 .177-.122.327-.277.412L3.96 14.437c-1.23.705-2.242.12-2.242-1.305V5.835c0-.473.337-1.058.757-1.298l3.248-1.86zM10.972 4.543a.5.5 0 01.278.448v9.588a.5.5 0 01-.717.45l-2.938-1.415a.5.5 0 01-.282-.45V3.536a.5.5 0 01.721-.448l2.938 1.455zM16.5 4.868v7.297c0 .473-.337 1.058-.758 1.298l-2.43 1.393a.5.5 0 01-.75-.434V4.82a.5.5 0 01.253-.434l1.443-.823c1.23-.705 2.242-.12 2.242 1.305z"/></g><defs><clipPath id="blclip0_673_3333"><path fill="#fff" d="M0 0h18v18H0z"/></clipPath></defs></svg><svg fill="none" viewBox="0 0 16 16" id="map_pin" xmlns="http://www.w3.org/2000/svg"><path d="M3 6.681c0 3.281 3.032 5.994 4.374 7.034h0c.193.15.289.225.432.263.112.03.276.03.388 0 .143-.039.24-.113.432-.263C9.968 12.675 13 9.962 13 6.681c0-1.241-.527-2.432-1.464-3.31C10.598 2.493 9.326 2 8 2s-2.598.493-3.536 1.371C3.527 4.25 3 5.44 3 6.681z" stroke="#404040" stroke-linecap="round" stroke-linejoin="round"/><circle cx="8" cy="6" r="1.5" stroke="#404040"/></svg><svg fill="none" viewBox="0 0 19 18" id="map_white" xmlns="http://www.w3.org/2000/svg"><g clip-path="url(#bnclip0_830_6881)" fill="#fff"><path d="M6.223 2.677c.134-.073.277.04.277.193v10.15c0 .177-.122.327-.277.412L4.46 14.437c-1.23.705-2.242.12-2.242-1.305V5.835c0-.473.337-1.058.757-1.298l3.248-1.86zM11.472 4.543a.5.5 0 01.278.448v9.588a.5.5 0 01-.717.45l-2.938-1.415a.5.5 0 01-.283-.45V3.536a.5.5 0 01.722-.448l2.938 1.455zM17 4.868v7.297c0 .473-.337 1.058-.758 1.298l-2.43 1.393a.5.5 0 01-.75-.434V4.82a.5.5 0 01.253-.434l1.443-.823C15.988 2.858 17 3.443 17 4.868z"/></g><defs><clipPath id="bnclip0_830_6881"><path fill="#fff" transform="translate(.5)" d="M0 0h18v18H0z"/></clipPath></defs></svg><svg fill="none" viewBox="0 0 24 24" id="menu_vertical" xmlns="http://www.w3.org/2000/svg"><path d="M11 18a1 1 0 102 0 1 1 0 00-2 0zM11 12a1 1 0 102 0 1 1 0 00-2 0zM11 6a1 1 0 102 0 1 1 0 00-2 0z" stroke="#E2E3E5" stroke-width="2" stroke-linecap="round" stroke-linejoin="round"/></svg><svg fill="none" viewBox="0 0 16 16" id="mingcute_box" xmlns="http://www.w3.org/2000/svg"><g clip-path="url(#bpclip0_545_1664)"><path fill-rule="evenodd" clip-rule="evenodd" d="M8.837 1.712l4.196 2.422a1.667 1.667 0 01.833 1.444v4.845a1.667 1.667 0 01-.833 1.443L8.837 14.29a1.667 1.667 0 01-1.667 0l-4.196-2.423a1.666 1.666 0 01-.833-1.443V5.578a1.667 1.667 0 01.833-1.444L7.17 1.712a1.667 1.667 0 011.667 0zM3.474 6.155v4.268a.334.334 0 00.167.289l3.696 2.133V8.374l-3.863-2.22zm9.059 0L8.67 8.374v4.472l3.696-2.134a.332.332 0 00.161-.23l.006-.058v-4.27zM7.837 2.867L4.14 5l3.696 2.134a.333.333 0 00.333 0L11.866 5 8.17 2.866a.333.333 0 00-.333 0z" fill="#404040"/></g><defs><clipPath id="bpclip0_545_1664"><path fill="#fff" d="M0 0h16v16H0z"/></clipPath></defs></svg><svg fill="none" viewBox="0 0 16 16" id="mingcute_box_blue" xmlns="http://www.w3.org/2000/svg"><g clip-path="url(#bqclip0_804_4007)"><path fill-rule="evenodd" clip-rule="evenodd" d="M8.837 1.712l4.196 2.422a1.667 1.667 0 01.833 1.444v4.845a1.667 1.667 0 01-.833 1.443L8.837 14.29a1.667 1.667 0 01-1.667 0l-4.196-2.423a1.666 1.666 0 01-.833-1.443V5.578a1.667 1.667 0 01.833-1.444L7.17 1.712a1.667 1.667 0 011.667 0zM3.474 6.155v4.268a.334.334 0 00.167.289l3.696 2.133V8.374l-3.863-2.22zm9.059 0L8.67 8.374v4.472l3.696-2.134a.332.332 0 00.161-.23l.006-.058v-4.27zM7.837 2.867L4.14 5l3.696 2.134a.333.333 0 00.333 0L11.866 5 8.17 2.866a.333.333 0 00-.333 0z" fill="#30B4FF"/></g><defs><clipPath id="bqclip0_804_4007"><path fill="#fff" d="M0 0h16v16H0z"/></clipPath></defs></svg><svg fill="none" viewBox="0 0 16 16" id="mingcute_coin" xmlns="http://www.w3.org/2000/svg"><g clip-path="url(#brclip0_545_1670)"><path d="M8 2c1.543 0 2.97.272 4.039.74.532.233 1.006.527 1.354.889.324.333.564.752.602 1.237L14 5v6.667c0 .542-.254 1.006-.607 1.371-.348.361-.822.656-1.354.89-1.068.466-2.496.739-4.039.739-1.543 0-2.97-.272-4.039-.74-.532-.233-1.006-.528-1.354-.889-.324-.333-.564-.752-.602-1.237L2 11.667V5c0-.543.254-1.007.607-1.371.348-.362.822-.656 1.354-.89C5.03 2.273 6.457 2 8 2zm4.667 8.271a5.422 5.422 0 01-.628.323c-1.068.467-2.496.74-4.039.74-1.543 0-2.97-.273-4.039-.74a5.419 5.419 0 01-.628-.323v1.396c0 .101.044.25.232.444.191.198.499.406.931.595.863.377 2.1.627 3.504.627 1.403 0 2.641-.25 3.504-.627.432-.19.74-.397.93-.595.189-.193.233-.343.233-.444V10.27zm0-3.333a5.423 5.423 0 01-.628.323C10.97 7.727 9.543 8 8 8c-1.543 0-2.97-.272-4.039-.74a5.415 5.415 0 01-.628-.322v1.395c0 .102.044.251.232.445.191.197.499.405.931.595C5.359 9.75 6.596 10 8 10c1.403 0 2.641-.25 3.504-.627.432-.19.74-.398.93-.595.189-.193.233-.343.233-.445V6.938zM8 3.333c-1.403 0-2.641.25-3.504.628-.432.189-.74.397-.93.594-.189.194-.233.344-.233.445 0 .101.044.25.232.445.191.197.499.405.931.594.863.378 2.1.628 3.504.628 1.403 0 2.641-.25 3.504-.628.432-.189.74-.397.93-.594.189-.194.233-.344.233-.445 0-.101-.044-.25-.232-.445-.191-.197-.499-.405-.931-.594-.863-.378-2.1-.628-3.504-.628z" fill="#404040"/></g><defs><clipPath id="brclip0_545_1670"><path fill="#fff" d="M0 0h16v16H0z"/></clipPath></defs></svg><svg fill="none" viewBox="0 0 16 16" id="mingcute_coin_blue" xmlns="http://www.w3.org/2000/svg"><g clip-path="url(#bsclip0_804_4011)"><path d="M8 2c1.543 0 2.97.272 4.039.74.532.233 1.006.527 1.354.889.324.333.564.752.602 1.237L14 5v6.667c0 .542-.254 1.006-.607 1.371-.348.361-.822.656-1.354.89-1.068.466-2.496.739-4.039.739-1.543 0-2.97-.272-4.039-.74-.532-.233-1.006-.528-1.354-.889-.324-.333-.564-.752-.602-1.237L2 11.667V5c0-.543.254-1.007.607-1.371.348-.362.822-.656 1.354-.89C5.03 2.273 6.457 2 8 2zm4.667 8.271a5.422 5.422 0 01-.628.323c-1.068.467-2.496.74-4.039.74-1.543 0-2.97-.273-4.039-.74a5.419 5.419 0 01-.628-.323v1.396c0 .101.044.25.232.444.191.198.499.406.931.595.863.377 2.1.627 3.504.627 1.403 0 2.641-.25 3.504-.627.432-.19.74-.397.93-.595.189-.193.233-.343.233-.444V10.27zm0-3.333a5.423 5.423 0 01-.628.323C10.97 7.727 9.543 8 8 8c-1.543 0-2.97-.272-4.039-.74a5.415 5.415 0 01-.628-.322v1.395c0 .102.044.251.232.445.191.197.499.405.931.595C5.359 9.75 6.596 10 8 10c1.403 0 2.641-.25 3.504-.627.432-.19.74-.398.93-.595.189-.193.233-.343.233-.445V6.938zM8 3.333c-1.403 0-2.641.25-3.504.628-.432.189-.74.397-.93.594-.189.194-.233.344-.233.445 0 .101.044.25.232.445.191.197.499.405.931.594.863.378 2.1.628 3.504.628 1.403 0 2.641-.25 3.504-.628.432-.189.74-.397.93-.594.189-.194.233-.344.233-.445 0-.101-.044-.25-.232-.445-.191-.197-.499-.405-.931-.594-.863-.378-2.1-.628-3.504-.628z" fill="#30B4FF"/></g><defs><clipPath id="bsclip0_804_4011"><path fill="#fff" d="M0 0h16v16H0z"/></clipPath></defs></svg><svg fill="none" viewBox="0 0 16 16" id="pin_blue" xmlns="http://www.w3.org/2000/svg"><path d="M3 6.681c0 3.281 3.032 5.994 4.374 7.034h0c.193.15.289.225.432.263.112.03.276.03.388 0 .143-.039.24-.113.432-.263C9.968 12.675 13 9.962 13 6.681c0-1.241-.527-2.432-1.464-3.31C10.598 2.493 9.326 2 8 2s-2.598.493-3.536 1.371C3.527 4.25 3 5.44 3 6.681z" stroke="#30B4FF" stroke-linecap="round" stroke-linejoin="round"/><circle cx="8" cy="6" r="1.5" stroke="#30B4FF"/></svg><svg fill="none" viewBox="0 0 18 18" id="routing" xmlns="http://www.w3.org/2000/svg"><g clip-path="url(#buclip0_901_2703)" fill="#30B4FF"><path d="M6.66 3.45c-.6-2.595-4.507-2.602-5.107 0-.353 1.523.615 2.813 1.455 3.615a1.61 1.61 0 002.197 0c.84-.802 1.8-2.092 1.455-3.615zm-2.527 1.2a.752.752 0 01-.75-.75c0-.412.33-.75.742-.75h.008c.42 0 .75.338.75.75 0 .413-.33.75-.75.75zM16.433 12.45c-.6-2.595-4.523-2.602-5.13 0-.353 1.523.614 2.813 1.462 3.615a1.62 1.62 0 002.205 0c.848-.803 1.815-2.093 1.463-3.615zm-2.535 1.2a.752.752 0 01-.75-.75c0-.412.33-.75.742-.75h.008c.412 0 .75.338.75.75s-.338.75-.75.75zM9 14.813H6.99c-.87 0-1.628-.526-1.928-1.336a2.05 2.05 0 01.57-2.28l5.993-5.242a.93.93 0 00.262-1.035.922.922 0 00-.877-.607H9a.567.567 0 01-.563-.563c0-.308.255-.563.563-.563h2.01c.87 0 1.627.526 1.928 1.336a2.05 2.05 0 01-.57 2.28l-5.993 5.242a.93.93 0 00-.263 1.035.922.922 0 00.878.607H9c.307 0 .562.256.562.563a.567.567 0 01-.562.563z"/></g><defs><clipPath id="buclip0_901_2703"><path fill="#fff" d="M0 0h18v18H0z"/></clipPath></defs></svg><svg fill="none" viewBox="0 0 18 18" id="routing_white" xmlns="http://www.w3.org/2000/svg"><g clip-path="url(#bvclip0_767_8640)" fill="#fff"><path d="M6.66 3.45c-.6-2.596-4.507-2.603-5.107 0-.353 1.522.615 2.812 1.455 3.614a1.61 1.61 0 002.197 0c.84-.802 1.8-2.092 1.455-3.615zm-2.527 1.2a.752.752 0 01-.75-.75c0-.413.33-.75.742-.75h.008c.42 0 .75.337.75.75 0 .412-.33.75-.75.75zM16.433 12.45c-.6-2.596-4.523-2.603-5.13 0-.353 1.522.614 2.812 1.462 3.614a1.62 1.62 0 002.205 0c.848-.802 1.815-2.092 1.463-3.615zm-2.535 1.2a.752.752 0 01-.75-.75c0-.413.33-.75.742-.75h.008c.412 0 .75.337.75.75 0 .412-.338.75-.75.75zM9 14.813H6.99c-.87 0-1.628-.526-1.928-1.336a2.05 2.05 0 01.57-2.28l5.993-5.242a.93.93 0 00.262-1.035.922.922 0 00-.877-.607H9a.567.567 0 01-.563-.563c0-.308.255-.563.563-.563h2.01c.87 0 1.627.526 1.928 1.336a2.05 2.05 0 01-.57 2.28l-5.993 5.242a.93.93 0 00-.263 1.035.922.922 0 00.878.607H9c.307 0 .562.256.562.563a.567.567 0 01-.562.563z"/></g><defs><clipPath id="bvclip0_767_8640"><path fill="#fff" d="M0 0h18v18H0z"/></clipPath></defs></svg><svg fill="none" viewBox="0 0 24 24" id="search_icon" xmlns="http://www.w3.org/2000/svg"><path d="M14.53 13.47a.75.75 0 10-1.06 1.06l1.06-1.06zm2.94 5.06a.75.75 0 101.06-1.06l-1.06 1.06zm-6.803-3.947a3.917 3.917 0 01-3.917-3.916h-1.5a5.417 5.417 0 005.417 5.416v-1.5zM6.75 10.667a3.917 3.917 0 013.917-3.917v-1.5a5.417 5.417 0 00-5.417 5.417h1.5zm3.917-3.917a3.917 3.917 0 013.916 3.917h1.5a5.417 5.417 0 00-5.416-5.417v1.5zm3.916 3.917a3.917 3.917 0 01-3.916 3.916v1.5a5.417 5.417 0 005.416-5.416h-1.5zM13.47 14.53l4 4 1.06-1.06-4-4-1.06 1.06z" fill="#868686"/></svg><svg fill="none" viewBox="0 0 24 24" id="select-arrow" xmlns="http://www.w3.org/2000/svg"><path d="M16 10l-4 4-4-4" stroke="currentColor" stroke-width="1.5" stroke-linecap="round" stroke-linejoin="round"/></svg><svg fill="none" viewBox="0 0 18 18" id="share_android" xmlns="http://www.w3.org/2000/svg"><path d="M6.75 10.125l4.5 2.25m0-6.75l-4.5 2.25m6.75 7.875a2.25 2.25 0 110-4.5 2.25 2.25 0 010 4.5zm-9-4.5a2.25 2.25 0 110-4.5 2.25 2.25 0 010 4.5zm9-4.5a2.25 2.25 0 110-4.5 2.25 2.25 0 010 4.5z" stroke="#30B4FF" stroke-width="1.5" stroke-linecap="round" stroke-linejoin="round"/></svg><svg fill="none" viewBox="0 0 16 16" id="solar_book" xmlns="http://www.w3.org/2000/svg"><path d="M4.91 4.744a.488.488 0 01.489-.488h5.209a.488.488 0 010 .977h-5.21a.488.488 0 01-.488-.489zM5.4 6.535a.488.488 0 000 .977h3.255a.488.488 0 000-.977H5.4z" fill="#404040"/><path fill-rule="evenodd" clip-rule="evenodd" d="M6.664 1c-.89 0-1.608 0-2.173.076-.586.078-1.08.248-1.471.639-.392.392-.56.886-.64 1.472-.075.564-.075 1.282-.075 2.173v5.28c0 .89 0 1.61.076 2.174.078.586.247 1.08.639 1.471.392.392.885.56 1.471.64C5.056 15 5.774 15 6.664 15h2.677c.89 0 1.608 0 2.173-.075.586-.08 1.08-.248 1.471-.64.392-.392.56-.885.64-1.471.075-.565.075-1.283.075-2.173V5.36c0-.89 0-1.609-.075-2.173-.08-.586-.248-1.08-.64-1.472-.392-.392-.885-.56-1.471-.639C10.949 1 10.23 1 9.34 1H6.664zM3.711 2.406c.18-.18.433-.298.912-.362.49-.066 1.143-.067 2.078-.067h2.605c.934 0 1.586.001 2.078.067.478.064.73.182.911.362.18.18.298.433.362.912.066.49.067 1.143.067 2.077v4.722H5.256c-.533 0-.896 0-1.208.083a2.442 2.442 0 00-.767.357V5.395c0-.934.002-1.586.068-2.078.064-.478.183-.73.362-.911zM3.3 12.069c.01.23.025.433.05.614.064.478.182.731.361.911.18.18.433.298.912.363.49.065 1.143.067 2.078.067h2.605c.934 0 1.586-.002 2.078-.067.478-.065.73-.183.911-.363.18-.18.298-.433.362-.911.054-.4.065-.909.066-1.59H5.331c-.636 0-.86.004-1.03.05a1.466 1.466 0 00-1.001.926z" fill="#404040"/></svg><svg fill="none" viewBox="0 0 42 42" id="support" xmlns="http://www.w3.org/2000/svg"><rect width="42" height="42" rx="8" fill="#ECF7FF"/><path d="M21 12c-4.963 0-9 4.037-9 9v3.729c0 .921.807 1.671 1.8 1.671h.9a.9.9 0 00.9-.9v-4.629a.9.9 0 00-.9-.9h-.817c.5-3.483 3.497-6.171 7.117-6.171s6.617 2.688 7.117 6.171H27.3a.9.9 0 00-.9.9V26.4c0 .993-.807 1.8-1.8 1.8h-1.8v-.9h-3.6V30h5.4c1.985 0 3.6-1.615 3.6-3.6.993 0 1.8-.75 1.8-1.671V21c0-4.963-4.037-9-9-9z" fill="#30B4FF"/></svg><svg fill="none" viewBox="0 0 24 24" id="telegram" xmlns="http://www.w3.org/2000/svg"><rect width="24" height="24" rx="4" fill="#2F89CE"/><path d="M5.61 12.225l2.76 1.028 1.075 3.46c.047.234.327.281.514.14l1.543-1.262c.14-.14.374-.14.561 0l2.76 2.011c.186.14.467.047.514-.187l2.057-9.82c.047-.233-.187-.467-.42-.374L5.61 11.617c-.281.093-.281.514 0 .608zm3.695.514l5.424-3.32c.093-.047.187.094.093.14l-4.442 4.162c-.14.14-.28.327-.28.561l-.14 1.122c0 .14-.235.187-.281 0l-.561-2.057c-.14-.234-.047-.514.187-.608z" fill="#fff"/></svg><svg fill="none" viewBox="0 0 18 18" id="telegram_icon" xmlns="http://www.w3.org/2000/svg"><path d="M15.533 2.74s1.456-.567 1.335.812c-.04.569-.405 2.557-.688 4.708l-.971 6.371s-.082.933-.81 1.096c-.728.162-1.821-.568-2.024-.73-.162-.123-3.035-1.949-4.047-2.841-.283-.244-.607-.73.04-1.299l4.25-4.058c.486-.487.971-1.623-1.052-.244L5.899 10.41s-.647.406-1.861.041L1.407 9.64s-.971-.608.688-1.217c4.048-1.907 9.026-3.855 13.437-5.681z" fill="#fff"/></svg><svg fill="none" viewBox="0 0 18 18" id="tg-icon" xmlns="http://www.w3.org/2000/svg"><path d="M15.533 2.74s1.456-.567 1.335.812c-.04.569-.405 2.557-.688 4.708l-.971 6.371s-.082.933-.81 1.096c-.728.162-1.821-.568-2.024-.73-.162-.123-3.035-1.949-4.047-2.841-.283-.244-.607-.73.04-1.299l4.25-4.058c.486-.487.971-1.623-1.052-.244L5.899 10.41s-.647.406-1.861.041L1.407 9.64s-.971-.608.688-1.217c4.048-1.907 9.026-3.855 13.437-5.681z" fill="#fff"/></svg><svg fill="none" viewBox="0 0 16 16" id="timer_icon" xmlns="http://www.w3.org/2000/svg"><path fill-rule="evenodd" clip-rule="evenodd" d="M8 8.667V6zM14 4l-1.333-1.333zM6.667 1.333h2.666z" fill="#868686"/><path d="M7.35 8.667a.65.65 0 001.3 0h-1.3zM8.65 6a.65.65 0 00-1.3 0h1.3zm4.89-1.54a.65.65 0 10.92-.92l-.92.92zm-.414-2.253a.65.65 0 00-.919.92l.92-.92zM6.666.683a.65.65 0 100 1.3v-1.3zm2.667 1.3a.65.65 0 100-1.3v1.3zM8 13.35a4.683 4.683 0 01-4.683-4.683h-1.3A5.983 5.983 0 008 14.65v-1.3zM3.317 8.667A4.683 4.683 0 018 3.983v-1.3a5.983 5.983 0 00-5.983 5.984h1.3zM8 3.983a4.683 4.683 0 014.683 4.684h1.3A5.983 5.983 0 008 2.683v1.3zm4.683 4.684A4.683 4.683 0 018 13.35v1.3a5.983 5.983 0 005.983-5.983h-1.3zm-4.033 0V6h-1.3v2.667h1.3zm5.81-5.127l-1.334-1.333-.919.92L13.54 4.46l.92-.92zM6.667 1.983h2.666v-1.3H6.667v1.3z" fill="#868686"/></svg><svg fill="none" viewBox="0 0 17 16" id="tlg-icon" xmlns="http://www.w3.org/2000/svg"><path d="M.95 7.72l3.69 1.376 1.438 4.628c.062.312.437.375.688.187l2.063-1.688c.188-.188.5-.188.75 0l3.69 2.689c.25.188.626.062.688-.25L16.71 1.529c.063-.313-.25-.626-.563-.5L.95 6.906c-.375.125-.375.688 0 .813zm4.94.688l7.255-4.44c.125-.063.25.125.125.187L7.328 9.721c-.187.188-.375.438-.375.75l-.187 1.502c0 .187-.313.25-.376 0L5.64 9.22c-.188-.313-.063-.688.25-.813z" fill="#2F89CE"/></svg><svg fill="none" viewBox="0 0 20 21" id="trash" xmlns="http://www.w3.org/2000/svg"><path d="M11.667 8.833v5.834M8.333 8.833v5.834m-5-9.167h13.334M15 5.5v9.833c0 .934 0 1.4-.182 1.757-.16.314-.415.569-.728.728-.357.182-.823.182-1.757.182H7.667c-.934 0-1.4 0-1.757-.182a1.666 1.666 0 01-.728-.728C5 16.733 5 16.267 5 15.333V5.5h10zm-1.667 0H6.667c0-.777 0-1.165.126-1.471.17-.409.494-.733.902-.902C8.002 3 8.39 3 9.167 3h1.666c.777 0 1.165 0 1.471.127.409.169.733.493.902.902.127.306.127.694.127 1.471z" stroke="#EC1B00" stroke-width="1.5" stroke-linecap="round" stroke-linejoin="round"/></svg><svg fill="none" viewBox="0 0 24 24" id="viber" xmlns="http://www.w3.org/2000/svg"><rect width="24" height="24" rx="4" fill="#7C509A"/><path d="M15.752 6.328a18.59 18.59 0 00-6.948 0c-1.012.218-2.287 1.44-2.507 2.402a13.722 13.722 0 000 5.677c.264.96 1.54 2.184 2.507 2.402.044 0 .088.044.088.087v2.752c0 .13.176.218.264.087l1.319-1.354s1.055-1.091 1.231-1.266c0 0 .044-.044.088-.044 1.32.044 2.683-.087 4.002-.306 1.012-.218 2.287-1.44 2.507-2.402.396-1.877.396-3.8 0-5.677-.264-.917-1.54-2.14-2.55-2.358zm.044 8.21c-.22.437-.483.786-.923 1.005l-.396.13c-.176-.043-.308-.087-.44-.13-1.407-.568-2.727-1.354-3.782-2.49a10.503 10.503 0 01-1.451-2.183c-.176-.393-.352-.743-.484-1.136-.132-.35.088-.699.308-.96.22-.263.484-.437.791-.569.22-.13.44-.043.616.132.352.436.704.873.968 1.353.175.306.132.655-.176.874-.088.043-.132.087-.22.175-.044.043-.132.087-.176.174a.422.422 0 00-.044.393c.352 1.005 1.011 1.79 2.023 2.228.176.087.308.13.528.13.308-.043.44-.392.66-.567.22-.175.483-.175.747-.044.22.131.44.306.704.48.22.175.44.306.66.481.131.087.175.306.087.524zm-1.847-3.275c-.088 0-.044 0 0 0-.176 0-.22-.088-.264-.219 0-.087 0-.218-.044-.306a.83.83 0 00-.307-.48l-.264-.13c-.132-.045-.22-.045-.352-.045-.132-.043-.176-.13-.176-.262 0-.087.132-.174.22-.174.703.043 1.231.436 1.32 1.266v.175c0 .087-.045.175-.133.175zm-.44-1.922c-.22-.087-.44-.175-.703-.218-.088 0-.22-.044-.308-.044-.132 0-.22-.087-.176-.218 0-.131.088-.219.22-.175.44.044.835.13 1.231.306.792.393 1.232 1.048 1.364 1.921V11.481c-.044.175-.352.218-.396 0 0-.044-.044-.131-.044-.175 0-.393-.088-.786-.264-1.135a2.359 2.359 0 00-.924-.83zm2.375 2.62c-.132 0-.22-.13-.22-.262 0-.262-.044-.524-.088-.786-.176-1.397-1.319-2.533-2.682-2.751-.22-.044-.44-.044-.616-.088-.132 0-.308 0-.352-.174-.044-.131.088-.262.22-.262h.088c.088 0 1.803.043 0 0 1.847.043 3.386 1.266 3.694 3.1.044.306.088.612.088.961.088.131 0 .262-.132.262z" fill="#fff"/></svg><svg fill="none" viewBox="0 0 16 16" id="viber-icon" xmlns="http://www.w3.org/2000/svg"><path d="M11.807.38a21.554 21.554 0 00-8.056 0C2.578.633 1.099 2.05.844 3.165a15.909 15.909 0 000 6.582c.306 1.114 1.785 2.532 2.907 2.785.05 0 .102.05.102.102v3.19c0 .152.204.253.306.1l1.53-1.569s1.223-1.266 1.427-1.468c0 0 .051-.05.102-.05 1.53.05 3.11-.102 4.64-.355 1.173-.253 2.652-1.671 2.906-2.785a15.91 15.91 0 000-6.583C14.46 2.051 12.98.633 11.808.38zm.051 9.52c-.255.506-.56.91-1.07 1.164l-.46.152c-.204-.05-.357-.101-.51-.152-1.631-.658-3.16-1.57-4.385-2.886a12.178 12.178 0 01-1.682-2.532c-.204-.456-.408-.86-.561-1.317-.153-.405.102-.81.357-1.114a2.36 2.36 0 01.917-.658c.255-.152.51-.05.714.152.408.506.816 1.013 1.122 1.57.204.354.153.76-.204 1.012-.102.051-.153.102-.255.203-.05.05-.153.101-.204.202a.49.49 0 00-.05.456c.407 1.165 1.172 2.076 2.345 2.583.204.1.357.152.612.152.357-.051.51-.456.765-.659.255-.202.56-.202.866-.05.255.152.51.354.816.557.255.202.51.354.765.557.153.1.204.354.102.607zM9.716 6.101c-.101 0-.05 0 0 0-.203 0-.254-.102-.305-.254 0-.1 0-.253-.051-.354a.962.962 0 00-.357-.557l-.306-.152c-.153-.05-.255-.05-.408-.05-.153-.051-.204-.152-.204-.304 0-.102.153-.203.255-.203.816.05 1.427.506 1.53 1.468V5.9c0 .101-.052.203-.154.203zm-.51-2.228c-.254-.102-.51-.203-.815-.254-.102 0-.255-.05-.357-.05-.153 0-.255-.101-.204-.253 0-.152.102-.254.255-.203.51.05.969.152 1.428.355.917.455 1.427 1.215 1.58 2.227v.659c-.05.202-.408.253-.459 0 0-.05-.05-.152-.05-.203 0-.456-.103-.911-.307-1.316a2.735 2.735 0 00-1.07-.962zm2.754 3.038c-.153 0-.255-.152-.255-.304 0-.304-.05-.608-.102-.912-.204-1.62-1.53-2.936-3.11-3.19-.255-.05-.51-.05-.714-.1-.153 0-.357 0-.408-.203-.051-.152.102-.304.255-.304h.102c.102 0 2.09.05 0 0 2.141.05 3.926 1.468 4.283 3.595.051.354.102.709.102 1.114.102.152 0 .304-.153.304z" fill="#7C509A"/></svg><svg fill="none" viewBox="0 0 16 16" id="vk-icon" xmlns="http://www.w3.org/2000/svg"><path d="M15.356 13h-1.75c-.663 0-.863-.565-2.05-1.816-1.038-1.052-1.477-1.183-1.74-1.183-.363 0-.462.105-.462.63v1.658c0 .449-.138.711-1.25.711a6.596 6.596 0 01-3.056-1.007 7.013 7.013 0 01-2.284-2.361A15.023 15.023 0 010 3.528C0 3.25.1 3 .6 3h1.75c.45 0 .613.21.79.698.849 2.631 2.3 4.92 2.888 4.92.226 0 .324-.105.324-.697v-2.71c-.075-1.237-.699-1.341-.699-1.788a.464.464 0 01.143-.308.42.42 0 01.306-.115h2.752c.376 0 .5.197.5.67v3.66c0 .394.162.525.275.525.226 0 .4-.13.813-.565a15.33 15.33 0 002.151-3.764.788.788 0 01.298-.397.726.726 0 01.465-.128h1.75c.526 0 .637.276.526.67a23.305 23.305 0 01-2.35 4.25c-.19.303-.265.46 0 .816.173.276.787.816 1.2 1.329a8.2 8.2 0 011.475 2.156c.15.514-.1.776-.6.776z" fill="#0077FE"/></svg><svg fill="none" viewBox="0 0 20 20" id="wavy_check" xmlns="http://www.w3.org/2000/svg"><path d="M12.056 3.75l-1.018-.868a1.601 1.601 0 00-2.076 0l-1.018.867c-.256.219-.575.35-.91.378L5.7 4.233a1.6 1.6 0 00-1.468 1.468l-.107 1.333a1.6 1.6 0 01-.376.91l-.868 1.018a1.6 1.6 0 000 2.076l.867 1.018a1.6 1.6 0 01.378.91l.106 1.333a1.6 1.6 0 001.468 1.468l1.333.106a1.6 1.6 0 01.91.378l1.018.867c.598.51 1.478.51 2.076 0l1.018-.867a1.6 1.6 0 01.91-.378l1.333-.106a1.6 1.6 0 001.468-1.468l.106-1.333a1.6 1.6 0 01.378-.91l.866-1.018a1.6 1.6 0 000-2.076l-.867-1.017a1.601 1.601 0 01-.377-.911L15.767 5.7A1.6 1.6 0 0014.3 4.233l-1.333-.106a1.6 1.6 0 01-.91-.378z" fill="#30B4FF"/><path d="M12.5 8.332l-3.333 3.333L7.5 10" stroke="#fff" stroke-width="1.5" stroke-linecap="round" stroke-linejoin="round"/></svg><svg fill="none" viewBox="0 0 24 24" id="whatsapp" xmlns="http://www.w3.org/2000/svg"><rect width="24" height="24" rx="4" fill="#48C95F"/><path d="M16.756 7.24a6.257 6.257 0 00-4.434-1.837c-3.468 0-6.278 2.8-6.278 6.257 0 1.093.307 2.187.834 3.106L6 18.003l3.337-.875a6.418 6.418 0 002.985.744c3.468 0 6.278-2.8 6.278-6.256-.044-1.619-.659-3.194-1.844-4.375zm-1.405 6.65c-.132.35-.746.7-1.053.745a2.463 2.463 0 01-.966-.044c-.22-.088-.527-.175-.878-.35-1.58-.656-2.59-2.231-2.678-2.363-.088-.087-.659-.83-.659-1.618 0-.788.395-1.138.527-1.313.132-.175.307-.175.439-.175h.307c.088 0 .22-.044.351.263.132.306.44 1.093.483 1.137a.278.278 0 010 .263.915.915 0 01-.175.262c-.088.088-.176.219-.22.263-.088.087-.175.175-.088.306.088.175.396.656.879 1.094.614.525 1.097.7 1.273.787.175.088.263.044.35-.044.089-.087.396-.437.484-.612.088-.175.22-.131.351-.088.132.044.922.438 1.054.525.175.088.263.132.307.175.044.132.044.438-.088.788z" fill="#fff"/></svg><svg fill="none" viewBox="0 0 16 16" id="wtp-icon" xmlns="http://www.w3.org/2000/svg"><path d="M12.785 3.042A6.952 6.952 0 007.858 1C4.005 1 .883 4.111.883 7.951c0 1.216.341 2.43.927 3.452L.834 15l3.707-.972a7.132 7.132 0 003.317.826c3.854 0 6.976-3.11 6.976-6.951-.049-1.799-.732-3.549-2.049-4.861zm-1.56 7.389c-.147.388-.83.777-1.171.826a2.732 2.732 0 01-1.074-.049c-.244-.097-.585-.194-.975-.389-1.756-.729-2.878-2.479-2.976-2.625-.097-.097-.732-.923-.732-1.798s.44-1.264.586-1.458c.146-.195.341-.195.488-.195h.341c.098 0 .244-.049.39.292.147.34.488 1.215.537 1.264a.309.309 0 010 .291 1.017 1.017 0 01-.195.292c-.098.097-.195.243-.244.292-.098.097-.195.194-.098.34.098.194.44.729.976 1.215.683.584 1.22.778 1.415.875.195.097.292.049.39-.048.097-.098.439-.487.536-.681.098-.194.244-.146.39-.097.147.048 1.025.486 1.171.583.195.097.293.146.342.195.049.145.049.486-.098.875z" fill="#48C95F"/></svg><svg fill="none" viewBox="0 0 60 60" id="zoom_icon" xmlns="http://www.w3.org/2000/svg"><g clip-path="url(#cnclip0_287_205)" fill-opacity=".4"><rect width="60" height="60" rx="30" fill="#ECF7FF"/><path fill-rule="evenodd" clip-rule="evenodd" d="M17 29.607a12.608 12.608 0 1122.459 7.87l5.148 5.149a1.401 1.401 0 01-1.981 1.98l-5.148-5.148A12.608 12.608 0 0117 29.607zm12.608-5.604a1.4 1.4 0 011.4 1.401v2.802h2.802a1.4 1.4 0 110 2.802H31.01v2.802a1.401 1.401 0 01-2.802 0v-2.802h-2.802a1.4 1.4 0 110-2.802h2.802v-2.802a1.401 1.401 0 011.4-1.4z" fill="#30B4FF"/></g><defs><clipPath id="cnclip0_287_205"><path fill="#fff" d="M0 0h60v60H0z"/></clipPath></defs></svg></svg>