<?xml version="1.0" encoding="utf-8"?><svg viewBox="0 0 60 60" xmlns="http://www.w3.org/2000/svg" xmlns:xlink="http://www.w3.org/1999/xlink"><style>:root>svg{display:none}:root>svg:target{display:block}</style><svg fill="none" viewBox="0 0 18 18" id="arrow_icon" xmlns="http://www.w3.org/2000/svg"><path d="M7.5 6l3 3-3 3" stroke="currentColor" stroke-width="1.3" stroke-linecap="round" stroke-linejoin="round"/></svg><svg fill="none" viewBox="0 0 18 18" id="arrow_white" xmlns="http://www.w3.org/2000/svg"><path d="M7.5 6l3 3-3 3" stroke="#fff" stroke-width="1.3" stroke-linecap="round" stroke-linejoin="round"/></svg><svg fill="none" viewBox="0 0 18 18" id="book_icon" xmlns="http://www.w3.org/2000/svg"><path d="M9 7.35V15m0-7.65c0-1.26 0-1.89.245-2.371a2.25 2.25 0 01.984-.984c.48-.245 1.11-.245 2.37-.245h1.95c.42 0 .631 0 .791.082a.75.75 0 01.328.328c.082.16.082.37.082.79v6.6c0 .42 0 .63-.082.79a.75.75 0 01-.328.328c-.16.082-.37.082-.79.082h-2.123c-.705 0-1.057 0-1.377.097a2.25 2.25 0 00-.774.415c-.258.212-.454.505-.845 1.091L9 15m0-7.65c0-1.26 0-1.89-.245-2.371a2.25 2.25 0 00-.983-.984C7.29 3.75 6.66 3.75 5.4 3.75H3.45c-.42 0-.63 0-.79.082a.75.75 0 00-.328.328c-.082.16-.082.37-.082.79v6.6c0 .42 0 .63.082.79a.75.75 0 00.327.328c.16.082.371.082.791.082h2.123c.705 0 1.057 0 1.377.097.283.086.546.227.774.415.259.212.454.505.845 1.091L9 15" stroke="#30B4FF" stroke-width="1.5" stroke-linecap="round" stroke-linejoin="round"/></svg><svg fill="none" viewBox="0 0 18 18" id="calendar_icon" xmlns="http://www.w3.org/2000/svg"><path d="M12.6 4.2H5.4A2.4 2.4 0 003 6.6v6A2.4 2.4 0 005.4 15h7.2a2.4 2.4 0 002.4-2.4v-6a2.4 2.4 0 00-2.4-2.4zM6.602 3v2.4M11.398 3v2.4M3 7.8h12" stroke="#494949" stroke-linecap="round" stroke-linejoin="round"/></svg><svg fill="none" viewBox="0 0 24 24" id="check-icon" xmlns="http://www.w3.org/2000/svg"><path d="M8 12l3 3 6-6" stroke="#868686" stroke-width="1.5" stroke-linecap="round" stroke-linejoin="round"/></svg><svg fill="none" viewBox="0 0 8 7" id="checkbox" xmlns="http://www.w3.org/2000/svg"><path d="M3 6.273L.3 3.626l1.4-1.43L3 3.467 6.3.2l1.4 1.422L3 6.272z" fill="#fff"/></svg><svg fill="none" viewBox="0 0 24 24" id="external_icon" xmlns="http://www.w3.org/2000/svg"><path d="M10 5.75a.75.75 0 000-1.5v1.5zM19.75 14a.75.75 0 00-1.5 0h1.5zm-1.842 4.782l-.34-.668.34.668zm.874-.874l-.668-.34.668.34zm-13.564 0l-.668.34.668-.34zm.874.874l.34-.668-.34.668zm0-13.564l.34.668-.34-.668zm-.874.874l.668.34-.668-.34zM19.25 9a.75.75 0 001.5 0h-1.5zM20 4h.75a.75.75 0 00-.75-.75V4zm-5-.75a.75.75 0 000 1.5v-1.5zm-2.53 7.22a.75.75 0 101.06 1.06l-1.06-1.06zM10 4.25H8.2v1.5H10v-1.5zM4.25 8.2v7.6h1.5V8.2h-1.5zM8.2 19.75h7.6v-1.5H8.2v1.5zm11.55-3.95V14h-1.5v1.8h1.5zm-3.95 3.95c.548 0 1.004 0 1.375-.03.38-.03.736-.098 1.073-.27l-.68-1.336c-.091.046-.229.088-.516.111-.295.024-.68.025-1.252.025v1.5zm2.45-3.95c0 .572 0 .957-.025 1.253-.023.287-.065.424-.111.514l1.337.681c.171-.337.238-.694.27-1.073.03-.372.029-.827.029-1.375h-1.5zm-.002 3.65a2.75 2.75 0 001.203-1.201l-1.337-.681a1.25 1.25 0 01-.547.546l.681 1.336zM4.25 15.8c0 .548 0 1.003.03 1.375.03.38.098.736.27 1.073l1.336-.68c-.046-.091-.088-.228-.111-.516-.024-.295-.025-.68-.025-1.252h-1.5zm3.95 2.45c-.572 0-.957 0-1.253-.025-.287-.023-.424-.065-.515-.111l-.68 1.336c.337.172.693.24 1.073.27.372.03.827.03 1.375.03v-1.5zm-3.65-.002c.263.518.684.938 1.201 1.202l.681-1.336a1.249 1.249 0 01-.546-.547l-1.336.681zM8.2 4.25c-.547 0-1.003 0-1.375.03-.38.03-.736.098-1.074.27l.681 1.336c.09-.046.228-.088.515-.111.296-.024.68-.025 1.253-.025v-1.5zM5.75 8.2c0-.572 0-.957.025-1.253.023-.287.065-.424.111-.514L4.55 5.752c-.172.337-.24.693-.27 1.073-.03.371-.03.827-.03 1.375h1.5zm.001-3.65A2.75 2.75 0 004.55 5.752l1.336.68a1.25 1.25 0 01.546-.546l-.68-1.336zM20.75 9V4h-1.5v5h1.5zM20 3.25h-5v1.5h5v-1.5zm-6.47 8.28l7-7-1.06-1.06-7 7 1.06 1.06z" fill="#30B4FF"/></svg><svg fill="none" viewBox="0 0 16 16" id="files_icon" xmlns="http://www.w3.org/2000/svg"><path d="M6.667 4v-.933c0-.374 0-.56.072-.703a.667.667 0 01.292-.291C7.173 2 7.36 2 7.733 2h3.158c.163 0 .245 0 .322.018a.668.668 0 01.193.08c.067.041.124.1.24.214l2.042 2.042c.115.116.172.173.214.24a.67.67 0 01.08.193c.018.077.018.158.018.321v5.825c0 .374 0 .56-.073.703a.665.665 0 01-.29.291c-.143.073-.33.073-.704.073h-3.6m0-4.667H7.066c-.373 0-.56 0-.702-.072a.666.666 0 01-.291-.292C6 6.827 6 6.64 6 6.267V4m8 1.333h-2.267c-.373 0-.56 0-.702-.072a.667.667 0 01-.292-.292c-.072-.142-.072-.329-.072-.702V2M9.333 12.933V7.108c0-.163 0-.244-.018-.32a.667.667 0 00-.08-.194 1.422 1.422 0 00-.214-.24L6.979 4.312c-.115-.115-.173-.173-.24-.214a.668.668 0 00-.193-.08C6.469 4 6.388 4 6.225 4H3.066c-.373 0-.56 0-.702.073a.667.667 0 00-.291.291C2 4.507 2 4.694 2 5.067v7.866c0 .374 0 .56.073.703a.666.666 0 00.29.291c.144.073.33.073.703.073h5.2c.374 0 .561 0 .704-.073a.665.665 0 00.29-.291c.073-.143.073-.33.073-.703z" stroke="#404040" stroke-linecap="round" stroke-linejoin="round"/></svg><svg fill="none" viewBox="0 0 16 16" id="global_icon" xmlns="http://www.w3.org/2000/svg"><path d="M2 8.5h12v-1H2v1zm6 5A5.5 5.5 0 012.5 8h-1A6.5 6.5 0 008 14.5v-1zM2.5 8A5.5 5.5 0 018 2.5v-1A6.5 6.5 0 001.5 8h1zM8 2.5A5.5 5.5 0 0113.5 8h1A6.5 6.5 0 008 1.5v1zM13.5 8A5.5 5.5 0 018 13.5v1A6.5 6.5 0 0014.5 8h-1zM8 13.5c-.205 0-.439-.092-.693-.334-.257-.244-.511-.622-.736-1.126-.448-1.009-.738-2.436-.738-4.04h-1c0 1.71.307 3.282.824 4.446.259.58.58 1.082.96 1.445.384.365.852.609 1.383.609v-1zM5.833 8c0-1.604.29-3.031.738-4.04.225-.504.479-.882.736-1.126.254-.242.487-.334.693-.334v-1c-.53 0-.999.244-1.383.61-.38.362-.701.863-.96 1.444C5.14 4.718 4.833 6.29 4.833 8h1zM8 2.5c.206 0 .439.092.693.334.257.244.511.622.736 1.126.448 1.009.738 2.436.738 4.04h1c0-1.71-.307-3.282-.825-4.446-.258-.58-.578-1.082-.96-1.445C9 1.744 8.532 1.5 8 1.5v1zM10.167 8c0 1.604-.29 3.031-.738 4.04-.225.504-.479.882-.736 1.126-.254.242-.487.334-.693.334v1c.53 0 .999-.244 1.383-.61.38-.362.701-.863.96-1.444.517-1.164.824-2.736.824-4.446h-1z" fill="#404040"/></svg><svg class="jfill" fill="none" viewBox="0 0 16 16" id="icon-box" xmlns="http://www.w3.org/2000/svg"><path d="M6.923 1.378a3 3 0 012.154 0l4.962 1.908a1.5 1.5 0 01.961 1.4v6.626a1.5 1.5 0 01-.961 1.4l-4.962 1.909a3 3 0 01-2.154 0l-4.961-1.909a1.5 1.5 0 01-.962-1.4V4.686a1.5 1.5 0 01.962-1.4l4.961-1.908zm1.795.933a2 2 0 00-1.436 0l-1.384.533 5.59 2.116 1.948-.834L8.718 2.31v.001zM14 4.971L8.5 7.33v6.428c.074-.019.146-.042.218-.07l4.962-1.908a.5.5 0 00.32-.467V4.971zm-6.5 8.786V7.33L2 4.972v6.34a.5.5 0 00.32.467l4.962 1.908c.072.028.144.051.218.07zM2.564 4.126L8 6.456l2.164-.928-5.667-2.146-1.933.744z" fill="currentColor"/></svg><svg class="kfill" fill="none" viewBox="0 0 16 16" id="icon-check" xmlns="http://www.w3.org/2000/svg"><path d="M5.804 7.853a.665.665 0 10-.94.94l.94-.94zm2.358 3.299l-.47.47a.665.665 0 00.94 0l-.47-.47zm6.127-5.187a.665.665 0 00-.94-.94l.94.94zM2.47 7.853a.665.665 0 00-.94.94l.94-.94zm1.888 3.77a.665.665 0 00.94-.941l-.94.94zm6.6-5.66a.665.665 0 10-.945-.936l.945.936zM7.86 7.2a.665.665 0 00.945.936l-.945-.936zM4.863 8.794l2.829 2.828.94-.94-2.828-2.829-.94.94zm3.769 2.828l5.657-5.657-.94-.94-5.657 5.657.94.94zM1.53 8.794l2.828 2.828.94-.94L2.47 7.853l-.94.94zm8.483-3.767L7.86 7.199l.945.936 2.152-2.172-.945-.936z" fill="currentColor"/></svg><svg class="lstroke" fill="none" viewBox="0 0 16 16" id="icon-cross" xmlns="http://www.w3.org/2000/svg"><path d="M7.49 1.583c-.245.101-.465.32-.904.76-.44.44-.659.66-.76.904a1.333 1.333 0 000 1.02c.101.246.32.465.76.905h0c.44.439.659.659.904.76.327.135.694.135 1.02 0 .245-.102.465-.321.904-.76.44-.44.66-.66.76-.904a1.334 1.334 0 000-1.02c-.1-.246-.32-.466-.76-.905h0c-.439-.44-.659-.659-.904-.76a1.333 1.333 0 00-1.02 0zM3.247 5.825c-.245.102-.465.322-.904.76h0c-.44.44-.659.66-.76.905a1.333 1.333 0 000 1.02c.101.245.32.465.76.904h0c.44.44.66.66.904.76.327.136.694.136 1.02 0 .246-.1.465-.32.905-.76.439-.44.658-.659.76-.904a1.333 1.333 0 000-1.02c-.102-.245-.321-.465-.76-.904h0c-.44-.44-.66-.66-.904-.76a1.333 1.333 0 00-1.02 0zM11.733 5.825c-.245.102-.465.322-.904.76-.44.44-.66.66-.76.905a1.333 1.333 0 000 1.02c.1.245.32.465.76.904h0c.44.44.659.66.904.76.326.136.694.136 1.02 0 .245-.1.465-.32.904-.76.44-.44.66-.659.76-.904a1.334 1.334 0 000-1.02c-.1-.245-.32-.465-.76-.904h0c-.44-.44-.659-.66-.904-.76a1.334 1.334 0 00-1.02 0zM7.49 10.068c-.245.101-.465.321-.904.76-.44.44-.659.66-.76.904a1.333 1.333 0 000 1.02c.101.246.32.466.76.905h0c.44.44.659.659.904.76.327.136.694.136 1.02 0 .245-.101.465-.32.904-.76.44-.44.66-.659.76-.904a1.334 1.334 0 000-1.02c-.1-.246-.32-.465-.76-.904h0c-.439-.44-.659-.66-.904-.761a1.334 1.334 0 00-1.02 0z" stroke="currentColor" stroke-width="1.3" stroke-linecap="round" stroke-linejoin="round"/></svg><svg class="mstroke" fill="none" viewBox="0 0 16 16" id="icon-doc" xmlns="http://www.w3.org/2000/svg"><path d="M6 11.333h4m-4-2h4M12.666 6H9.733c-.373 0-.56 0-.702-.073a.666.666 0 01-.292-.291c-.072-.143-.072-.33-.072-.703V2m4 9.867V6.436c0-.309 0-.464-.034-.61a1.335 1.335 0 00-.144-.37c-.075-.13-.18-.243-.39-.47L9.967 2.685c-.234-.252-.35-.378-.49-.468a1.335 1.335 0 00-.4-.175C8.917 2 8.745 2 8.4 2H5.467c-.747 0-1.12 0-1.406.145-.25.128-.455.332-.582.583-.146.285-.146.659-.146 1.405v7.734c0 .746 0 1.12.146 1.405.127.25.331.455.582.583.285.145.66.145 1.406.145h5.067c.746 0 1.12 0 1.404-.145.251-.128.456-.332.583-.583.146-.285.146-.659.146-1.405z" stroke="currentColor" stroke-width="1.3" stroke-linecap="round" stroke-linejoin="round"/></svg><svg class="nfill" fill="none" viewBox="0 0 24 24" id="icon-link" xmlns="http://www.w3.org/2000/svg"><path d="M10 5.75a.75.75 0 000-1.5v1.5zM19.75 14a.75.75 0 00-1.5 0h1.5zm-1.842 4.782l-.34-.668.34.668zm.874-.874l-.668-.34.668.34zm-13.564 0l-.668.34.668-.34zm.874.874l.34-.668-.34.668zm0-13.564l.34.668-.34-.668zm-.874.874l.668.34-.668-.34zM19.25 9a.75.75 0 001.5 0h-1.5zM20 4h.75a.75.75 0 00-.75-.75V4zm-5-.75a.75.75 0 000 1.5v-1.5zm-2.53 7.22a.75.75 0 101.06 1.06l-1.06-1.06zM10 4.25H8.2v1.5H10v-1.5zM4.25 8.2v7.6h1.5V8.2h-1.5zM8.2 19.75h7.6v-1.5H8.2v1.5zm11.55-3.95V14h-1.5v1.8h1.5zm-3.95 3.95c.548 0 1.004 0 1.375-.03.38-.03.736-.098 1.073-.27l-.68-1.336c-.091.046-.229.088-.516.111-.295.024-.68.025-1.252.025v1.5zm2.45-3.95c0 .572 0 .957-.025 1.253-.023.287-.065.424-.111.514l1.337.681c.171-.337.238-.694.27-1.073.03-.372.029-.827.029-1.375h-1.5zm-.002 3.65a2.75 2.75 0 001.203-1.201l-1.337-.681a1.25 1.25 0 01-.547.546l.681 1.336zM4.25 15.8c0 .548 0 1.003.03 1.375.03.38.098.736.27 1.073l1.336-.68c-.046-.091-.088-.228-.111-.516-.024-.295-.025-.68-.025-1.252h-1.5zm3.95 2.45c-.572 0-.957 0-1.253-.025-.287-.023-.424-.065-.515-.111l-.68 1.336c.337.172.693.24 1.073.27.372.03.827.03 1.375.03v-1.5zm-3.65-.002c.263.518.684.938 1.201 1.202l.681-1.336a1.249 1.249 0 01-.546-.547l-1.336.681zM8.2 4.25c-.547 0-1.003 0-1.375.03-.38.03-.736.098-1.074.27l.681 1.336c.09-.046.228-.088.515-.111.296-.024.68-.025 1.253-.025v-1.5zM5.75 8.2c0-.572 0-.957.025-1.253.023-.287.065-.424.111-.514L4.55 5.752c-.172.337-.24.693-.27 1.073-.03.371-.03.827-.03 1.375h1.5zm.001-3.65A2.75 2.75 0 004.55 5.752l1.336.68a1.25 1.25 0 01.546-.546l-.68-1.336zM20.75 9V4h-1.5v5h1.5zM20 3.25h-5v1.5h5v-1.5zm-6.47 8.28l7-7-1.06-1.06-7 7 1.06 1.06z" fill="currentColor"/></svg><svg class="ostroke" fill="none" viewBox="0 0 24 24" id="icon-phone" xmlns="http://www.w3.org/2000/svg"><path d="M9.503 4.257A2 2 0 007.646 3H4.895A1.895 1.895 0 003 4.895C3 13.79 10.21 21 19.105 21A1.894 1.894 0 0021 19.105v-2.751a2 2 0 00-1.257-1.857l-2.636-1.054a2 2 0 00-2.023.32l-.68.568a2 2 0 01-2.695-.122L9.79 12.29a2 2 0 01-.122-2.694l.568-.681a2 2 0 00.32-2.023L9.503 4.257z" stroke="currentColor" stroke-width="1.5" stroke-linecap="round" stroke-linejoin="round"/></svg><svg fill="none" viewBox="0 0 16 16" id="icon-pin" xmlns="http://www.w3.org/2000/svg"><path d="M3 6.681c0 3.281 3.032 5.994 4.374 7.034h0c.193.15.289.225.432.263.112.03.276.03.388 0 .143-.039.24-.113.432-.263C9.968 12.675 13 9.962 13 6.681c0-1.241-.527-2.432-1.464-3.31C10.598 2.493 9.326 2 8 2s-2.598.493-3.536 1.371C3.527 4.25 3 5.44 3 6.681z" stroke="currentColor" stroke-linecap="round" stroke-linejoin="round"/><circle cx="8" cy="6" r="1.5" stroke="currentColor"/></svg><svg class="qstroke" fill="none" viewBox="0 0 16 16" id="icon-star" xmlns="http://www.w3.org/2000/svg"><path d="M2.098 6.894c-.19-.186-.087-.52.172-.553l3.665-.456a.307.307 0 00.242-.184l1.546-3.515a.3.3 0 01.554 0l1.547 3.515c.044.101.135.171.24.184l3.666.456c.259.032.363.367.172.553l-2.71 2.628a.33.33 0 00-.092.298l.719 3.797c.05.268-.221.475-.449.341l-3.22-1.89a.293.293 0 00-.299 0l-3.221 1.89c-.227.134-.5-.073-.449-.341l.72-3.797a.33.33 0 00-.092-.298l-2.71-2.628z" stroke="currentColor" stroke-width="1.3" stroke-linecap="round" stroke-linejoin="round"/></svg><svg fill="none" viewBox="0 0 18 18" id="list_icon" xmlns="http://www.w3.org/2000/svg"><path d="M6.75 12.75h7.5M6.75 9h7.5m-7.5-3.75h7.5m-10.499 7.5v.002H3.75v-.002h.001zm0-3.75v.002H3.75V9h.001zm0-3.75v.002H3.75V5.25h.001z" stroke="#30B4FF" stroke-width="1.3" stroke-linecap="round" stroke-linejoin="round"/></svg><svg fill="none" viewBox="0 0 24 24" id="menu_vertical" xmlns="http://www.w3.org/2000/svg"><path d="M11 18a1 1 0 102 0 1 1 0 00-2 0zM11 12a1 1 0 102 0 1 1 0 00-2 0zM11 6a1 1 0 102 0 1 1 0 00-2 0z" stroke="#E2E3E5" stroke-width="2" stroke-linecap="round" stroke-linejoin="round"/></svg><svg fill="none" viewBox="0 0 24 24" id="select-arrow" xmlns="http://www.w3.org/2000/svg"><path d="M16 10l-4 4-4-4" stroke="currentColor" stroke-width="1.5" stroke-linecap="round" stroke-linejoin="round"/></svg><svg fill="none" viewBox="0 0 16 16" id="solar_book" xmlns="http://www.w3.org/2000/svg"><path d="M4.91 4.744a.488.488 0 01.489-.488h5.209a.488.488 0 010 .977h-5.21a.488.488 0 01-.488-.489zM5.4 6.535a.488.488 0 000 .977h3.255a.488.488 0 000-.977H5.4z" fill="#404040"/><path fill-rule="evenodd" clip-rule="evenodd" d="M6.664 1c-.89 0-1.608 0-2.173.076-.586.078-1.08.248-1.471.639-.392.392-.56.886-.64 1.472-.075.564-.075 1.282-.075 2.173v5.28c0 .89 0 1.61.076 2.174.078.586.247 1.08.639 1.471.392.392.885.56 1.471.64C5.056 15 5.774 15 6.664 15h2.677c.89 0 1.608 0 2.173-.075.586-.08 1.08-.248 1.471-.64.392-.392.56-.885.64-1.471.075-.565.075-1.283.075-2.173V5.36c0-.89 0-1.609-.075-2.173-.08-.586-.248-1.08-.64-1.472-.392-.392-.885-.56-1.471-.639C10.949 1 10.23 1 9.34 1H6.664zM3.711 2.406c.18-.18.433-.298.912-.362.49-.066 1.143-.067 2.078-.067h2.605c.934 0 1.586.001 2.078.067.478.064.73.182.911.362.18.18.298.433.362.912.066.49.067 1.143.067 2.077v4.722H5.256c-.533 0-.896 0-1.208.083a2.442 2.442 0 00-.767.357V5.395c0-.934.002-1.586.068-2.078.064-.478.183-.73.362-.911zM3.3 12.069c.01.23.025.433.05.614.064.478.182.731.361.911.18.18.433.298.912.363.49.065 1.143.067 2.078.067h2.605c.934 0 1.586-.002 2.078-.067.478-.065.73-.183.911-.363.18-.18.298-.433.362-.911.054-.4.065-.909.066-1.59H5.331c-.636 0-.86.004-1.03.05a1.466 1.466 0 00-1.001.926z" fill="#404040"/></svg><svg fill="none" viewBox="0 0 18 18" id="telegram_icon" xmlns="http://www.w3.org/2000/svg"><path d="M15.533 2.74s1.456-.567 1.335.812c-.04.569-.405 2.557-.688 4.708l-.971 6.371s-.082.933-.81 1.096c-.728.162-1.821-.568-2.024-.73-.162-.123-3.035-1.949-4.047-2.841-.283-.244-.607-.73.04-1.299l4.25-4.058c.486-.487.971-1.623-1.052-.244L5.899 10.41s-.647.406-1.861.041L1.407 9.64s-.971-.608.688-1.217c4.048-1.907 9.026-3.855 13.437-5.681z" fill="#fff"/></svg><svg fill="none" viewBox="0 0 18 18" id="tg-icon" xmlns="http://www.w3.org/2000/svg"><path d="M15.533 2.74s1.456-.567 1.335.812c-.04.569-.405 2.557-.688 4.708l-.971 6.371s-.082.933-.81 1.096c-.728.162-1.821-.568-2.024-.73-.162-.123-3.035-1.949-4.047-2.841-.283-.244-.607-.73.04-1.299l4.25-4.058c.486-.487.971-1.623-1.052-.244L5.899 10.41s-.647.406-1.861.041L1.407 9.64s-.971-.608.688-1.217c4.048-1.907 9.026-3.855 13.437-5.681z" fill="#fff"/></svg><svg fill="none" viewBox="0 0 16 16" id="timer_icon" xmlns="http://www.w3.org/2000/svg"><path fill-rule="evenodd" clip-rule="evenodd" d="M8 8.667V6zM14 4l-1.333-1.333zM6.667 1.333h2.666z" fill="#868686"/><path d="M7.35 8.667a.65.65 0 001.3 0h-1.3zM8.65 6a.65.65 0 00-1.3 0h1.3zm4.89-1.54a.65.65 0 10.92-.92l-.92.92zm-.414-2.253a.65.65 0 00-.919.92l.92-.92zM6.666.683a.65.65 0 100 1.3v-1.3zm2.667 1.3a.65.65 0 100-1.3v1.3zM8 13.35a4.683 4.683 0 01-4.683-4.683h-1.3A5.983 5.983 0 008 14.65v-1.3zM3.317 8.667A4.683 4.683 0 018 3.983v-1.3a5.983 5.983 0 00-5.983 5.984h1.3zM8 3.983a4.683 4.683 0 014.683 4.684h1.3A5.983 5.983 0 008 2.683v1.3zm4.683 4.684A4.683 4.683 0 018 13.35v1.3a5.983 5.983 0 005.983-5.983h-1.3zm-4.033 0V6h-1.3v2.667h1.3zm5.81-5.127l-1.334-1.333-.919.92L13.54 4.46l.92-.92zM6.667 1.983h2.666v-1.3H6.667v1.3z" fill="#868686"/></svg><svg fill="none" viewBox="0 0 20 21" id="trash" xmlns="http://www.w3.org/2000/svg"><path d="M11.667 8.833v5.834M8.333 8.833v5.834m-5-9.167h13.334M15 5.5v9.833c0 .934 0 1.4-.182 1.757-.16.314-.415.569-.728.728-.357.182-.823.182-1.757.182H7.667c-.934 0-1.4 0-1.757-.182a1.666 1.666 0 01-.728-.728C5 16.733 5 16.267 5 15.333V5.5h10zm-1.667 0H6.667c0-.777 0-1.165.126-1.471.17-.409.494-.733.902-.902C8.002 3 8.39 3 9.167 3h1.666c.777 0 1.165 0 1.471.127.409.169.733.493.902.902.127.306.127.694.127 1.471z" stroke="#EC1B00" stroke-width="1.5" stroke-linecap="round" stroke-linejoin="round"/></svg><svg fill="none" viewBox="0 0 60 60" id="zoom_icon" xmlns="http://www.w3.org/2000/svg"><g clip-path="url(#zclip0_287_205)" fill-opacity=".4"><rect width="60" height="60" rx="30" fill="#ECF7FF"/><path fill-rule="evenodd" clip-rule="evenodd" d="M17 29.607a12.608 12.608 0 1122.459 7.87l5.148 5.149a1.401 1.401 0 01-1.981 1.98l-5.148-5.148A12.608 12.608 0 0117 29.607zm12.608-5.604a1.4 1.4 0 011.4 1.401v2.802h2.802a1.4 1.4 0 110 2.802H31.01v2.802a1.401 1.401 0 01-2.802 0v-2.802h-2.802a1.4 1.4 0 110-2.802h2.802v-2.802a1.401 1.401 0 011.4-1.4z" fill="#30B4FF"/></g><defs><clipPath id="zclip0_287_205"><path fill="#fff" d="M0 0h60v60H0z"/></clipPath></defs></svg></svg>