<svg width="42" height="42" viewBox="0 0 42 42" fill="none" xmlns="http://www.w3.org/2000/svg">
<rect width="42" height="42" rx="8" fill="#ECF7FF"/>
<path d="M21 12C16.0374 12 12 16.0374 12 21V24.7287C12 25.6503 12.8073 26.4 13.8 26.4H14.7C14.9387 26.4 15.1676 26.3052 15.3364 26.1364C15.5052 25.9676 15.6 25.7387 15.6 25.5V20.8713C15.6 20.6326 15.5052 20.4037 15.3364 20.2349C15.1676 20.0661 14.9387 19.9713 14.7 19.9713H13.8828C14.3832 16.4883 17.3802 13.8 21 13.8C24.6198 13.8 27.6168 16.4883 28.1172 19.9713H27.3C27.0613 19.9713 26.8324 20.0661 26.6636 20.2349C26.4948 20.4037 26.4 20.6326 26.4 20.8713V26.4C26.4 27.3927 25.5927 28.2 24.6 28.2H22.8V27.3H19.2V30H24.6C26.5854 30 28.2 28.3854 28.2 26.4C29.1927 26.4 30 25.6503 30 24.7287V21C30 16.0374 25.9626 12 21 12Z" fill="#30B4FF"/>
</svg>
