<svg width="24" height="24" viewBox="0 0 24 24" fill="none" xmlns="http://www.w3.org/2000/svg">
<rect width="24" height="24" rx="4" fill="#2F89CE"/>
<path d="M5.61057 12.2246L8.36943 13.2534L9.4449 16.7136C9.49166 16.9474 9.77223 16.9942 9.95927 16.8539L11.5023 15.5914C11.6426 15.4511 11.8764 15.4511 12.0635 15.5914L14.8223 17.6021C15.0094 17.7423 15.2899 17.6488 15.3367 17.415L17.3941 7.59539C17.4409 7.36159 17.2071 7.12779 16.9733 7.22131L5.61057 11.6168C5.33001 11.7103 5.33001 12.1311 5.61057 12.2246ZM9.30463 12.739L14.7288 9.41903C14.8223 9.37227 14.9158 9.51256 14.8223 9.55932L10.3801 13.721C10.2398 13.8612 10.0995 14.0483 10.0995 14.2821L9.95927 15.4043C9.95927 15.5446 9.72546 15.5914 9.6787 15.4043L9.11758 13.3469C8.9773 13.1131 9.07083 12.8325 9.30463 12.739Z" fill="white"/>
</svg>
