<svg width="16" height="16" viewBox="0 0 16 16" fill="none" xmlns="http://www.w3.org/2000/svg">
<path fill-rule="evenodd" clip-rule="evenodd" d="M8.00008 8.66671V6.00004Z" fill="#868686"/>
<path fill-rule="evenodd" clip-rule="evenodd" d="M14.0001 4.00004L12.6667 2.66671Z" fill="#868686"/>
<path fill-rule="evenodd" clip-rule="evenodd" d="M6.66675 1.33337L9.33341 1.33337Z" fill="#868686"/>
<path d="M7.35008 8.66671C7.35008 9.02569 7.6411 9.31671 8.00008 9.31671C8.35907 9.31671 8.65008 9.02569 8.65008 8.66671H7.35008ZM8.65008 6.00004C8.65008 5.64106 8.35907 5.35004 8.00008 5.35004C7.6411 5.35004 7.35008 5.64106 7.35008 6.00004H8.65008ZM13.5405 4.45966C13.7943 4.7135 14.2059 4.7135 14.4597 4.45966C14.7135 4.20582 14.7135 3.79426 14.4597 3.54042L13.5405 4.45966ZM13.1264 2.20709C12.8725 1.95325 12.461 1.95325 12.2071 2.20709C11.9533 2.46093 11.9533 2.87249 12.2071 3.12633L13.1264 2.20709ZM6.66675 0.683374C6.30776 0.683374 6.01675 0.974389 6.01675 1.33337C6.01675 1.69236 6.30776 1.98337 6.66675 1.98337L6.66675 0.683374ZM9.33341 1.98337C9.6924 1.98337 9.98341 1.69236 9.98341 1.33337C9.98341 0.974389 9.6924 0.683374 9.33341 0.683374L9.33341 1.98337ZM8.00008 13.35C5.41355 13.35 3.31675 11.2532 3.31675 8.66671H2.01675C2.01675 11.9712 4.69558 14.65 8.00008 14.65V13.35ZM3.31675 8.66671C3.31675 6.08017 5.41355 3.98337 8.00008 3.98337V2.68337C4.69558 2.68337 2.01675 5.3622 2.01675 8.66671H3.31675ZM8.00008 3.98337C10.5866 3.98337 12.6834 6.08017 12.6834 8.66671H13.9834C13.9834 5.3622 11.3046 2.68337 8.00008 2.68337V3.98337ZM12.6834 8.66671C12.6834 11.2532 10.5866 13.35 8.00008 13.35V14.65C11.3046 14.65 13.9834 11.9712 13.9834 8.66671H12.6834ZM8.65008 8.66671V6.00004H7.35008V8.66671H8.65008ZM14.4597 3.54042L13.1264 2.20709L12.2071 3.12633L13.5405 4.45966L14.4597 3.54042ZM6.66675 1.98337L9.33341 1.98337L9.33341 0.683374L6.66675 0.683374L6.66675 1.98337Z" fill="#868686"/>
</svg>
