<svg width="17" height="16" viewBox="0 0 17 16" fill="none" xmlns="http://www.w3.org/2000/svg">
<path d="M0.949393 7.71989L4.6392 9.09575L6.07758 13.7236C6.14012 14.0363 6.51536 14.0988 6.76551 13.9112L8.82928 12.2227C9.0169 12.0351 9.3296 12.0351 9.57976 12.2227L13.2695 14.9118C13.5197 15.0995 13.8949 14.9744 13.9575 14.6617L16.7092 1.52855C16.7717 1.21585 16.459 0.903162 16.1463 1.02824L0.949393 6.90689C0.574161 7.03196 0.574161 7.59481 0.949393 7.71989ZM5.88997 8.40781L13.1445 3.96756C13.2695 3.90502 13.3946 4.09264 13.2695 4.15518L7.32836 9.72113C7.14074 9.90875 6.95312 10.1589 6.95312 10.4716L6.76551 11.9725C6.76551 12.1601 6.45281 12.2227 6.39028 11.9725L5.6398 9.22082C5.45219 8.90813 5.57728 8.53289 5.88997 8.40781Z" fill="#2F89CE"/>
</svg>
