<svg width="20" height="21" viewBox="0 0 20 21" fill="none" xmlns="http://www.w3.org/2000/svg">
<path d="M11.6666 8.83333V14.6667M8.33325 8.83333L8.33325 14.6667M3.33325 5.5H16.6666M14.9999 5.5V15.3333C14.9999 16.2668 15.0001 16.7335 14.8184 17.09C14.6587 17.4036 14.4033 17.6585 14.0897 17.8183C13.7332 18 13.2668 18 12.3334 18H7.66675C6.73333 18 6.26627 18 5.90975 17.8183C5.59615 17.6585 5.34136 17.4036 5.18157 17.09C4.99992 16.7335 4.99992 16.2668 4.99992 15.3333V5.5H14.9999ZM13.3333 5.5H6.66659C6.66659 4.72343 6.66659 4.33513 6.79345 4.02885C6.96261 3.62047 7.28685 3.29602 7.69523 3.12687C8.00152 3 8.39002 3 9.16659 3H10.8333C11.6098 3 11.9981 3 12.3044 3.12687C12.7128 3.29602 13.0371 3.62047 13.2063 4.02885C13.3332 4.33513 13.3333 4.72343 13.3333 5.5Z" stroke="#EC1B00" stroke-width="1.5" stroke-linecap="round" stroke-linejoin="round"/>
</svg>
