<svg width="16" height="16" viewBox="0 0 16 16" fill="none" xmlns="http://www.w3.org/2000/svg">
<path d="M11.8071 0.379766C9.15559 -0.126589 6.40212 -0.126589 3.75062 0.379766C2.57785 0.632943 1.09914 2.05074 0.844184 3.16472C0.385272 5.34204 0.385272 7.57 0.844184 9.74733C1.15013 10.8613 2.62884 12.2791 3.75062 12.5323C3.80162 12.5323 3.8526 12.5829 3.8526 12.6336V15.8236C3.8526 15.9755 4.05657 16.0768 4.15855 15.9249L5.68825 14.3552C5.68825 14.3552 6.91202 13.0893 7.11598 12.8867C7.11598 12.8867 7.16697 12.8361 7.21796 12.8361C8.74767 12.8867 10.3284 12.7348 11.8581 12.4816C13.0308 12.2285 14.5096 10.8107 14.7645 9.69669C15.2234 7.51937 15.2234 5.29141 14.7645 3.11408C14.4586 2.05074 12.9799 0.632943 11.8071 0.379766ZM11.8581 9.89924C11.6031 10.4056 11.2972 10.8107 10.7873 11.0639C10.6343 11.1145 10.4813 11.1651 10.3284 11.2158C10.1244 11.1651 9.97143 11.1145 9.81846 11.0639C8.18677 10.4056 6.65707 9.49415 5.4333 8.17763C4.77043 7.4181 4.20954 6.55729 3.75062 5.64586C3.54666 5.19014 3.3427 4.78505 3.18973 4.32933C3.03676 3.92425 3.29171 3.51917 3.54666 3.21535C3.80161 2.91154 4.10756 2.709 4.46449 2.55709C4.71944 2.40518 4.97439 2.50646 5.17835 2.709C5.58627 3.21535 5.99419 3.72171 6.30014 4.2787C6.5041 4.63315 6.45311 5.03823 6.09617 5.29141C5.99419 5.34204 5.9432 5.39268 5.84122 5.49395C5.79023 5.54458 5.68825 5.59522 5.63726 5.69649C5.53528 5.8484 5.53528 6.0003 5.58627 6.15221C5.99419 7.31683 6.75905 8.22826 7.93182 8.73462C8.13578 8.83589 8.28875 8.88653 8.54371 8.88653C8.90064 8.83589 9.05361 8.43081 9.30856 8.22826C9.56351 8.02572 9.86945 8.02572 10.1754 8.17763C10.4303 8.32954 10.6853 8.53208 10.9912 8.73462C11.2462 8.93716 11.5011 9.08907 11.7561 9.29161C11.9091 9.39288 11.9601 9.64606 11.8581 9.89924ZM9.71648 6.10158C9.6145 6.10158 9.66549 6.10158 9.71648 6.10158C9.51252 6.10158 9.46153 6.0003 9.41054 5.8484C9.41054 5.74713 9.41054 5.59522 9.35955 5.49395C9.30856 5.29141 9.20658 5.08887 9.00262 4.93696C8.90064 4.88632 8.79865 4.83569 8.69667 4.78505C8.5437 4.73442 8.44173 4.73442 8.28875 4.73442C8.13578 4.68378 8.08479 4.58251 8.08479 4.4306C8.08479 4.32933 8.23776 4.22806 8.33974 4.22806C9.15559 4.2787 9.76747 4.73442 9.86945 5.69649C9.86945 5.74713 9.86945 5.8484 9.86945 5.89903C9.86945 6.0003 9.81846 6.10158 9.71648 6.10158ZM9.20658 3.87361C8.95162 3.77234 8.69668 3.67107 8.39073 3.62044C8.28875 3.62044 8.13578 3.5698 8.0338 3.5698C7.88083 3.5698 7.77885 3.46853 7.82984 3.31662C7.82984 3.16472 7.93182 3.06345 8.08479 3.11408C8.5947 3.16472 9.05361 3.26599 9.51252 3.46853C10.4303 3.92425 10.9402 4.68378 11.0932 5.69649C11.0932 5.74713 11.0932 5.79776 11.0932 5.8484C11.0932 5.94967 11.0932 6.05094 11.0932 6.20284C11.0932 6.25348 11.0932 6.30412 11.0932 6.35475C11.0422 6.55729 10.6853 6.60793 10.6343 6.35475C10.6343 6.30412 10.5833 6.20285 10.5833 6.15221C10.5833 5.69649 10.4813 5.24077 10.2774 4.83569C9.97143 4.37997 9.6145 4.07616 9.20658 3.87361ZM11.96 6.91174C11.8071 6.91174 11.7051 6.75984 11.7051 6.60793C11.7051 6.30412 11.6541 6.0003 11.6031 5.69649C11.3992 4.07615 10.0734 2.75963 8.49272 2.50646C8.23777 2.45582 7.98281 2.45582 7.77885 2.40518C7.62588 2.40518 7.42192 2.40519 7.37093 2.20264C7.31994 2.05074 7.47291 1.89883 7.62588 1.89883C7.67687 1.89883 7.72786 1.89883 7.72786 1.89883C7.82984 1.89883 9.81846 1.94947 7.72786 1.89883C9.86945 1.94947 11.6541 3.36726 12.011 5.49395C12.062 5.8484 12.113 6.20285 12.113 6.60793C12.215 6.75984 12.113 6.91174 11.96 6.91174Z" fill="#7C509A"/>
</svg>
