<svg width="16" height="16" viewBox="0 0 16 16" fill="none" xmlns="http://www.w3.org/2000/svg">
<path d="M15.3563 12.9992H13.6052C12.9427 12.9992 12.7431 12.4346 11.5554 11.1844C10.5175 10.132 10.0791 10.0011 9.81658 10.0011C9.45346 10.0011 9.35443 10.1061 9.35443 10.6319V12.2893C9.35443 12.7375 9.21624 13 8.10307 13C7.02314 12.9237 5.9759 12.5785 5.0476 11.993C4.11931 11.4074 3.33652 10.5982 2.76372 9.63203C1.40365 7.85115 0.457325 5.76096 0 3.52769C0 3.25147 0.099801 3.0011 0.600341 3.0011H2.3507C2.80057 3.0011 2.96255 3.2119 3.13913 3.69892C3.98897 6.33029 5.43915 8.61922 6.02798 8.61922C6.25368 8.61922 6.35195 8.51422 6.35195 7.9222V5.21168C6.27748 3.97514 5.65334 3.87095 5.65334 3.42351C5.66124 3.30546 5.71256 3.1953 5.79642 3.11643C5.88028 3.03755 5.99006 2.99618 6.10245 3.0011H8.85388C9.23006 3.0011 9.35443 3.19817 9.35443 3.67146V7.33019C9.35443 7.72513 9.51564 7.85598 9.62926 7.85598C9.85497 7.85598 10.0285 7.72513 10.4423 7.29061C11.3292 6.1526 12.0539 4.88471 12.5934 3.52689C12.6486 3.36386 12.753 3.22431 12.8906 3.12953C13.0282 3.03474 13.1916 2.98992 13.3557 3.0019H15.1068C15.6319 3.0019 15.7432 3.27813 15.6319 3.67227C14.995 5.17325 14.2069 6.59804 13.2812 7.9222C13.0924 8.22508 13.0171 8.38257 13.2812 8.73795C13.4547 9.01417 14.0689 9.55369 14.4811 10.0666C15.0815 10.6965 15.5797 11.4251 15.9566 12.223C16.1071 12.7367 15.8561 12.9992 15.3563 12.9992Z" fill="#0077FE"/>
</svg>
