<svg width="20" height="20" viewBox="0 0 20 20" fill="none" xmlns="http://www.w3.org/2000/svg">
<path d="M12.0559 3.74941L11.0384 2.88233C10.4402 2.37256 9.55997 2.37256 8.96179 2.88233L7.94445 3.74943C7.68811 3.96788 7.36897 4.09994 7.03324 4.12673L5.70146 4.23304C4.91802 4.29555 4.29563 4.91769 4.23311 5.70113L4.12642 7.03374C4.09963 7.36946 3.968 7.68815 3.74955 7.94448L2.88231 8.96194C2.37254 9.56012 2.3727 10.44 2.88247 11.0381L3.74917 12.0556C3.96762 12.3119 4.09998 12.6306 4.12677 12.9664L4.23338 14.299C4.2959 15.0824 4.91722 15.7045 5.70066 15.7671L7.03367 15.8734C7.3694 15.9001 7.68798 16.0322 7.94432 16.2507L8.96157 17.1178C9.55976 17.6275 10.4402 17.6275 11.0384 17.1177L12.0556 16.2506C12.312 16.0322 12.6306 15.9002 12.9663 15.8734L14.2993 15.767C15.0827 15.7045 15.7041 15.0824 15.7666 14.2989L15.8732 12.9664C15.9 12.6307 16.0323 12.312 16.2508 12.0556L17.1175 11.0381C17.6273 10.4399 17.6276 9.56014 17.1179 8.96195L16.2504 7.94451C16.032 7.68817 15.8997 7.36944 15.8729 7.03371L15.7674 5.70112C15.7049 4.91767 15.0823 4.29559 14.2989 4.23307L12.9664 4.12669C12.6307 4.0999 12.3122 3.96786 12.0559 3.74941Z" fill="#30B4FF"/>
<path d="M12.5 8.33203L9.16667 11.6654L7.5 9.9987" stroke="white" stroke-width="1.5" stroke-linecap="round" stroke-linejoin="round"/>
</svg>
