<svg width="24" height="24" viewBox="0 0 24 24" fill="none" xmlns="http://www.w3.org/2000/svg">
<rect width="24" height="24" rx="4" fill="#48C95F"/>
<path d="M16.7561 7.24082C15.5707 6.05957 13.9902 5.40332 12.322 5.40332C8.85366 5.40332 6.0439 8.20332 6.0439 11.6596C6.0439 12.7533 6.35122 13.8471 6.87805 14.7658L6 18.0033L9.33659 17.1283C10.2585 17.6096 11.2683 17.8721 12.322 17.8721C15.7902 17.8721 18.6 15.0721 18.6 11.6158C18.5561 9.99707 17.9415 8.42207 16.7561 7.24082ZM15.3512 13.8908C15.2195 14.2408 14.6049 14.5908 14.2976 14.6346C14.0341 14.6783 13.6829 14.6783 13.3317 14.5908C13.1122 14.5033 12.8049 14.4158 12.4537 14.2408C10.8732 13.5846 9.86342 12.0096 9.77561 11.8783C9.68781 11.7908 9.11708 11.0471 9.11708 10.2596C9.11708 9.47207 9.5122 9.12207 9.6439 8.94707C9.77561 8.77207 9.95122 8.77207 10.0829 8.77207C10.1707 8.77207 10.3024 8.77207 10.3902 8.77207C10.478 8.77207 10.6098 8.72832 10.7415 9.03457C10.8732 9.34082 11.1805 10.1283 11.2244 10.1721C11.2683 10.2596 11.2683 10.3471 11.2244 10.4346C11.1805 10.5221 11.1366 10.6096 11.0488 10.6971C10.961 10.7846 10.8732 10.9158 10.8293 10.9596C10.7415 11.0471 10.6537 11.1346 10.7415 11.2658C10.8293 11.4408 11.1366 11.9221 11.6195 12.3596C12.2341 12.8846 12.7171 13.0596 12.8927 13.1471C13.0683 13.2346 13.1561 13.1908 13.2439 13.1033C13.3317 13.0158 13.639 12.6658 13.7268 12.4908C13.8146 12.3158 13.9463 12.3596 14.0781 12.4033C14.2098 12.4471 15 12.8408 15.1317 12.9283C15.3073 13.0158 15.3951 13.0596 15.439 13.1033C15.4829 13.2346 15.4829 13.5408 15.3512 13.8908Z" fill="white"/>
</svg>
