<svg width="16" height="16" viewBox="0 0 16 16" fill="none" xmlns="http://www.w3.org/2000/svg">
<path d="M12.7852 3.04167C11.4681 1.72917 9.71203 1 7.85837 1C4.00471 1 0.882764 4.11111 0.882764 7.95139C0.882764 9.16667 1.22423 10.3819 1.80959 11.4028L0.833984 15L4.5413 14.0278C5.56569 14.5625 6.68764 14.8542 7.85837 14.8542C11.712 14.8542 14.834 11.7431 14.834 7.90278C14.7852 6.10417 14.1023 4.35417 12.7852 3.04167ZM11.2242 10.4306C11.0779 10.8194 10.395 11.2083 10.0535 11.2569C9.76081 11.3056 9.37057 11.3056 8.98033 11.2083C8.73642 11.1111 8.39496 11.0139 8.00472 10.8194C6.24862 10.0903 5.12667 8.34028 5.02911 8.19444C4.93155 8.09722 4.2974 7.27083 4.2974 6.39583C4.2974 5.52083 4.73642 5.13194 4.88276 4.9375C5.02911 4.74306 5.22423 4.74306 5.37057 4.74306C5.46813 4.74306 5.61447 4.74306 5.71203 4.74306C5.80959 4.74306 5.95594 4.69444 6.10228 5.03472C6.24862 5.375 6.59008 6.25 6.63886 6.29861C6.68764 6.39583 6.68764 6.49306 6.63886 6.59028C6.59008 6.6875 6.5413 6.78472 6.44374 6.88194C6.34618 6.97917 6.24862 7.125 6.19984 7.17361C6.10227 7.27083 6.00472 7.36805 6.10228 7.51389C6.19984 7.70833 6.5413 8.24305 7.07789 8.72917C7.76081 9.3125 8.2974 9.50695 8.49252 9.60417C8.68764 9.70139 8.7852 9.65278 8.88276 9.55556C8.98032 9.45833 9.32179 9.06945 9.41935 8.875C9.51691 8.68056 9.66325 8.72917 9.80959 8.77778C9.95593 8.82639 10.834 9.26389 10.9803 9.36111C11.1754 9.45833 11.273 9.50694 11.3218 9.55556C11.3706 9.70139 11.3706 10.0417 11.2242 10.4306Z" fill="#48C95F"/>
</svg>
