<svg width="60" height="60" viewBox="0 0 60 60" fill="none" xmlns="http://www.w3.org/2000/svg">
<g clip-path="url(#clip0_287_205)">
<rect width="60" height="60" rx="30" fill="#ECF7FF" fill-opacity="0.4"/>
<path fill-rule="evenodd" clip-rule="evenodd" d="M17 29.607C17.0002 27.593 17.4829 25.6083 18.4076 23.8192C19.3323 22.03 20.6721 20.4884 22.3149 19.3234C23.9577 18.1584 25.8556 17.404 27.8499 17.1232C29.8441 16.8423 31.8766 17.0434 33.7772 17.7094C35.6778 18.3755 37.3912 19.4872 38.774 20.9514C40.1567 22.4157 41.1686 24.1899 41.7249 26.1255C42.2812 28.0611 42.3658 30.1019 41.9715 32.0769C41.5772 34.052 40.7155 35.9038 39.4586 37.4774L44.6068 42.6258C44.8619 42.89 45.0031 43.2439 44.9999 43.6112C44.9968 43.9786 44.8494 44.3299 44.5897 44.5897C44.33 44.8494 43.9786 44.9968 43.6113 44.9999C43.244 45.0031 42.8901 44.8619 42.6259 44.6067L37.4778 39.4583C35.6229 40.9405 33.3871 41.8687 31.0279 42.1362C28.6687 42.4037 26.2819 41.9995 24.1423 40.9702C22.0027 39.9408 20.1972 38.3282 18.9336 36.3179C17.67 34.3077 16.9998 31.9814 17 29.607ZM29.6077 24.0033C29.9793 24.0033 30.3356 24.1509 30.5983 24.4136C30.861 24.6763 31.0086 25.0327 31.0086 25.4042V28.2061H33.8103C34.1819 28.2061 34.5382 28.3537 34.8009 28.6164C35.0636 28.8791 35.2112 29.2354 35.2112 29.607C35.2112 29.9785 35.0636 30.3349 34.8009 30.5976C34.5382 30.8603 34.1819 31.0079 33.8103 31.0079H31.0086V33.8098C31.0086 34.1813 30.861 34.5377 30.5983 34.8004C30.3356 35.0631 29.9793 35.2107 29.6077 35.2107C29.2362 35.2107 28.8799 35.0631 28.6172 34.8004C28.3545 34.5377 28.2069 34.1813 28.2069 33.8098V31.0079H25.4052C25.0336 31.0079 24.6773 30.8603 24.4146 30.5976C24.1519 30.3349 24.0043 29.9785 24.0043 29.607C24.0043 29.2354 24.1519 28.8791 24.4146 28.6164C24.6773 28.3537 25.0336 28.2061 25.4052 28.2061H28.2069V25.4042C28.2069 25.0327 28.3545 24.6763 28.6172 24.4136C28.8799 24.1509 29.2362 24.0033 29.6077 24.0033Z" fill="#30B4FF" fill-opacity="0.4"/>
</g>
<defs>
<clipPath id="clip0_287_205">
<rect width="60" height="60" fill="white"/>
</clipPath>
</defs>
</svg>
