<svg width="201" height="112" viewBox="0 0 201 112" fill="none" xmlns="http://www.w3.org/2000/svg">
<path d="M199.258 1.61035C189.725 7.62777 179.165 12.1001 168.906 16.6733C154.456 23.1143 139.668 30.2412 124.028 33.3218C119.733 34.1678 115.403 34.8409 111.032 35.1339C110.013 35.2022 107.701 35.5159 106.729 34.7375C103.134 31.8617 119.715 27.9372 120.064 27.8572C122.819 27.226 130.59 22.9588 129.974 28.6783C128.87 38.9312 116.885 46.9394 109.05 51.6125C83.9386 66.5914 55.4979 70.2355 27.3083 75.3112C19.2393 76.764 1.68528 78.0514 1.51448 89.7229C1.39748 97.7179 5.01943 103.258 9.1592 109.656" stroke="#E2F3FF" stroke-width="3" stroke-linecap="round" stroke-linejoin="round" stroke-dasharray="6 6"/>
</svg>
