<svg width="54" height="80" viewBox="0 0 54 80" fill="none" xmlns="http://www.w3.org/2000/svg">
<path d="M10.4477 2.20654C14.4587 4.024 17.6828 7.07717 20.9693 9.95775C23.7807 12.4219 28.2398 15.6685 30.1942 19.1236C31.9443 22.2177 31.1789 26.9794 29.1921 29.7042C28.9063 30.0961 26.6338 32.0309 26.6575 32.6219C26.7236 34.2756 29.9148 32.0213 31.5204 31.6199C35.845 30.5387 44.5237 27.9463 48.9385 30.382C52.6521 32.4309 52.4439 38.8157 52.3573 42.3478C52.1338 51.4672 46.9476 59.0413 39.6842 64.3046C30.9332 70.6459 20.055 75.5752 9.41622 77.5966C7.07904 78.0407 4.67995 78.4135 2.49023 77.5377" stroke="#E2F3FF" stroke-width="3" stroke-linecap="round" stroke-linejoin="round" stroke-dasharray="6 6"/>
</svg>
