<svg width="241" height="111" viewBox="0 0 241 111" fill="none" xmlns="http://www.w3.org/2000/svg">
<path d="M238.749 2.44727C216.821 16.2537 194.528 28.8149 170.874 39.3804C165.802 41.6461 146.388 51.3527 141.492 43.6483C131.337 27.6692 165.047 25.1941 172.926 25.8383C179.993 26.416 186.052 27.718 188.52 35.0305C191.196 42.9588 193.46 53.914 185.524 59.4885C180.148 63.2652 175.296 64.2181 168.658 65.3978C157.143 67.4442 142.027 68.5848 130.699 69.5015C115.844 70.7036 98.2877 73.8812 83.2196 72.1689C66.3026 70.2465 119.685 68.5866 133.982 77.832C141.198 82.498 141.531 89.1927 135.377 94.7802C127.84 101.625 115.337 102.281 105.872 103.48C71.7237 107.805 36.7457 107.352 2.37695 108.815" stroke="#E2F3FF" stroke-width="3" stroke-linecap="round" stroke-linejoin="round" stroke-dasharray="6 6"/>
</svg>
